<svg width="290" height="42" viewBox="0 0 290 42" fill="none" xmlns="http://www.w3.org/2000/svg">
<path d="M101.195 27.9081C99.7227 26.5827 98.9127 24.7173 98.9127 22.0173V12.371C98.9127 12.0273 99.1827 11.7573 99.5263 11.7573H101.711C102.054 11.7573 102.324 12.0273 102.324 12.371V22.2627C102.324 23.8827 102.766 24.8645 103.478 25.5518C104.239 26.2882 105.294 26.6809 106.497 26.6809C107.675 26.6809 108.755 26.2882 109.516 25.5518C110.253 24.8645 110.67 23.8827 110.67 22.2627V12.371C110.67 12.0273 110.94 11.7573 111.284 11.7573H113.468C113.812 11.7573 114.082 12.0273 114.082 12.371V22.0173C114.082 24.7173 113.272 26.6072 111.799 27.9081C110.424 29.1354 108.485 29.7245 106.473 29.7245C104.534 29.7245 102.57 29.1109 101.195 27.9081Z" fill="white"/>
<path d="M127.41 22.3609L133.693 12.0519C133.816 11.8801 134.012 11.7573 134.209 11.7573H135.657C136.001 11.7573 136.271 12.0273 136.271 12.371V28.8654C136.271 29.209 136.001 29.479 135.657 29.479H133.472C133.129 29.479 132.859 29.209 132.859 28.8654V19.5873L128.784 26.2636C128.686 26.4354 128.49 26.5336 128.293 26.5336H126.575C126.379 26.5336 126.183 26.4354 126.084 26.2636L122.01 19.5873V28.8409C122.01 29.1845 121.74 29.4545 121.396 29.4545H119.212C118.868 29.4545 118.598 29.1845 118.598 28.8409V12.371C118.598 12.0273 118.868 11.7573 119.212 11.7573H120.66C120.881 11.7573 121.077 11.8801 121.175 12.0519L127.41 22.3609Z" fill="white"/>
<path d="M159.564 11.7573H161.061C161.233 11.7573 161.405 11.831 161.528 11.9782L171.223 23.3182V12.371C171.223 12.0273 171.493 11.7573 171.837 11.7573H174.021C174.365 11.7573 174.635 12.0273 174.635 12.371V28.8654C174.635 29.209 174.365 29.479 174.021 29.479H172.524C172.352 29.479 172.18 29.4054 172.058 29.2581L162.362 17.9182V28.8409C162.362 29.1845 162.092 29.4545 161.749 29.4545H159.564C159.22 29.4545 158.951 29.1845 158.951 28.8409V12.371C158.951 12.0273 159.22 11.7573 159.564 11.7573Z" fill="white"/>
<path d="M188.356 20.7162C188.405 24.1035 191.031 26.6807 194.418 26.6807C196.456 26.6807 198.002 25.8216 199.033 24.6926C199.254 24.4471 199.647 24.4226 199.892 24.6435L201.34 25.9198C201.586 26.1407 201.61 26.5335 201.389 26.8034C199.794 28.5462 197.339 29.7243 194.345 29.7243C188.822 29.7243 184.944 25.6989 184.944 20.618C184.944 15.5372 188.773 11.5117 194.296 11.5117C196.677 11.5117 198.738 12.3217 200.285 13.5981C200.555 13.819 200.579 14.2362 200.334 14.5062L198.984 15.9299C198.763 16.1753 198.395 16.1753 198.149 15.979C197.094 15.0953 195.67 14.4817 194.05 14.5553C190.786 14.6535 188.282 17.4762 188.356 20.7162Z" fill="white"/>
<path d="M226.843 22.2627V28.8654C226.843 29.209 226.573 29.479 226.229 29.479H224.045C223.701 29.479 223.431 29.209 223.431 28.8654V12.371C223.431 12.0273 223.701 11.7573 224.045 11.7573H230.083C232.366 11.7573 233.716 12.3219 234.697 13.3528C235.581 14.2609 236.096 15.6355 236.096 17.0346C236.096 18.4337 235.581 19.7836 234.697 20.7164C233.74 21.7227 232.366 22.2873 230.083 22.2873H226.843V22.2627ZM229.936 19.2191C231.089 19.2191 231.678 18.9491 232.096 18.5073C232.464 18.1146 232.685 17.5991 232.685 17.01C232.685 16.4209 232.488 15.9055 232.096 15.4882C231.703 15.0464 231.114 14.7764 229.936 14.7764H226.843V19.2191H229.936Z" fill="white"/>
<path d="M239.729 11.7573H241.914C242.257 11.7573 242.527 12.0273 242.527 12.371V28.8654C242.527 29.209 242.257 29.479 241.914 29.479H239.729C239.385 29.479 239.115 29.209 239.115 28.8654V12.371C239.115 12.0273 239.385 11.7573 239.729 11.7573Z" fill="white"/>
<path d="M258.482 12.3708V14.1872C258.482 14.5308 258.212 14.8008 257.868 14.8008H253.794V28.8653C253.794 29.2089 253.524 29.4789 253.18 29.4789H250.995C250.652 29.4789 250.382 29.2089 250.382 28.8653V14.7763H246.307C245.964 14.7763 245.694 14.5063 245.694 14.1627V12.3463C245.694 12.0027 245.964 11.7327 246.307 11.7327H257.868C258.212 11.7572 258.482 12.0272 258.482 12.3708Z" fill="white"/>
<path d="M278.977 11.7573H281.162C281.505 11.7573 281.775 12.0273 281.775 12.371V26.4354H288.059C288.402 26.4354 288.672 26.7054 288.672 27.0491V28.8654C288.672 29.209 288.402 29.479 288.059 29.479H278.977C278.633 29.479 278.363 29.209 278.363 28.8654V12.371C278.363 12.0273 278.633 11.7573 278.977 11.7573Z" fill="white"/>
<path d="M214.325 22.5082L212.067 17.2555L209.808 22.5082L208.507 25.5518L206.986 29.1109C206.887 29.3318 206.667 29.479 206.421 29.479H204.187C203.746 29.479 203.451 29.0372 203.623 28.62L210.692 12.1255C210.79 11.9046 211.011 11.7573 211.257 11.7573H212.852C213.097 11.7573 213.318 11.9046 213.417 12.1255L220.486 28.62C220.657 29.0372 220.363 29.479 219.921 29.479H217.687C217.442 29.479 217.221 29.3318 217.123 29.1109L215.601 25.5518L214.325 22.5082Z" fill="white"/>
<path d="M149.844 22.5082L147.586 17.2555L145.352 22.5082L144.052 25.5518L142.53 29.1109C142.432 29.3318 142.211 29.479 141.965 29.479H139.732C139.29 29.479 138.995 29.0372 139.167 28.62L146.236 12.1255C146.334 11.9046 146.555 11.7573 146.801 11.7573H148.396C148.641 11.7573 148.862 11.9046 148.961 12.1255L156.03 28.62C156.201 29.0372 155.907 29.479 155.465 29.479H153.231C152.986 29.479 152.765 29.3318 152.667 29.1109L151.145 25.5518L149.844 22.5082Z" fill="white"/>
<path d="M269.085 22.5082L266.827 17.2555L264.569 22.5082L263.268 25.5518L261.746 29.1109C261.648 29.3318 261.427 29.479 261.182 29.479H258.948C258.506 29.479 258.212 29.0372 258.384 28.62L265.453 12.1255C265.551 11.9046 265.772 11.7573 266.017 11.7573H267.613C267.858 11.7573 268.079 11.9046 268.177 12.1255L275.246 28.62C275.418 29.0372 275.123 29.479 274.682 29.479H272.448C272.203 29.479 271.982 29.3318 271.883 29.1109L270.362 25.5518L269.085 22.5082Z" fill="white"/>
<path d="M179.789 21.7471C180.738 21.7471 181.508 20.9779 181.508 20.029C181.508 19.08 180.738 18.3108 179.789 18.3108C178.841 18.3108 178.071 19.08 178.071 20.029C178.071 20.9779 178.841 21.7471 179.789 21.7471Z" fill="#BB945B"/>
<path d="M91.0827 21.5017H82.2218V28.9389C82.2218 29.2335 81.9764 29.4789 81.6818 29.4789H79.3255C79.0309 29.4789 78.7855 29.2335 78.7855 28.9389V12.2727C78.7855 11.9781 79.0309 11.7327 79.3255 11.7327H81.6818C81.9764 11.7327 82.2218 11.9781 82.2218 12.2727V18.4581H91.0827V12.2727C91.0827 11.9781 91.3281 11.7327 91.6227 11.7327H93.979C94.2736 11.7327 94.519 11.9781 94.519 12.2727V28.9389C94.519 29.2335 94.2736 29.4789 93.979 29.4789H91.5981C91.3036 29.4789 91.0581 29.2335 91.0581 28.9389V21.5017H91.0827Z" fill="white"/>
<path fill-rule="evenodd" clip-rule="evenodd" d="M0 40.8434V0.41727C0 0.196363 0.196363 0 0.41727 0H66.9596C67.1805 0 67.3769 0.196363 67.3769 0.41727V40.8434C67.3769 41.0643 67.1805 41.2607 66.9596 41.2607H0.41727C0.196363 41.2607 0 41.0889 0 40.8434ZM63.5969 3.36271H3.77998C3.55907 3.36271 3.36271 3.55907 3.36271 3.77998V37.4807C3.36271 37.7016 3.55907 37.898 3.77998 37.898H63.5724C63.7933 37.898 63.9896 37.7016 63.9896 37.4807V3.77998C64.0142 3.55907 63.8178 3.36271 63.5969 3.36271ZM14.7517 29.4789H12.2236C12.0027 29.4789 11.8063 29.2826 11.8063 29.0617V12.2236C11.8063 12.0027 12.0027 11.8063 12.2236 11.8063H14.7517C14.9726 11.8063 15.169 12.0027 15.169 12.2236V29.0617C15.169 29.2826 14.9726 29.4789 14.7517 29.4789ZM29.0617 29.4789H26.5335C26.3126 29.4789 26.1162 29.2826 26.1162 29.0617V12.2236C26.1162 12.0027 26.3126 11.8063 26.5335 11.8063H29.0617C29.2826 11.8063 29.4789 12.0027 29.4789 12.2236V29.0617C29.4789 29.2826 29.2826 29.4789 29.0617 29.4789ZM55.1779 15.169H38.3398C38.1189 15.169 37.9225 14.9726 37.9225 14.7517V12.2236C37.9225 12.0027 38.1189 11.8063 38.3398 11.8063H55.1779C55.3988 11.8063 55.5951 12.0027 55.5951 12.2236V14.7517C55.5951 14.9726 55.3988 15.169 55.1779 15.169ZM55.1779 29.4789H38.3398C38.1189 29.4789 37.9225 29.2826 37.9225 29.0617V26.5335C37.9225 26.3126 38.1189 26.1162 38.3398 26.1162H55.1779C55.3988 26.1162 55.5951 26.3126 55.5951 26.5335V29.0617C55.5951 29.2826 55.3988 29.4789 55.1779 29.4789Z" fill="#BB945B"/>
</svg>
