<svg width="110" height="110" viewBox="0 0 110 110" fill="none" xmlns="http://www.w3.org/2000/svg">
<path d="M55.3 108.6C84.7368 108.6 108.6 84.7368 108.6 55.3C108.6 25.8632 84.7368 2 55.3 2C25.8632 2 2 25.8632 2 55.3C2 84.7368 25.8632 108.6 55.3 108.6Z" stroke="#BB945B" stroke-width="2" stroke-miterlimit="10" stroke-linecap="round" stroke-linejoin="round"/>
<path d="M56.7998 43.8V34.6L76.5998 27.3V78.5L56.7998 85.4V67.7" stroke="#BB945B" stroke-width="2" stroke-miterlimit="10" stroke-linecap="round" stroke-linejoin="round"/>
<path d="M76.6002 27.3H48.2002V44.1" stroke="#BB945B" stroke-width="2" stroke-miterlimit="10" stroke-linecap="round" stroke-linejoin="round"/>
<path d="M48.2002 67.7V78.1H56.8002" stroke="#BB945B" stroke-width="2" stroke-miterlimit="10" stroke-linecap="round" stroke-linejoin="round"/>
<path d="M41.3998 59.8C39.8998 64.2 35.7998 67.4 30.8998 67.4C24.7998 67.4 19.7998 62.4 19.7998 56.3C19.7998 50.2 24.7998 45.2 30.8998 45.2C35.4998 45.2 39.3998 48 41.0998 51.9H67.5998L63.4998 59.7L59.5998 57.4L55.3998 59.7L52.5998 57.4L49.3998 59.7L41.3998 59.8Z" stroke="#BB945B" stroke-width="2" stroke-miterlimit="10" stroke-linecap="round" stroke-linejoin="round"/>
<path d="M27.7 57.5C28.6389 57.5 29.4 56.7389 29.4 55.8C29.4 54.8611 28.6389 54.1 27.7 54.1C26.7611 54.1 26 54.8611 26 55.8C26 56.7389 26.7611 57.5 27.7 57.5Z" stroke="#BB945B" stroke-width="2" stroke-miterlimit="10" stroke-linecap="round" stroke-linejoin="round"/>
</svg>
