<svg width="110" height="110" viewBox="0 0 110 110" fill="none" xmlns="http://www.w3.org/2000/svg">
<path d="M55.3 108.6C84.7368 108.6 108.6 84.7368 108.6 55.3C108.6 25.8632 84.7368 2 55.3 2C25.8632 2 2 25.8632 2 55.3C2 84.7368 25.8632 108.6 55.3 108.6Z" stroke="#BB945B" stroke-width="2" stroke-miterlimit="10" stroke-linecap="round" stroke-linejoin="round"/>
<path d="M55.2 78.2C45.7 78.2 38 70.5 38 61V51.4H72.3V61C72.4 70.5 64.7 78.2 55.2 78.2Z" stroke="#BB945B" stroke-width="2" stroke-miterlimit="10" stroke-linecap="round" stroke-linejoin="round"/>
<path d="M72.3998 57.8H76.8998C79.9998 57.8 82.5998 60.3 82.5998 63.5C82.5998 66.6 80.0998 69.2 76.8998 69.2H70.2998" stroke="#BB945B" stroke-width="2" stroke-miterlimit="10" stroke-linecap="round" stroke-linejoin="round"/>
<path d="M36.2002 78.2H73.1002" stroke="#BB945B" stroke-width="2" stroke-miterlimit="10" stroke-linecap="round" stroke-linejoin="round"/>
<path d="M45.3 26C42.8 29.3 42.8 32.5 45 34.7C47.2 37 47.5 41.9 43.5 44.3" stroke="#BB945B" stroke-width="1.5996" stroke-miterlimit="10" stroke-linecap="round" stroke-linejoin="round"/>
<path d="M53.8 26C51.3 29.3 51.3 32.5 53.5 34.7C55.7 37 56 41.9 52 44.3" stroke="#BB945B" stroke-width="1.5996" stroke-miterlimit="10" stroke-linecap="round" stroke-linejoin="round"/>
<path d="M62.3 26C59.8 29.3 59.8 32.5 62 34.7C64.2 37 64.5 41.9 60.5 44.3" stroke="#BB945B" stroke-width="1.5996" stroke-miterlimit="10" stroke-linecap="round" stroke-linejoin="round"/>
</svg>
