<svg width="110" height="110" viewBox="0 0 110 110" fill="none" xmlns="http://www.w3.org/2000/svg">
<path d="M55.3 108.6C84.7368 108.6 108.6 84.7368 108.6 55.3C108.6 25.8632 84.7368 2 55.3 2C25.8632 2 2 25.8632 2 55.3C2 84.7368 25.8632 108.6 55.3 108.6Z" stroke="#BB945B" stroke-width="2" stroke-miterlimit="10" stroke-linecap="round" stroke-linejoin="round"/>
<path d="M55.3 52.4C61.2647 52.4 66.1 47.5647 66.1 41.6C66.1 35.6353 61.2647 30.8 55.3 30.8C49.3353 30.8 44.5 35.6353 44.5 41.6C44.5 47.5647 49.3353 52.4 55.3 52.4Z" stroke="#BB945B" stroke-width="2" stroke-miterlimit="10" stroke-linecap="round" stroke-linejoin="round"/>
<path d="M33.1001 54.2C36.4138 54.2 39.1001 51.5137 39.1001 48.2C39.1001 44.8863 36.4138 42.2 33.1001 42.2C29.7864 42.2 27.1001 44.8863 27.1001 48.2C27.1001 51.5137 29.7864 54.2 33.1001 54.2Z" stroke="#BB945B" stroke-width="2" stroke-miterlimit="10" stroke-linecap="round" stroke-linejoin="round"/>
<path d="M77.2002 54.2C80.5139 54.2 83.2002 51.5137 83.2002 48.2C83.2002 44.8863 80.5139 42.2 77.2002 42.2C73.8865 42.2 71.2002 44.8863 71.2002 48.2C71.2002 51.5137 73.8865 54.2 77.2002 54.2Z" stroke="#BB945B" stroke-width="2" stroke-miterlimit="10" stroke-linecap="round" stroke-linejoin="round"/>
<path d="M72.5001 74V72.1C72.5001 66.3 67.8001 61.7 62.1001 61.7H49.5001C43.7001 61.7 39.1001 66.4 39.1001 72.1V74" stroke="#BB945B" stroke-width="2" stroke-miterlimit="10" stroke-linecap="round" stroke-linejoin="round"/>
<path d="M37.7001 61.7H35.5001C29.7001 61.7 25.1001 66.4 25.1001 72.1V74" stroke="#BB945B" stroke-width="2" stroke-miterlimit="10" stroke-linecap="round" stroke-linejoin="round"/>
<path d="M72.5 61.7H74.7C80.5 61.7 85.1 66.4 85.1 72.1V74" stroke="#BB945B" stroke-width="2" stroke-miterlimit="10" stroke-linecap="round" stroke-linejoin="round"/>
</svg>
