<svg width="110" height="110" viewBox="0 0 110 110" fill="none" xmlns="http://www.w3.org/2000/svg">
<path d="M55.3 108.6C84.7368 108.6 108.6 84.7368 108.6 55.3C108.6 25.8632 84.7368 2 55.3 2C25.8632 2 2 25.8632 2 55.3C2 84.7368 25.8632 108.6 55.3 108.6Z" stroke="#BB945B" stroke-width="2" stroke-miterlimit="10" stroke-linecap="round" stroke-linejoin="round"/>
<path d="M45.3999 74.1L25.3999 85.5V35.6L45.3999 24.2V74.1Z" stroke="#BB945B" stroke-width="2" stroke-miterlimit="10" stroke-linecap="round" stroke-linejoin="round"/>
<path d="M85.2998 74.1L65.2998 85.5V35.6L85.2998 24.2V74.1Z" stroke="#BB945B" stroke-width="2" stroke-miterlimit="10" stroke-linecap="round" stroke-linejoin="round"/>
<path d="M65.2999 35.6L45.3999 24.2V74.1L65.2999 85.5" stroke="#BB945B" stroke-width="2" stroke-miterlimit="10" stroke-linecap="round" stroke-linejoin="round"/>
<path d="M34.6998 70.3C34.3998 69.7 34.0998 69.1 33.7998 68.5" stroke="#BB945B" stroke-width="2" stroke-linecap="round" stroke-linejoin="round"/>
<path d="M32.6997 64.7C30.7997 54.8 35.2997 42.6 46.6997 46.9C60.3997 52 53.9997 67.9 65.3997 69.1C73.5997 70 77.6997 67.8 76.9997 58.8" stroke="#BB945B" stroke-width="2" stroke-linecap="round" stroke-linejoin="round" stroke-dasharray="4.01 4.01"/>
<path d="M76.7995 56.8C76.6995 56.2 76.5995 55.5 76.4995 54.8" stroke="#BB945B" stroke-width="2" stroke-linecap="round" stroke-linejoin="round"/>
<path d="M71.7002 44.5L79.4002 49.3" stroke="#BB945B" stroke-width="2" stroke-miterlimit="10" stroke-linecap="round" stroke-linejoin="round"/>
<path d="M77.9002 43L73.2002 50.7" stroke="#BB945B" stroke-width="2" stroke-miterlimit="10" stroke-linecap="round" stroke-linejoin="round"/>
</svg>
