<svg width="110" height="110" viewBox="0 0 110 110" fill="none" xmlns="http://www.w3.org/2000/svg">
<path d="M55.3 108.6C84.7368 108.6 108.6 84.7368 108.6 55.3C108.6 25.8632 84.7368 2 55.3 2C25.8632 2 2 25.8632 2 55.3C2 84.7368 25.8632 108.6 55.3 108.6Z" stroke="#BB945B" stroke-width="2" stroke-miterlimit="10" stroke-linecap="round" stroke-linejoin="round"/>
<path d="M58.7001 35.6H79.7001C83.2001 35.6 86.1001 38.4 86.1001 42V69.2C86.1001 72.7 83.3001 75.6 79.7001 75.6H31.0001C27.5001 75.6 24.6001 72.8 24.6001 69.2V41.9C24.6001 38.4 27.4001 35.5 31.0001 35.5H52.0001" stroke="#BB945B" stroke-width="2" stroke-miterlimit="10" stroke-linecap="round" stroke-linejoin="round"/>
<path d="M58.7 28.7H52V39.9H58.7V28.7Z" stroke="#BB945B" stroke-width="2" stroke-miterlimit="10" stroke-linecap="round" stroke-linejoin="round"/>
<path d="M60.2002 49H79.5002" stroke="#BB945B" stroke-width="2" stroke-miterlimit="10" stroke-linecap="round" stroke-linejoin="round"/>
<path d="M60.2002 55.6H79.5002" stroke="#BB945B" stroke-width="2" stroke-miterlimit="10" stroke-linecap="round" stroke-linejoin="round"/>
<path d="M60.2002 62.1H79.5002" stroke="#BB945B" stroke-width="2" stroke-miterlimit="10" stroke-linecap="round" stroke-linejoin="round"/>
<path d="M42.3998 66.8C48.254 66.8 52.9998 62.0542 52.9998 56.2C52.9998 50.3458 48.254 45.6 42.3998 45.6C36.5456 45.6 31.7998 50.3458 31.7998 56.2C31.7998 62.0542 36.5456 66.8 42.3998 66.8Z" stroke="#BB945B" stroke-width="2" stroke-miterlimit="10" stroke-linecap="round" stroke-linejoin="round"/>
<path d="M42.4001 59.2999C44.7749 59.2999 46.7001 57.3748 46.7001 55C46.7001 52.6251 44.7749 50.7 42.4001 50.7C40.0253 50.7 38.1001 52.6251 38.1001 55C38.1001 57.3748 40.0253 59.2999 42.4001 59.2999Z" stroke="#BB945B" stroke-width="2" stroke-miterlimit="10" stroke-linecap="round" stroke-linejoin="round"/>
<path d="M39.9 58.5L36.5 64.3" stroke="#BB945B" stroke-width="2" stroke-miterlimit="10" stroke-linecap="round" stroke-linejoin="round"/>
<path d="M45 58.5L48.4 64.3" stroke="#BB945B" stroke-width="2" stroke-miterlimit="10" stroke-linecap="round" stroke-linejoin="round"/>
</svg>
