<svg width="110" height="110" viewBox="0 0 110 110" fill="none" xmlns="http://www.w3.org/2000/svg">
<path d="M55.3 108.6C84.7368 108.6 108.6 84.7368 108.6 55.3C108.6 25.8632 84.7368 2 55.3 2C25.8632 2 2 25.8632 2 55.3C2 84.7368 25.8632 108.6 55.3 108.6Z" stroke="#BB945B" stroke-width="2" stroke-miterlimit="10" stroke-linecap="round" stroke-linejoin="round"/>
<path d="M37.7001 67.2C41.1001 68.9 45.0001 69.9 49.3001 69.9C61.5001 69.9 71.5001 61.7 71.5001 51.7C71.5001 41.7 61.6001 33.5 49.3001 33.5C37.0001 33.5 27.1001 41.7 27.1001 51.7C27.1001 55.8 28.8001 59.7 31.6001 62.7L28.9001 72.4L37.7001 67.2Z" stroke="#BB945B" stroke-width="2" stroke-miterlimit="10" stroke-linecap="round" stroke-linejoin="round"/>
<path d="M77.0998 47.8C81.9998 50.4 85.1998 54.9 85.1998 60C85.1998 63.3 83.8998 66.3 81.5998 68.7L83.6998 76.4001L76.7998 72.3001C74.0998 73.6001 70.9998 74.4001 67.5998 74.4001C64.9998 74.4001 62.4998 73.9 60.2998 73.1" stroke="#BB945B" stroke-width="2" stroke-miterlimit="10" stroke-linecap="round" stroke-linejoin="round"/>
</svg>
