<svg width="110" height="110" viewBox="0 0 110 110" fill="none" xmlns="http://www.w3.org/2000/svg">
<path d="M54.5935 108.187C84.1924 108.187 108.187 84.1924 108.187 54.5935C108.187 24.9946 84.1924 1 54.5935 1C24.9946 1 1 24.9946 1 54.5935C1 84.1924 24.9946 108.187 54.5935 108.187Z" stroke="#BB945B" stroke-width="2" stroke-miterlimit="10" stroke-linecap="round" stroke-linejoin="round"/>
<path d="M54.2976 21.135C48.2276 27.353 39.0486 40.5294 42.0096 59.7757C44.9706 79.022 47.0432 78.2817 47.0432 78.2817H61.8481C61.8481 78.2817 63.9208 79.022 66.8817 59.7757C69.8427 40.5294 60.6637 27.353 54.5937 21.135" stroke="#BB945B" stroke-width="2" stroke-miterlimit="10" stroke-linecap="round" stroke-linejoin="round"/>
<path d="M67.326 49.7078C69.6948 52.3726 78.8738 62.588 71.0272 78.2811L63.9209 74.4319" stroke="#BB945B" stroke-width="2" stroke-miterlimit="10" stroke-linecap="round" stroke-linejoin="round"/>
<path d="M41.1212 49.7078C38.7524 52.3726 29.5734 62.588 37.42 78.2811L44.5263 74.4319" stroke="#BB945B" stroke-width="2" stroke-miterlimit="10" stroke-linecap="round" stroke-linejoin="round"/>
<path d="M58.2949 78.43C60.2195 82.7234 60.0715 90.1259 54.4457 93.2349C54.4457 93.2349 46.5991 89.9778 50.4484 78.282" stroke="#BB945B" stroke-width="2" stroke-miterlimit="10" stroke-linecap="round" stroke-linejoin="round"/>
<path d="M44.5264 73.1003H63.9207" stroke="#BB945B" stroke-width="2" stroke-miterlimit="10" stroke-linecap="round" stroke-linejoin="round"/>
<path d="M44.5264 36.0877C49.1159 31.2021 58.739 30.4618 64.2168 36.0877" stroke="#BB945B" stroke-width="2" stroke-miterlimit="10" stroke-linecap="round" stroke-linejoin="round"/>
<path d="M54.1494 54.5948C56.5629 54.5948 58.5195 52.6383 58.5195 50.2247C58.5195 47.8112 56.5629 45.8546 54.1494 45.8546C51.7359 45.8546 49.7793 47.8112 49.7793 50.2247C49.7793 52.6383 51.7359 54.5948 54.1494 54.5948Z" stroke="#BB945B" stroke-width="2" stroke-miterlimit="10" stroke-linecap="round" stroke-linejoin="round"/>
<path d="M44.5262 87.7568C44.5262 87.7568 39.3445 89.9776 37.2718 93.2346C37.2718 93.2346 27.0564 84.4998 17.8774 93.5307" stroke="#BB945B" stroke-width="2" stroke-miterlimit="10" stroke-linecap="round" stroke-linejoin="round"/>
<path d="M63.9209 87.7568C63.9209 87.7568 69.1026 89.9776 71.1753 93.2346C71.1753 93.2346 81.3906 84.4998 90.5696 93.5307" stroke="#BB945B" stroke-width="2" stroke-miterlimit="10" stroke-linecap="round" stroke-linejoin="round"/>
</svg>
