<svg width="110" height="110" viewBox="0 0 110 110" fill="none" xmlns="http://www.w3.org/2000/svg">
<path d="M55.3 108.6C84.7368 108.6 108.6 84.7368 108.6 55.3C108.6 25.8632 84.7368 2 55.3 2C25.8632 2 2 25.8632 2 55.3C2 84.7368 25.8632 108.6 55.3 108.6Z" fill="white" stroke="#0B233F" stroke-width="2" stroke-miterlimit="10" stroke-linecap="round" stroke-linejoin="round"/>
<path d="M55.3984 41.2L57.9984 38.6C63.5984 33 72.6984 33 78.2984 38.6C83.8984 44.2 83.8984 53.3 78.2984 58.9L55.4984 81.6" stroke="#0B233F" stroke-width="2" stroke-miterlimit="10" stroke-linecap="round" stroke-linejoin="round"/>
<path d="M55.2992 41.2L52.6992 38.6C47.0992 33 37.9992 33 32.3992 38.6C26.7992 44.2 26.7992 53.3 32.3992 58.9L55.1992 81.7" stroke="#0B233F" stroke-width="2" stroke-miterlimit="10" stroke-linecap="round" stroke-linejoin="round"/>
</svg>
