<svg width="110" height="110" viewBox="0 0 110 110" fill="none" xmlns="http://www.w3.org/2000/svg">
<path d="M55.3 108.6C84.7368 108.6 108.6 84.7368 108.6 55.3C108.6 25.8632 84.7368 2 55.3 2C25.8632 2 2 25.8632 2 55.3C2 84.7368 25.8632 108.6 55.3 108.6Z" fill="white" stroke="#0B233F" stroke-width="2" stroke-miterlimit="10" stroke-linecap="round" stroke-linejoin="round"/>
<path d="M72.4992 51.2L55.2992 61.2L38.1992 51.2V23.9H72.4992V51.2Z" stroke="#0B233F" stroke-width="2" stroke-miterlimit="10" stroke-linecap="round" stroke-linejoin="round"/>
<path d="M47.0996 23.9V55.9" stroke="#0B233F" stroke-width="2" stroke-miterlimit="10" stroke-linecap="round" stroke-linejoin="round"/>
<path d="M64.1992 23.9V55.9" stroke="#0B233F" stroke-width="2" stroke-miterlimit="10" stroke-linecap="round" stroke-linejoin="round"/>
<path d="M55.2996 62.1L59.7996 71L69.5996 72.5L62.4996 79.4L64.1996 89.2L55.2996 84.6L46.4996 89.2L48.1996 79.4L41.0996 72.5L50.8996 71L55.2996 62.1Z" stroke="#0B233F" stroke-width="2" stroke-miterlimit="10" stroke-linecap="round" stroke-linejoin="round"/>
<path d="M55.3008 71L57.1008 74.4L60.9008 75L58.1008 77.7L58.8008 81.5L55.3008 79.7L51.9008 81.5L52.6008 77.7L49.8008 75L53.6008 74.4L55.3008 71Z" stroke="#0B233F" stroke-width="2" stroke-miterlimit="10" stroke-linecap="round" stroke-linejoin="round"/>
</svg>
