<svg width="1440" height="507" viewBox="0 0 1440 507" fill="none" xmlns="http://www.w3.org/2000/svg">
<g opacity="0.3">
<path fill-rule="evenodd" clip-rule="evenodd" d="M1455.57 507H1452.92L1491.76 468.152V470.805L1455.57 507ZM1417.34 507H1414.69L1491.76 429.914V432.566L1417.34 507ZM1379.11 507H1376.46L1491.76 391.674V394.327L1379.11 507ZM1340.88 507H1338.23L1491.76 353.437V356.09L1340.88 507ZM1302.65 507H1299.99L1491.76 315.196V317.849L1302.65 507ZM1228.26 507H1225.6L718.716 0H721.369L1228.26 507ZM1190.03 507H1187.37L680.475 0H683.128L1190.03 507ZM1149.14 507L642.245 0H644.898L1151.79 507H1149.14ZM173.349 0H176.005L-51.7539 227.192V224.542L173.349 0ZM414.641 0H417.291L923.027 507H920.377L414.641 0ZM452.827 0H455.477L961.213 507H958.563L452.827 0ZM491.015 0H493.664L999.402 507H996.752L491.015 0ZM531.852 0L1037.59 507H1034.94L529.202 0H531.852ZM567.389 0H570.038L1075.78 507H1073.13L567.389 0ZM608.225 0L1113.96 507H1111.31L605.575 0H608.225ZM214.288 0L-51.7539 265.378V262.728L211.631 0H214.288ZM-51.7539 300.915L249.913 0H252.569L-51.7539 303.564V300.915ZM675.452 414.591L657.684 396.777L547.437 507H544.784L656.359 395.45L638.59 377.638L509.198 507H506.545L637.266 376.309L619.497 358.496L470.959 507H468.306L618.172 357.168L600.402 339.354L432.718 507H430.065L599.078 338.025L581.309 320.213L394.48 507H391.827L579.984 318.885L562.216 301.072L356.242 507H353.589L560.891 299.744L543.121 281.931L318.002 507H315.349L541.797 280.601L524.029 262.789L279.762 507H277.109L522.704 261.461L504.935 243.648L241.524 507H238.871L503.61 242.32L485.841 224.507L203.285 507H200.632L484.517 223.179L466.748 205.366L165.045 507H162.392L465.423 204.037L447.653 186.223L126.806 507H124.153L446.328 184.895L428.559 167.083L88.5672 507H85.9143L427.235 165.755L409.273 147.748L49.9409 507H47.288L407.949 146.42L390.18 128.607L11.7015 507H9.04858L388.854 127.278L371.085 109.466L-26.5357 507H-29.1887L369.762 108.138L351.994 90.3253L-51.7539 493.98V491.327L350.668 88.9962L333.618 71.9029L-51.7539 456.314V453.664L332.293 70.5748L314.524 52.7623L-51.7539 418.127V415.477L313.199 51.4342L295.431 33.6217L-51.7539 379.94V377.291L294.106 32.2937L276.337 14.48L-51.7539 341.753V339.104L275.012 13.152L261.893 0H264.542L276.339 11.8271L288.197 0H290.853L277.664 13.1552L295.433 30.9688L313.245 13.2013L300.078 0H302.728L314.574 11.8754L326.48 0H329.136L315.899 13.2034L333.668 31.016L351.482 13.2474L338.267 0H340.917L352.81 11.9225L364.762 0H367.418L354.134 13.2506L371.903 31.0631L389.716 13.2945L376.453 0H379.103L391.044 11.9708L403.044 0H405.701L392.368 13.2988L884.841 507H882.192L391.04 14.6237L373.228 32.3923L846.652 507H844.003L371.9 33.7171L354.086 51.4857L808.466 507H805.817L352.758 52.8105L334.946 70.578L770.281 507H767.631L676.777 415.919L585.676 507H583.023L675.452 414.591ZM314.571 14.5283L296.759 32.2958L314.527 50.1083L332.34 32.3408L314.571 14.5283ZM352.761 50.1576L370.575 32.388L352.806 14.5754L334.993 32.344L352.761 50.1576ZM351.433 51.4825L333.665 33.6689L315.852 51.4364L333.621 69.2489L351.433 51.4825ZM-51.7539 189.003V186.353L135.065 0H137.722L-51.7539 189.003ZM58.5009 0H61.157L-51.7539 112.63V109.98L58.5009 0ZM-51.7539 150.816V148.166L96.7832 0H99.4393L-51.7539 150.816ZM1491.76 276.958V279.611L1265.45 505.965L1266.49 507H1263.83L756.948 0H759.6L1111.2 351.682L1129.19 333.695L795.564 0H798.217L1130.51 332.369L1148.3 314.577L833.793 0H836.446L1149.63 313.25L1167.42 295.458L872.025 0H874.678L1168.74 294.131L1186.53 276.338L910.255 0H912.907L1187.86 275.012L1205.65 257.219L948.486 0H951.139L1206.97 255.892L1224.76 238.1L986.715 0H989.368L1226.09 236.773L1243.88 218.98L1024.95 0H1027.6L1245.2 217.653L1262.99 199.861L1063.18 0H1065.83L1264.32 198.534L1282.11 180.741L1101.41 0H1104.06L1283.44 179.415L1301.22 161.623L1139.64 0H1142.29L1302.55 160.295L1320.34 142.502L1177.87 0H1180.52L1321.67 141.175L1339.46 123.382L1216.1 0H1218.75L1340.78 122.056L1358.57 104.264L1254.33 0H1256.98L1359.9 102.937L1377.68 85.1438L1292.56 0H1295.21L1379.01 83.8179L1462.81 0H1465.46L1112.53 353.009L1130.32 370.802L1491.76 9.28571V11.9386L1131.65 372.128L1149.44 389.922L1491.76 47.5251V50.178L1150.76 391.248L1168.55 409.04L1491.76 85.7634V88.4163L1169.88 410.367L1187.67 428.16L1491.76 124.003V126.656L1188.99 429.487L1206.78 447.28L1491.76 162.242V164.895L1208.11 448.606L1225.89 466.398L1491.76 200.479V203.132L1227.22 467.725L1245.01 485.518L1491.76 238.72V241.373L1246.34 486.844L1264.13 504.638L1491.76 276.958ZM1491.76 504.571V507H1489.33L1491.76 504.571Z" fill="white"/>
</g>
</svg>
