<svg id="svg" version="1.1" xmlns="http://www.w3.org/2000/svg" xmlns:xlink="http://www.w3.org/1999/xlink" width="400" height="400" viewBox="0, 0, 400,400"><g id="svgg"><path id="path0" d="M184.937 24.200 C 184.939 25.960,185.009 26.630,185.093 25.689 C 185.178 24.749,185.177 23.309,185.091 22.489 C 185.005 21.670,184.936 22.440,184.937 24.200 M215.337 24.200 C 215.339 25.960,215.409 26.630,215.493 25.689 C 215.578 24.749,215.577 23.309,215.491 22.489 C 215.405 21.670,215.336 22.440,215.337 24.200 M193.411 44.038 C 191.436 44.700,189.527 45.547,189.168 45.921 C 185.849 49.372,179.152 53.060,175.528 53.431 L 172.909 53.699 171.554 55.944 C 169.191 59.859,168.252 60.695,165.890 60.980 C 151.994 62.658,150.944 62.938,149.800 65.268 C 149.360 66.164,148.820 66.888,148.600 66.877 C 148.380 66.866,147.930 67.085,147.600 67.363 C 146.859 67.987,143.371 69.600,142.762 69.600 C 142.516 69.600,141.800 70.034,141.170 70.564 C 139.431 72.027,136.795 72.695,130.084 73.372 C 126.721 73.711,123.628 74.171,123.211 74.394 C 122.794 74.617,122.095 74.800,121.657 74.800 C 121.220 74.800,120.345 75.316,119.715 75.947 C 119.026 76.635,117.294 77.533,115.384 78.193 C 113.633 78.797,111.570 79.618,110.800 80.017 C 110.030 80.417,108.230 81.059,106.800 81.444 C 105.370 81.829,104.142 82.185,104.071 82.234 C 104.000 82.284,103.813 83.676,103.655 85.329 L 103.368 88.334 105.384 88.517 C 108.021 88.757,292.383 88.757,295.021 88.517 L 297.042 88.333 296.286 85.220 C 295.478 81.887,295.274 81.708,291.486 80.978 C 291.054 80.895,290.318 80.589,289.850 80.298 C 289.383 80.008,287.320 79.243,285.266 78.599 C 282.423 77.707,281.347 77.168,280.757 76.340 C 279.695 74.849,277.002 74.136,269.050 73.241 C 262.647 72.520,258.400 71.202,258.400 69.936 C 258.400 69.751,257.995 69.593,257.500 69.584 C 257.005 69.575,255.611 69.141,254.403 68.620 C 253.195 68.099,252.072 67.755,251.909 67.856 C 251.745 67.958,251.122 67.044,250.525 65.826 C 249.325 63.380,247.980 62.651,243.800 62.179 C 242.700 62.055,240.180 61.695,238.200 61.378 C 236.220 61.062,234.089 60.802,233.464 60.802 C 232.173 60.800,231.596 60.204,229.155 56.349 L 227.476 53.698 224.926 53.436 C 221.278 53.063,215.703 50.107,211.880 46.521 C 208.223 43.090,199.667 41.940,193.411 44.038 M122.984 102.100 C 120.325 105.159,120.400 104.511,120.400 124.514 C 120.400 144.762,120.685 147.502,123.001 149.500 L 124.045 150.400 200.200 150.400 L 276.355 150.400 277.399 149.500 C 279.715 147.502,280.000 144.762,280.000 124.514 C 280.000 104.511,280.075 105.159,277.416 102.100 L 275.938 100.400 200.200 100.400 L 124.462 100.400 122.984 102.100 M276.767 104.947 C 278.059 107.037,278.063 141.534,276.771 144.985 L 275.943 147.200 200.200 147.200 L 124.457 147.200 123.629 144.985 C 122.337 141.534,122.341 107.037,123.633 104.947 L 124.465 103.600 200.200 103.600 L 275.935 103.600 276.767 104.947 M153.224 110.414 C 150.563 111.898,150.693 111.235,150.483 124.338 C 150.227 140.336,150.006 140.000,160.772 140.000 C 170.216 140.000,170.010 140.293,169.975 126.920 C 169.929 108.990,170.245 109.588,160.838 109.623 C 155.459 109.643,154.410 109.752,153.224 110.414 M232.143 110.548 C 230.710 111.780,230.458 114.181,230.425 126.920 C 230.390 140.293,230.184 140.000,239.628 140.000 C 250.268 140.000,250.171 140.137,249.870 125.674 C 249.529 109.296,249.748 109.635,239.522 109.613 C 233.485 109.601,233.202 109.636,232.143 110.548 M119.599 166.049 C 116.859 167.396,114.433 168.532,114.208 168.573 C 111.946 168.992,109.625 172.347,108.669 176.583 C 107.697 180.893,107.448 181.036,95.356 184.247 C 93.468 184.748,93.260 184.926,92.625 186.590 C 92.217 187.660,91.423 188.749,90.669 189.276 C 89.971 189.763,89.310 190.260,89.200 190.381 C 89.090 190.501,88.640 190.661,88.200 190.737 C 87.760 190.812,87.343 191.027,87.274 191.214 C 87.205 191.402,86.890 191.456,86.574 191.335 C 86.258 191.214,86.000 191.308,86.000 191.545 C 86.000 191.781,85.730 191.871,85.400 191.745 C 85.068 191.617,84.800 191.733,84.800 192.004 C 84.800 192.296,84.478 192.409,84.000 192.284 C 83.561 192.169,83.119 192.208,83.019 192.370 C 82.918 192.532,81.793 192.893,80.518 193.172 C 77.616 193.806,73.418 195.133,72.044 195.850 C 71.470 196.150,70.505 196.396,69.900 196.398 C 67.557 196.403,68.966 197.143,72.300 197.659 C 82.049 199.167,331.600 198.300,331.600 196.759 C 331.600 196.561,331.105 196.399,330.500 196.398 C 329.895 196.396,328.925 196.147,328.345 195.845 C 327.295 195.296,325.563 194.718,321.000 193.389 C 319.680 193.004,318.420 192.557,318.200 192.394 C 317.980 192.231,316.410 191.818,314.712 191.477 C 310.960 190.723,308.758 189.164,307.762 186.557 C 307.042 184.671,306.774 184.527,301.980 183.442 C 294.729 181.800,292.397 180.086,291.597 175.808 C 291.225 173.818,290.821 172.817,290.192 172.322 C 289.706 171.940,289.096 171.114,288.836 170.487 C 288.522 169.729,287.868 169.173,286.882 168.826 C 286.067 168.539,283.225 167.246,280.566 165.952 L 275.732 163.600 200.157 163.600 L 124.582 163.600 119.599 166.049 M92.416 212.299 C 90.675 214.401,90.748 213.262,90.880 236.407 C 91.010 259.153,90.934 258.398,93.229 259.753 C 94.912 260.747,305.488 260.747,307.171 259.753 C 309.469 258.396,309.390 259.194,309.519 235.956 L 309.638 214.512 308.299 212.756 L 306.959 211.000 200.309 210.899 L 93.659 210.799 92.416 212.299 M306.926 214.222 C 307.829 215.463,307.805 255.227,306.900 257.300 L 306.420 258.400 200.200 258.400 L 93.980 258.400 93.500 257.300 C 92.595 255.227,92.571 215.463,93.474 214.222 L 94.200 213.225 200.200 213.225 L 306.200 213.225 306.926 214.222 M153.057 220.164 C 151.034 221.818,150.407 225.717,150.403 236.662 L 150.400 245.925 152.374 247.973 L 154.347 250.020 160.835 249.910 L 167.322 249.800 168.661 247.856 L 170.000 245.913 169.979 236.456 C 169.957 226.494,169.495 222.227,168.230 220.300 L 167.508 219.200 160.854 219.214 C 154.483 219.228,154.151 219.269,153.057 220.164 M232.144 220.229 C 230.919 222.099,230.443 226.582,230.421 236.455 L 230.400 245.910 231.700 247.855 L 233.000 249.800 239.471 249.910 L 245.942 250.020 247.971 247.991 L 250.000 245.962 250.000 236.760 C 250.000 225.873,249.496 222.620,247.480 220.500 L 246.243 219.200 239.531 219.200 L 232.818 219.200 232.144 220.229 M92.800 274.186 C 92.030 274.486,90.948 274.829,90.396 274.949 C 89.844 275.069,88.674 275.840,87.796 276.663 C 86.918 277.486,86.092 278.132,85.960 278.099 C 85.375 277.955,81.302 282.338,81.036 283.399 C 79.635 288.980,74.828 292.078,65.480 293.421 C 63.552 293.698,62.400 294.424,62.400 295.361 C 62.400 296.145,60.570 299.567,59.597 300.603 C 58.215 302.074,56.986 302.381,46.861 303.781 C 45.326 303.994,39.713 305.753,39.322 306.145 C 37.755 307.712,349.006 308.590,357.125 307.041 C 360.564 306.385,360.909 306.164,359.355 305.611 C 358.720 305.385,357.906 305.031,357.546 304.825 C 356.817 304.408,354.537 303.968,347.300 302.851 C 341.136 301.899,340.251 301.319,338.592 297.141 C 337.243 293.744,337.256 293.757,334.834 293.403 C 331.470 292.912,327.020 291.562,325.200 290.480 C 324.210 289.892,323.040 289.226,322.600 289.001 C 322.160 288.776,321.049 287.073,320.132 285.217 C 318.801 282.526,317.947 281.390,315.911 279.611 C 314.508 278.384,312.960 277.008,312.473 276.554 C 311.443 275.595,310.555 275.157,307.800 274.253 C 305.020 273.340,95.140 273.275,92.800 274.186 M62.267 321.867 L 60.800 323.333 60.802 349.967 C 60.805 377.885,60.862 378.856,62.594 380.109 C 64.021 381.141,144.795 381.001,147.400 379.962 C 150.044 378.908,150.321 377.234,150.408 361.800 C 150.447 354.760,150.597 347.478,150.740 345.618 L 151.000 342.236 152.731 340.918 L 154.462 339.600 200.159 339.600 L 245.856 339.600 247.461 340.973 C 249.619 342.821,249.989 345.892,250.032 362.277 C 250.059 372.509,250.177 375.001,250.732 376.962 C 251.841 380.885,248.210 380.583,295.822 380.709 L 337.044 380.818 337.945 379.858 C 339.420 378.288,339.583 375.236,339.592 349.087 C 339.601 322.376,339.609 322.484,337.469 321.082 C 336.493 320.443,327.872 320.400,200.081 320.400 L 63.733 320.400 62.267 321.867 M337.377 323.689 C 338.357 325.088,338.311 372.342,337.327 375.465 L 336.654 377.600 297.027 377.592 L 257.400 377.584 255.300 375.598 L 253.200 373.611 253.200 361.241 C 253.200 350.015,253.126 348.637,252.405 346.336 C 251.968 344.941,251.608 343.422,251.605 342.959 C 251.596 341.496,249.907 339.532,248.000 338.767 C 246.302 338.086,243.599 338.044,200.400 338.028 C 148.453 338.010,151.386 337.836,148.605 341.086 L 147.200 342.727 147.200 358.114 L 147.200 373.501 145.100 375.549 L 143.000 377.598 103.328 377.599 L 63.657 377.600 63.028 375.438 C 62.085 372.195,62.080 325.035,63.023 323.689 L 63.645 322.800 200.200 322.800 L 336.755 322.800 337.377 323.689 M165.400 353.807 C 164.520 354.127,163.755 354.391,163.700 354.394 C 163.645 354.397,163.600 358.552,163.600 363.626 C 163.600 372.856,163.719 373.776,165.091 375.148 C 165.401 375.458,165.933 376.137,166.274 376.656 L 166.892 377.600 200.146 377.588 L 233.400 377.577 235.100 375.234 L 236.800 372.892 236.800 363.710 L 236.800 354.528 235.700 353.964 C 234.023 353.104,167.743 352.956,165.400 353.807 " stroke="none" fill="#9cccfc" fill-rule="evenodd"></path><path id="path1" d="M185.796 4.006 C 185.662 4.223,185.664 4.580,185.800 4.800 C 185.936 5.020,185.864 5.200,185.640 5.200 C 185.404 5.200,185.240 6.327,185.248 7.900 C 185.295 16.574,185.032 27.069,184.829 24.600 L 184.600 21.800 183.488 23.512 C 182.876 24.453,182.268 25.758,182.138 26.412 L 181.900 27.600 178.450 27.637 C 176.553 27.657,174.210 27.642,173.244 27.603 C 172.149 27.559,171.361 27.734,171.151 28.066 C 170.897 28.466,170.811 28.474,170.806 28.100 C 170.799 27.498,169.439 27.444,168.391 28.005 C 167.410 28.530,166.874 31.148,167.647 31.638 C 168.003 31.863,168.031 31.990,167.728 31.994 C 167.468 31.997,167.198 32.405,167.128 32.900 C 167.003 33.780,166.905 33.797,162.648 33.660 C 159.312 33.553,158.217 33.646,157.954 34.060 C 157.701 34.459,157.611 34.470,157.606 34.100 C 157.602 33.796,157.050 33.600,156.200 33.600 C 155.430 33.600,154.800 33.749,154.800 33.931 C 154.800 34.113,154.260 34.182,153.600 34.085 C 147.742 33.226,144.275 36.063,143.566 42.299 C 143.350 44.203,143.130 45.803,143.078 45.855 C 142.978 45.955,123.737 46.421,121.034 46.389 C 118.439 46.359,115.417 48.100,114.392 50.216 C 113.917 51.197,113.354 52.000,113.141 52.000 C 112.927 52.000,112.881 52.208,113.038 52.462 C 113.226 52.766,113.147 52.814,112.806 52.604 C 112.137 52.190,71.200 51.903,71.200 52.312 C 71.200 52.482,70.512 52.556,69.671 52.475 C 67.595 52.277,65.313 53.291,64.705 54.681 C 63.980 56.339,63.778 89.597,64.493 89.606 C 64.868 89.611,64.856 89.703,64.447 89.962 C 64.051 90.213,63.972 90.727,64.169 91.774 C 64.535 93.725,65.358 93.987,71.049 93.969 C 76.634 93.951,76.006 93.286,76.112 99.332 C 76.236 106.448,74.611 105.775,92.014 105.919 L 106.400 106.038 106.400 124.419 L 106.400 142.800 105.200 142.800 C 104.540 142.800,104.000 142.935,104.001 143.100 C 104.001 143.265,103.041 143.340,101.867 143.267 C 96.417 142.927,94.749 144.789,94.654 151.322 L 94.600 155.000 92.249 155.084 C 90.015 155.164,88.400 155.918,88.400 156.881 C 88.400 157.077,87.506 158.132,86.414 159.224 C 84.448 161.191,83.200 163.926,83.200 166.273 C 83.200 167.245,81.945 167.435,77.045 167.204 C 76.112 167.160,75.354 167.345,75.151 167.665 C 74.898 168.065,74.811 168.074,74.806 167.700 C 74.802 167.352,74.010 167.200,72.200 167.200 C 70.637 167.200,69.600 167.369,69.600 167.624 C 69.600 167.857,69.407 167.928,69.172 167.782 C 67.103 166.504,64.090 168.904,64.474 171.524 C 64.566 172.148,64.414 172.871,64.137 173.130 C 63.736 173.505,63.610 172.971,63.517 170.500 L 63.400 167.400 49.900 167.313 C 39.514 167.246,36.399 167.338,36.394 167.713 C 36.390 168.032,36.262 168.001,36.023 167.623 C 35.727 167.155,35.461 167.135,34.629 167.514 C 33.543 168.009,33.257 168.995,34.100 169.335 C 34.474 169.486,34.478 169.545,34.116 169.568 C 33.403 169.615,33.392 198.797,34.105 198.806 C 34.440 198.810,34.414 198.930,34.022 199.178 C 33.568 199.465,33.526 199.870,33.822 201.072 C 34.256 202.828,36.853 203.994,37.622 202.778 C 37.840 202.434,37.990 202.389,37.994 202.667 C 37.998 202.988,39.207 203.144,41.865 203.165 C 46.544 203.203,45.984 202.445,46.101 208.902 C 46.156 211.890,46.350 214.484,46.533 214.667 C 46.894 215.028,51.712 215.152,66.500 215.181 L 76.000 215.200 76.000 233.748 L 76.000 252.295 72.311 252.768 C 67.733 253.356,66.799 253.793,65.835 255.805 C 65.414 256.682,64.922 257.707,64.742 258.083 C 64.040 259.548,63.866 262.070,64.442 262.435 C 64.841 262.687,64.858 262.789,64.500 262.794 C 64.225 262.797,64.000 263.070,64.000 263.400 C 64.000 263.730,63.730 264.000,63.400 264.000 C 63.070 264.000,62.800 264.155,62.800 264.345 C 62.800 264.534,62.349 264.603,61.797 264.497 C 60.408 264.232,58.589 265.066,58.069 266.208 C 57.830 266.732,57.130 267.423,56.513 267.742 C 54.994 268.527,53.750 270.921,53.418 273.700 L 53.142 276.000 51.671 276.024 C 50.862 276.037,48.355 276.027,46.100 276.002 C 43.845 275.976,41.999 276.101,41.998 276.278 C 41.996 276.455,41.110 276.618,40.027 276.639 C 36.602 276.707,34.430 278.263,34.387 280.680 C 34.335 283.631,33.225 282.646,33.117 279.553 L 33.000 276.200 20.215 276.114 C 10.535 276.048,7.355 276.145,7.121 276.514 C 6.881 276.891,6.811 276.888,6.806 276.500 C 6.803 276.225,6.440 276.000,6.000 276.000 C 5.560 276.000,5.200 276.160,5.200 276.356 C 5.200 276.551,4.885 276.686,4.500 276.656 C 3.339 276.563,3.433 312.266,4.600 314.600 C 5.770 316.940,7.701 317.760,12.098 317.782 L 15.595 317.800 15.598 319.300 C 15.599 320.229,15.790 320.802,16.100 320.806 C 16.460 320.811,16.445 320.910,16.046 321.163 C 15.210 321.692,15.839 323.544,17.040 324.091 C 17.860 324.465,18.128 324.443,18.423 323.977 C 18.708 323.526,18.789 323.517,18.794 323.936 C 18.798 324.338,19.473 324.452,21.500 324.392 C 22.985 324.347,29.105 324.331,35.100 324.356 L 46.000 324.400 46.000 360.120 C 46.000 387.369,46.114 395.954,46.480 396.320 C 47.180 397.020,353.220 397.020,353.920 396.320 C 354.286 395.954,354.400 387.369,354.400 360.120 L 354.400 324.400 365.300 324.356 C 371.295 324.331,377.415 324.347,378.900 324.392 C 380.927 324.452,381.602 324.338,381.606 323.936 C 381.611 323.517,381.692 323.526,381.977 323.977 C 382.272 324.443,382.540 324.465,383.360 324.091 C 384.561 323.544,385.190 321.692,384.354 321.163 C 383.955 320.910,383.940 320.811,384.300 320.806 C 384.599 320.802,384.800 320.262,384.800 319.459 L 384.800 318.118 388.417 317.884 C 396.716 317.346,396.573 317.729,396.699 295.664 C 396.795 278.763,396.694 276.171,395.957 276.626 C 395.761 276.748,395.600 276.663,395.600 276.437 C 395.600 276.164,390.916 276.056,381.500 276.114 L 367.400 276.200 367.200 279.600 L 367.000 283.000 366.200 280.636 C 365.168 277.586,363.991 276.677,361.017 276.633 C 359.800 276.615,358.804 276.462,358.802 276.294 C 358.801 276.125,356.285 276.004,353.211 276.024 C 346.617 276.068,346.928 276.196,346.583 273.294 C 346.226 270.298,345.367 268.507,343.929 267.763 C 343.289 267.432,342.573 266.740,342.339 266.225 C 341.871 265.198,340.456 264.403,339.081 264.395 C 336.787 264.380,336.516 264.084,336.297 261.348 C 336.180 259.901,335.826 258.462,335.492 258.081 C 335.163 257.706,334.777 257.013,334.633 256.540 C 333.930 254.229,332.696 253.672,325.900 252.600 L 324.400 252.364 324.400 233.782 L 324.400 215.200 334.300 215.159 C 339.745 215.136,346.135 215.135,348.500 215.156 C 351.105 215.179,352.800 215.038,352.800 214.797 C 352.800 214.579,353.025 214.445,353.300 214.500 C 353.575 214.555,353.775 214.285,353.744 213.900 C 353.714 213.515,353.841 213.200,354.026 213.200 C 354.212 213.200,354.361 211.535,354.358 209.500 C 354.356 207.465,354.364 205.215,354.377 204.500 L 354.400 203.200 358.167 203.200 C 360.806 203.200,361.994 203.050,362.135 202.700 C 362.296 202.300,362.343 202.300,362.368 202.700 C 362.405 203.281,364.400 203.391,364.400 202.813 C 364.400 202.599,364.641 202.518,364.936 202.631 C 365.590 202.882,366.569 201.797,366.211 201.218 C 366.069 200.988,366.143 200.800,366.376 200.800 C 366.974 200.800,366.906 198.909,366.300 198.665 C 365.908 198.507,365.907 198.456,366.295 198.432 C 367.006 198.386,366.995 169.748,366.284 169.460 C 365.916 169.310,365.920 169.256,366.300 169.232 C 367.192 169.175,366.829 167.996,365.771 167.514 C 364.939 167.135,364.673 167.155,364.377 167.623 C 364.138 168.001,364.010 168.032,364.006 167.713 C 364.001 167.338,360.886 167.246,350.500 167.313 L 337.000 167.400 336.883 170.500 C 336.790 172.971,336.664 173.505,336.263 173.130 C 335.986 172.871,335.834 172.148,335.926 171.524 C 336.310 168.904,333.297 166.504,331.228 167.782 C 330.993 167.928,330.800 167.857,330.800 167.624 C 330.800 166.997,325.720 167.070,325.464 167.700 C 325.311 168.076,325.178 168.085,324.927 167.733 C 324.719 167.441,323.271 167.256,321.070 167.240 C 317.097 167.211,316.800 167.114,316.800 165.849 C 316.800 163.589,315.521 160.693,313.772 158.994 C 312.797 158.046,312.000 157.103,312.000 156.898 C 312.000 156.058,310.467 155.280,308.300 155.019 L 306.000 154.742 306.000 152.571 C 306.000 151.377,305.865 150.399,305.700 150.398 C 305.535 150.396,305.380 149.625,305.355 148.684 C 305.251 144.758,303.649 143.451,298.901 143.421 C 297.087 143.409,295.602 143.265,295.601 143.100 C 295.600 142.935,295.240 142.800,294.800 142.800 C 294.012 142.800,294.000 142.533,294.000 124.400 L 294.000 106.000 302.500 105.974 C 307.175 105.960,312.665 105.971,314.700 105.998 C 317.504 106.035,318.401 105.920,318.406 105.523 C 318.411 105.119,318.493 105.127,318.767 105.560 C 319.205 106.252,322.693 105.878,323.521 105.050 C 324.336 104.236,324.645 101.201,323.958 100.766 C 323.537 100.499,323.526 100.411,323.915 100.406 C 324.295 100.402,324.412 99.612,324.360 97.388 C 324.275 93.700,323.962 93.969,328.349 93.962 C 330.907 93.958,332.002 93.813,332.006 93.478 C 332.010 93.177,332.148 93.214,332.378 93.578 C 333.147 94.794,335.744 93.628,336.178 91.872 C 336.474 90.670,336.432 90.265,335.978 89.978 C 335.568 89.719,335.548 89.610,335.907 89.606 C 336.622 89.597,336.420 56.339,335.695 54.681 C 335.087 53.291,332.805 52.277,330.729 52.475 C 329.888 52.556,329.200 52.481,329.200 52.311 C 329.200 51.955,315.569 51.974,302.600 52.347 C 297.760 52.486,293.740 52.465,293.667 52.300 C 293.593 52.135,291.872 52.000,289.841 52.000 L 286.148 52.000 285.498 50.638 C 284.534 48.615,280.974 46.381,278.748 46.401 C 274.582 46.437,257.755 45.971,257.300 45.806 C 257.025 45.707,256.800 45.074,256.800 44.400 C 256.800 42.897,255.827 40.476,254.792 39.400 C 254.368 38.960,253.137 37.669,252.057 36.532 C 250.077 34.446,247.540 33.477,245.805 34.143 C 245.472 34.270,245.200 34.195,245.200 33.975 C 245.200 33.722,243.017 33.617,239.240 33.688 L 233.280 33.800 233.118 31.252 C 232.889 27.656,232.771 27.600,225.388 27.600 L 219.329 27.600 218.923 25.300 L 218.516 23.000 218.458 25.300 C 218.399 27.636,217.866 28.337,217.395 26.700 C 217.252 26.205,216.835 24.990,216.468 24.000 L 215.800 22.200 215.569 24.800 C 215.368 27.067,215.106 16.460,215.152 7.900 C 215.160 6.415,215.014 5.200,214.828 5.200 C 214.641 5.200,214.514 4.885,214.544 4.500 C 214.609 3.687,186.294 3.201,185.796 4.006 M206.100 32.895 C 206.485 32.937,206.800 33.113,206.800 33.286 C 206.800 33.459,207.162 33.600,207.605 33.600 C 208.521 33.600,209.688 34.195,211.329 35.500 C 211.952 35.995,212.690 36.400,212.969 36.400 C 213.248 36.400,213.802 36.760,214.200 37.200 C 214.598 37.640,215.144 38.000,215.413 38.000 C 215.682 38.000,216.124 38.268,216.396 38.596 C 216.668 38.923,217.019 39.112,217.175 39.015 C 217.436 38.854,220.163 41.857,220.228 42.376 C 220.243 42.499,220.475 43.363,220.742 44.296 C 221.285 46.187,221.105 46.108,226.400 46.791 C 228.270 47.032,230.520 47.332,231.400 47.458 C 232.280 47.584,234.260 47.762,235.800 47.854 C 240.377 48.127,241.312 48.667,241.948 51.400 C 241.999 51.620,242.456 52.520,242.964 53.400 C 243.471 54.280,244.001 55.450,244.140 56.000 C 244.674 58.109,244.560 58.085,256.230 58.560 C 260.560 58.736,264.000 60.286,264.000 62.061 C 264.000 62.248,264.315 62.403,264.700 62.406 C 265.298 62.411,265.313 62.469,264.800 62.800 C 264.291 63.129,264.310 63.189,264.924 63.194 C 265.322 63.197,265.559 63.344,265.450 63.519 C 265.274 63.804,271.136 65.509,274.800 66.239 C 275.570 66.392,279.080 66.560,282.600 66.612 C 288.767 66.702,291.676 66.952,292.502 67.463 C 292.717 67.596,294.177 67.765,295.746 67.838 C 299.428 68.010,301.108 68.321,302.190 69.030 C 302.671 69.345,303.184 69.482,303.332 69.335 C 303.479 69.187,303.600 69.296,303.600 69.576 C 303.600 70.295,305.453 72.413,305.789 72.078 C 305.942 71.925,306.023 71.980,305.969 72.200 C 305.915 72.420,306.080 73.107,306.335 73.726 C 306.591 74.345,306.800 74.997,306.800 75.173 C 306.800 75.350,307.592 76.287,308.560 77.254 C 312.284 80.978,312.751 90.183,309.299 91.821 C 307.837 92.515,95.079 92.876,91.955 92.190 C 87.459 91.203,87.760 80.566,92.395 76.666 C 93.074 76.094,93.642 75.198,93.690 74.624 C 93.736 74.061,93.915 73.600,94.087 73.600 C 94.259 73.600,94.400 73.319,94.400 72.976 C 94.400 72.607,94.588 72.469,94.862 72.638 C 95.154 72.819,95.215 72.748,95.027 72.444 C 94.651 71.835,95.491 70.800,96.361 70.800 C 96.725 70.800,97.276 70.450,97.585 70.021 C 97.893 69.593,98.301 69.339,98.490 69.456 C 98.680 69.573,99.112 69.439,99.451 69.158 C 99.790 68.877,100.367 68.609,100.733 68.564 C 101.794 68.432,105.678 67.961,107.111 67.790 C 107.832 67.704,108.552 67.554,108.711 67.456 C 109.229 67.137,112.885 66.824,118.800 66.591 C 125.928 66.310,134.800 64.419,134.800 63.181 C 134.800 62.609,135.817 61.600,136.395 61.600 C 136.644 61.600,136.736 61.420,136.600 61.200 C 136.464 60.980,136.531 60.800,136.748 60.800 C 136.965 60.800,137.411 60.531,137.740 60.203 C 138.541 59.402,142.052 58.536,145.000 58.413 C 146.320 58.358,148.300 58.263,149.400 58.204 C 150.500 58.144,152.333 58.074,153.473 58.048 C 155.442 58.002,156.261 57.363,156.093 56.000 C 156.079 55.890,156.271 55.556,156.518 55.257 C 157.118 54.535,157.840 53.294,158.612 51.659 C 159.446 49.892,160.633 48.649,161.169 48.981 C 161.406 49.127,161.600 49.037,161.600 48.781 C 161.600 48.524,161.848 48.410,162.151 48.526 C 162.454 48.642,162.862 48.578,163.058 48.382 C 163.403 48.037,164.342 47.894,169.400 47.414 C 177.432 46.653,179.392 46.101,179.429 44.590 C 179.535 40.272,180.760 38.646,184.683 37.619 C 185.609 37.377,186.481 36.992,186.622 36.764 C 186.763 36.537,187.265 36.177,187.739 35.965 C 188.212 35.753,189.212 35.134,189.959 34.590 C 190.707 34.045,191.832 33.600,192.459 33.600 C 193.087 33.600,193.600 33.420,193.600 33.200 C 193.600 32.980,194.331 32.800,195.224 32.800 C 196.117 32.800,196.764 32.665,196.661 32.500 C 196.513 32.261,202.643 32.518,206.100 32.895 M148.339 36.007 C 146.853 36.792,145.393 38.729,144.798 40.706 C 144.580 41.431,144.457 41.549,144.434 41.054 C 144.373 39.724,146.399 36.547,147.732 35.883 C 149.551 34.976,150.083 35.086,148.339 36.007 M279.471 97.031 C 280.435 97.740,282.123 100.426,284.102 104.400 C 285.731 107.672,284.768 147.530,283.024 149.000 C 282.763 149.220,282.222 149.961,281.821 150.646 C 280.055 153.663,287.843 153.388,201.058 153.504 C 118.415 153.615,121.139 153.678,119.237 151.605 C 115.613 147.657,115.535 147.025,115.685 122.942 C 115.789 106.328,115.867 104.409,116.471 103.742 C 116.840 103.334,117.679 101.917,118.335 100.594 C 119.779 97.684,120.730 96.766,122.701 96.380 C 123.526 96.218,158.882 96.112,201.271 96.143 L 278.341 96.200 279.471 97.031 M285.569 157.408 C 288.350 157.620,293.657 159.600,291.444 159.600 C 291.256 159.600,291.321 159.863,291.588 160.185 C 291.855 160.507,292.173 162.217,292.294 163.984 C 292.556 167.808,292.690 167.956,296.513 168.627 C 301.207 169.451,302.732 170.437,302.907 172.764 C 302.942 173.224,303.112 173.600,303.285 173.600 C 303.458 173.600,303.600 173.843,303.600 174.140 C 303.600 174.437,304.134 175.418,304.788 176.320 C 305.969 177.950,306.460 178.172,309.800 178.594 C 310.460 178.677,311.090 178.785,311.200 178.833 C 311.310 178.882,311.580 178.964,311.800 179.015 C 312.020 179.066,312.290 179.141,312.400 179.181 C 312.510 179.221,313.213 179.333,313.963 179.431 C 314.713 179.528,315.540 179.784,315.800 180.000 C 316.061 180.216,316.385 180.282,316.520 180.147 C 316.816 179.850,319.980 183.066,320.047 183.733 C 320.073 183.990,320.071 184.344,320.041 184.519 C 319.864 185.572,324.672 186.850,330.355 187.262 C 338.760 187.871,339.831 188.556,341.170 194.180 C 342.235 198.648,340.840 201.262,337.107 201.790 C 335.074 202.078,62.462 201.890,61.616 201.600 C 59.205 200.775,58.311 198.022,59.225 194.233 C 60.596 188.547,61.577 187.917,70.179 187.197 C 77.413 186.591,79.860 185.753,80.235 183.752 C 80.401 182.870,80.925 182.036,81.651 181.499 C 82.901 180.575,83.256 180.473,86.065 180.228 C 87.091 180.138,88.295 179.870,88.739 179.633 C 89.184 179.395,90.020 179.200,90.597 179.200 C 91.195 179.200,91.541 179.028,91.400 178.800 C 91.255 178.566,91.669 178.400,92.395 178.400 C 94.133 178.400,97.246 174.745,97.668 172.209 C 97.997 170.234,100.204 168.959,103.829 168.648 C 107.302 168.350,107.831 167.813,108.129 164.282 C 108.624 158.433,109.390 157.842,117.200 157.290 C 123.151 156.869,279.938 156.979,285.569 157.408 M86.631 161.965 C 86.251 162.386,85.507 163.781,84.979 165.065 C 83.985 167.484,83.657 167.543,84.455 165.160 C 84.913 163.791,86.633 161.200,87.082 161.200 C 87.215 161.200,87.012 161.544,86.631 161.965 M308.441 206.503 C 309.201 207.008,310.241 208.287,310.800 209.403 L 311.800 211.400 311.915 234.877 C 312.043 260.880,312.077 260.484,309.532 261.873 C 307.453 263.008,92.947 263.008,90.868 261.873 C 88.376 260.514,88.400 260.761,88.400 236.033 C 88.400 209.369,88.498 208.592,92.155 206.362 C 93.369 205.622,96.033 205.603,200.241 205.601 L 307.082 205.600 308.441 206.503 M311.800 267.231 C 313.780 267.467,315.760 267.724,316.200 267.801 C 316.640 267.878,317.482 267.954,318.071 267.970 C 319.120 267.999,319.509 268.271,320.874 269.930 C 321.630 270.848,322.393 273.285,322.400 274.800 C 322.405 275.949,323.968 278.090,324.903 278.227 C 329.230 278.862,332.000 280.026,332.000 281.210 C 332.000 281.645,332.156 282.000,332.346 282.000 C 332.536 282.000,333.009 282.855,333.398 283.900 C 333.787 284.945,334.262 285.971,334.453 286.180 C 334.644 286.389,334.800 286.962,334.800 287.453 C 334.800 288.523,335.226 288.668,339.400 289.018 C 341.160 289.166,343.189 289.338,343.909 289.401 C 346.653 289.639,349.341 291.122,350.200 292.870 C 351.505 295.524,353.398 296.225,360.800 296.798 L 367.000 297.278 368.289 298.739 C 372.034 302.984,372.151 309.953,368.496 311.032 C 366.616 311.586,34.095 311.711,32.081 311.158 C 28.222 310.098,28.152 303.658,31.949 298.865 C 33.315 297.140,32.344 297.347,42.800 296.541 C 46.757 296.236,50.531 294.383,49.755 293.127 C 49.541 292.782,50.267 291.276,51.001 290.542 C 51.567 289.976,53.282 289.635,56.800 289.390 C 59.963 289.170,65.214 288.520,65.409 288.324 C 65.487 288.246,65.639 287.736,65.746 287.191 C 65.853 286.646,66.439 285.210,67.047 284.000 C 68.112 281.885,68.240 281.580,68.350 280.886 C 68.394 280.608,70.687 279.073,71.200 278.979 C 71.310 278.958,72.442 278.798,73.716 278.623 C 76.649 278.219,77.790 276.918,78.210 273.500 C 78.365 272.235,78.681 271.200,78.913 271.200 C 79.144 271.200,79.224 271.091,79.091 270.957 C 78.957 270.824,79.017 270.509,79.224 270.257 C 79.431 270.006,79.915 269.402,80.300 268.916 C 80.835 268.240,81.565 267.981,83.400 267.815 C 84.720 267.695,86.970 267.443,88.400 267.254 C 92.377 266.727,307.390 266.706,311.800 267.231 M56.289 271.101 C 55.940 271.487,55.194 272.792,54.631 274.001 C 53.557 276.310,53.194 276.269,54.164 273.949 C 54.746 272.555,56.281 270.400,56.691 270.400 C 56.819 270.400,56.638 270.716,56.289 271.101 M364.240 278.560 C 364.988 279.308,365.593 280.163,365.584 280.460 C 365.575 280.757,365.295 280.496,364.961 279.880 C 364.627 279.264,363.779 278.410,363.077 277.981 C 362.375 277.553,362.043 277.202,362.340 277.201 C 362.637 277.201,363.492 277.812,364.240 278.560 M7.696 316.002 C 8.413 316.439,8.848 316.798,8.662 316.799 C 7.458 316.804,4.796 314.142,4.801 312.938 C 4.802 312.752,5.161 313.187,5.598 313.904 C 6.035 314.621,6.979 315.565,7.696 316.002 M394.985 314.318 C 394.341 315.409,392.517 316.802,391.738 316.799 C 391.552 316.798,391.996 316.434,392.723 315.990 C 393.451 315.546,394.348 314.659,394.716 314.017 C 395.084 313.376,395.451 312.918,395.531 312.998 C 395.612 313.079,395.366 313.673,394.985 314.318 M338.331 315.960 C 342.767 320.772,342.490 318.275,342.315 351.800 C 342.159 381.738,342.244 380.768,339.642 382.571 L 338.137 383.614 294.768 383.507 L 251.400 383.400 249.779 382.532 C 247.008 381.049,247.055 381.367,246.745 362.000 C 246.591 352.430,246.340 344.105,246.186 343.500 L 245.907 342.400 200.200 342.400 L 154.493 342.400 154.179 343.300 C 154.007 343.795,153.761 352.120,153.633 361.800 C 153.373 381.441,153.424 381.095,150.600 382.566 C 149.007 383.396,148.814 383.400,105.200 383.400 L 61.400 383.400 60.117 382.438 C 57.981 380.835,58.000 381.110,58.002 351.440 C 58.005 321.604,57.988 321.848,60.212 319.185 C 60.976 318.272,61.600 317.328,61.600 317.088 C 61.600 316.848,61.991 316.235,62.470 315.726 L 63.339 314.800 200.300 314.800 L 337.262 314.800 338.331 315.960 M234.150 346.140 C 234.722 346.437,235.566 347.157,236.024 347.740 C 236.538 348.393,237.251 348.800,237.882 348.800 C 239.512 348.800,241.375 350.220,242.531 352.344 L 243.600 354.308 243.601 363.454 C 243.601 375.090,243.132 378.798,241.434 380.575 C 239.121 382.994,239.025 383.000,199.600 383.000 C 161.841 383.000,160.595 382.941,158.904 381.083 C 157.099 379.100,157.045 378.706,156.873 366.365 L 156.708 354.529 157.728 352.915 C 159.142 350.674,160.483 349.728,163.066 349.150 C 164.813 348.759,165.380 348.436,165.739 347.627 C 165.989 347.062,166.376 346.382,166.597 346.115 C 167.222 345.364,232.700 345.388,234.150 346.140 " stroke="none" fill="#498cc6" fill-rule="evenodd"></path><path id="path2" d="M123.633 104.947 C 122.341 107.037,122.337 141.534,123.629 144.985 L 124.457 147.200 200.200 147.200 L 275.943 147.200 276.771 144.985 C 278.063 141.534,278.059 107.037,276.767 104.947 L 275.935 103.600 200.200 103.600 L 124.465 103.600 123.633 104.947 M168.221 110.584 C 169.702 111.857,169.942 114.089,169.975 126.920 C 170.010 140.293,170.216 140.000,160.772 140.000 C 150.006 140.000,150.227 140.336,150.483 124.338 C 150.693 111.235,150.563 111.898,153.224 110.414 C 155.570 109.105,166.646 109.231,168.221 110.584 M247.396 110.730 C 249.512 112.193,249.601 112.727,249.870 125.674 C 250.171 140.137,250.268 140.000,239.628 140.000 C 230.184 140.000,230.390 140.293,230.425 126.920 C 230.471 108.950,230.133 109.593,239.522 109.613 C 245.713 109.626,245.822 109.642,247.396 110.730 M93.474 214.222 C 92.571 215.463,92.595 255.227,93.500 257.300 L 93.980 258.400 200.200 258.400 L 306.420 258.400 306.900 257.300 C 307.805 255.227,307.829 215.463,306.926 214.222 L 306.200 213.225 200.200 213.225 L 94.200 213.225 93.474 214.222 M168.230 220.300 C 169.495 222.227,169.957 226.494,169.979 236.456 L 170.000 245.913 168.661 247.856 L 167.322 249.800 160.835 249.910 L 154.347 250.020 152.374 247.973 L 150.400 245.925 150.403 236.662 C 150.409 219.883,150.796 219.236,160.854 219.214 L 167.508 219.200 168.230 220.300 M247.480 220.500 C 249.496 222.620,250.000 225.873,250.000 236.760 L 250.000 245.962 247.971 247.991 L 245.942 250.020 239.471 249.910 L 233.000 249.800 231.700 247.855 L 230.400 245.910 230.421 236.455 C 230.443 226.582,230.919 222.099,232.144 220.229 L 232.818 219.200 239.531 219.200 L 246.243 219.200 247.480 220.500 M63.023 323.689 C 62.080 325.035,62.085 372.195,63.028 375.438 L 63.657 377.600 103.328 377.599 L 143.000 377.598 145.100 375.549 L 147.200 373.501 147.200 358.114 L 147.200 342.727 148.605 341.086 C 151.386 337.836,148.453 338.010,200.400 338.028 C 243.599 338.044,246.302 338.086,248.000 338.767 C 249.907 339.532,251.596 341.496,251.605 342.959 C 251.608 343.422,251.968 344.941,252.405 346.336 C 253.126 348.637,253.200 350.015,253.200 361.241 L 253.200 373.611 255.300 375.598 L 257.400 377.584 297.027 377.592 L 336.654 377.600 337.327 375.465 C 338.311 372.342,338.357 325.088,337.377 323.689 L 336.755 322.800 200.200 322.800 L 63.645 322.800 63.023 323.689 " stroke="none" fill="#dbf3fc" fill-rule="evenodd"></path><path id="path3" d="M196.661 32.500 C 196.764 32.665,196.117 32.800,195.224 32.800 C 194.331 32.800,193.600 32.980,193.600 33.200 C 193.600 33.420,193.087 33.600,192.459 33.600 C 191.832 33.600,190.707 34.045,189.959 34.590 C 189.212 35.134,188.212 35.753,187.739 35.965 C 187.265 36.177,186.763 36.537,186.622 36.764 C 186.481 36.992,185.609 37.377,184.683 37.619 C 180.760 38.646,179.535 40.272,179.429 44.590 C 179.392 46.101,177.432 46.653,169.400 47.414 C 164.342 47.894,163.403 48.037,163.058 48.382 C 162.862 48.578,162.454 48.642,162.151 48.526 C 161.848 48.410,161.600 48.524,161.600 48.781 C 161.600 49.037,161.406 49.127,161.169 48.981 C 160.633 48.649,159.446 49.892,158.612 51.659 C 157.840 53.294,157.118 54.535,156.518 55.257 C 156.271 55.556,156.079 55.890,156.093 56.000 C 156.261 57.363,155.442 58.002,153.473 58.048 C 152.333 58.074,150.500 58.144,149.400 58.204 C 148.300 58.263,146.320 58.358,145.000 58.413 C 142.052 58.536,138.541 59.402,137.740 60.203 C 137.411 60.531,136.965 60.800,136.748 60.800 C 136.531 60.800,136.464 60.980,136.600 61.200 C 136.736 61.420,136.644 61.600,136.395 61.600 C 135.817 61.600,134.800 62.609,134.800 63.181 C 134.800 64.419,125.928 66.310,118.800 66.591 C 112.885 66.824,109.229 67.137,108.711 67.456 C 108.552 67.554,107.832 67.704,107.111 67.790 C 105.678 67.961,101.794 68.432,100.733 68.564 C 100.367 68.609,99.790 68.877,99.451 69.158 C 99.112 69.439,98.680 69.573,98.490 69.456 C 98.301 69.339,97.893 69.593,97.585 70.021 C 97.276 70.450,96.725 70.800,96.361 70.800 C 95.491 70.800,94.651 71.835,95.027 72.444 C 95.215 72.748,95.154 72.819,94.862 72.638 C 94.588 72.469,94.400 72.607,94.400 72.976 C 94.400 73.319,94.259 73.600,94.087 73.600 C 93.915 73.600,93.736 74.061,93.690 74.624 C 93.642 75.198,93.074 76.094,92.395 76.666 C 87.760 80.566,87.459 91.203,91.955 92.190 C 95.079 92.876,307.837 92.515,309.299 91.821 C 312.751 90.183,312.284 80.978,308.560 77.254 C 307.592 76.287,306.800 75.350,306.800 75.173 C 306.800 74.997,306.591 74.345,306.335 73.726 C 306.080 73.107,305.915 72.420,305.969 72.200 C 306.023 71.980,305.942 71.925,305.789 72.078 C 305.453 72.413,303.600 70.295,303.600 69.576 C 303.600 69.296,303.479 69.187,303.332 69.335 C 303.184 69.482,302.671 69.345,302.190 69.030 C 301.108 68.321,299.428 68.010,295.746 67.838 C 294.177 67.765,292.717 67.596,292.502 67.463 C 291.676 66.952,288.767 66.702,282.600 66.612 C 279.080 66.560,275.570 66.392,274.800 66.239 C 271.136 65.509,265.274 63.804,265.450 63.519 C 265.559 63.344,265.322 63.197,264.924 63.194 C 264.310 63.189,264.291 63.129,264.800 62.800 C 265.313 62.469,265.298 62.411,264.700 62.406 C 264.315 62.403,264.000 62.248,264.000 62.061 C 264.000 60.286,260.560 58.736,256.230 58.560 C 244.560 58.085,244.674 58.109,244.140 56.000 C 244.001 55.450,243.471 54.280,242.964 53.400 C 242.456 52.520,241.999 51.620,241.948 51.400 C 241.312 48.667,240.377 48.127,235.800 47.854 C 234.260 47.762,232.280 47.584,231.400 47.458 C 230.520 47.332,228.270 47.032,226.400 46.791 C 221.105 46.108,221.285 46.187,220.742 44.296 C 220.475 43.363,220.243 42.499,220.228 42.376 C 220.163 41.857,217.436 38.854,217.175 39.015 C 217.019 39.112,216.668 38.923,216.396 38.596 C 216.124 38.268,215.682 38.000,215.413 38.000 C 215.144 38.000,214.598 37.640,214.200 37.200 C 213.802 36.760,213.248 36.400,212.969 36.400 C 212.690 36.400,211.952 35.995,211.329 35.500 C 209.688 34.195,208.521 33.600,207.605 33.600 C 207.162 33.600,206.800 33.459,206.800 33.286 C 206.800 32.918,206.758 32.913,200.938 32.509 C 198.483 32.339,196.559 32.335,196.661 32.500 M207.139 39.155 C 209.781 39.660,218.278 44.000,216.627 44.000 C 216.472 44.000,216.738 44.551,217.217 45.223 C 218.789 47.431,220.843 48.437,225.476 49.268 C 227.834 49.691,229.968 50.207,230.218 50.415 C 230.469 50.623,230.792 50.675,230.937 50.530 C 231.082 50.385,231.200 50.487,231.200 50.757 C 231.200 51.027,231.384 51.133,231.610 50.994 C 231.835 50.855,231.970 50.892,231.910 51.078 C 231.746 51.582,233.437 53.600,234.024 53.600 C 234.304 53.600,234.429 53.704,234.303 53.831 C 234.041 54.093,236.337 56.400,236.859 56.400 C 237.047 56.400,237.200 56.681,237.200 57.024 C 237.200 57.367,237.368 57.544,237.572 57.417 C 237.777 57.291,238.049 57.356,238.177 57.562 C 238.709 58.424,245.767 60.361,249.368 60.633 C 256.943 61.206,260.690 62.608,260.829 64.919 C 260.898 66.062,263.509 67.591,266.048 67.974 C 267.452 68.185,270.220 68.645,272.200 68.994 C 274.180 69.344,276.880 69.801,278.200 70.009 C 279.520 70.217,281.050 70.477,281.600 70.587 C 283.936 71.053,284.659 71.195,285.700 71.392 C 288.523 71.926,289.009 72.072,289.133 72.424 C 289.207 72.631,289.503 72.800,289.791 72.800 C 290.080 72.800,291.127 73.565,292.118 74.500 C 293.859 76.142,297.269 77.573,301.000 78.227 C 306.662 79.220,308.262 80.793,308.466 85.568 C 308.699 91.010,317.518 90.600,200.200 90.600 C 93.859 90.600,93.128 90.586,91.850 88.475 C 91.519 87.929,92.637 81.678,93.183 81.021 C 93.723 80.370,95.771 79.148,96.203 79.218 C 96.320 79.237,97.447 78.951,98.708 78.584 C 99.968 78.216,101.429 77.836,101.954 77.740 C 102.479 77.644,103.415 77.303,104.034 76.982 C 104.653 76.662,105.413 76.400,105.721 76.400 C 106.029 76.400,106.893 75.851,107.641 75.180 C 109.078 73.890,109.804 73.280,110.830 72.498 C 111.412 72.055,115.498 71.057,118.800 70.552 C 119.570 70.435,121.009 70.162,121.997 69.946 C 122.986 69.730,125.596 69.279,127.797 68.944 C 137.737 67.430,136.760 67.871,141.335 62.844 C 141.960 62.158,142.623 61.690,142.808 61.805 C 142.993 61.919,143.247 61.848,143.372 61.646 C 143.589 61.294,145.091 61.079,150.800 60.581 C 158.057 59.949,167.359 55.875,166.121 53.872 C 165.986 53.654,166.077 53.600,166.321 53.751 C 166.578 53.910,167.022 53.531,167.373 52.852 C 168.199 51.255,170.128 50.151,173.000 49.631 C 179.162 48.516,179.367 48.457,180.799 47.401 C 181.513 46.874,182.545 45.783,183.093 44.977 C 185.145 41.957,188.914 39.847,193.200 39.318 C 194.190 39.196,195.360 38.941,195.800 38.752 C 196.780 38.330,204.210 38.594,207.139 39.155 M122.701 96.380 C 120.730 96.766,119.779 97.684,118.335 100.594 C 117.679 101.917,116.840 103.334,116.471 103.742 C 115.867 104.409,115.789 106.328,115.685 122.942 C 115.535 147.025,115.613 147.657,119.237 151.605 C 121.139 153.678,118.415 153.615,201.058 153.504 C 287.843 153.388,280.055 153.663,281.821 150.646 C 282.222 149.961,282.763 149.220,283.024 149.000 C 284.768 147.530,285.731 107.672,284.102 104.400 C 282.123 100.426,280.435 97.740,279.471 97.031 L 278.341 96.200 201.271 96.143 C 158.882 96.112,123.526 96.218,122.701 96.380 M277.422 99.390 C 278.136 99.935,279.233 101.240,279.860 102.290 L 281.000 104.200 281.119 123.800 C 281.267 148.134,281.136 149.165,277.649 151.124 L 276.091 152.000 200.146 151.993 L 124.200 151.987 122.600 151.090 C 119.345 149.265,119.416 149.793,119.283 126.203 C 119.150 102.668,119.078 103.301,122.250 100.129 L 123.979 98.400 200.052 98.400 L 276.124 98.400 277.422 99.390 M117.200 157.290 C 109.390 157.842,108.624 158.433,108.129 164.282 C 107.831 167.813,107.302 168.350,103.829 168.648 C 100.204 168.959,97.997 170.234,97.668 172.209 C 97.246 174.745,94.133 178.400,92.395 178.400 C 91.669 178.400,91.255 178.566,91.400 178.800 C 91.541 179.028,91.195 179.200,90.597 179.200 C 90.020 179.200,89.184 179.395,88.739 179.633 C 88.295 179.870,87.091 180.138,86.065 180.228 C 83.256 180.473,82.901 180.575,81.651 181.499 C 80.925 182.036,80.401 182.870,80.235 183.752 C 79.860 185.753,77.413 186.591,70.179 187.197 C 61.577 187.917,60.596 188.547,59.225 194.233 C 58.311 198.022,59.205 200.775,61.616 201.600 C 62.462 201.890,335.074 202.078,337.107 201.790 C 340.840 201.262,342.235 198.648,341.170 194.180 C 339.831 188.556,338.760 187.871,330.355 187.262 C 324.672 186.850,319.864 185.572,320.041 184.519 C 320.071 184.344,320.073 183.990,320.047 183.733 C 319.980 183.066,316.816 179.850,316.520 180.147 C 316.385 180.282,316.061 180.216,315.800 180.000 C 315.540 179.784,314.713 179.528,313.963 179.431 C 313.213 179.333,312.510 179.221,312.400 179.181 C 312.290 179.141,312.020 179.066,311.800 179.015 C 311.580 178.964,311.310 178.882,311.200 178.833 C 311.090 178.785,310.460 178.677,309.800 178.594 C 306.460 178.172,305.969 177.950,304.788 176.320 C 304.134 175.418,303.600 174.437,303.600 174.140 C 303.600 173.843,303.458 173.600,303.285 173.600 C 303.112 173.600,302.942 173.224,302.907 172.764 C 302.732 170.437,301.207 169.451,296.513 168.627 C 292.690 167.956,292.556 167.808,292.294 163.984 C 292.173 162.217,291.855 160.507,291.588 160.185 C 291.321 159.863,291.256 159.600,291.444 159.600 C 293.657 159.600,288.350 157.620,285.569 157.408 C 279.938 156.979,123.151 156.869,117.200 157.290 M279.600 160.200 C 281.030 160.515,283.305 160.778,284.656 160.786 C 287.923 160.805,288.684 161.448,289.245 164.669 C 289.726 167.434,291.635 169.672,295.175 171.622 C 296.596 172.405,297.316 173.239,298.777 175.797 C 300.798 179.334,301.417 179.786,306.200 181.217 C 310.167 182.404,310.800 182.703,310.800 183.391 C 310.800 183.726,310.980 184.000,311.200 184.000 C 311.420 184.000,311.600 184.262,311.600 184.581 C 311.600 185.230,313.199 186.052,316.200 186.947 C 317.300 187.275,319.190 187.897,320.400 188.330 C 321.610 188.762,323.770 189.238,325.200 189.386 C 334.934 190.397,336.697 191.080,338.138 194.405 C 339.727 198.069,338.697 199.244,333.400 199.809 C 329.210 200.257,75.140 200.388,69.200 199.946 C 61.455 199.369,60.453 198.575,62.250 194.431 C 63.684 191.126,65.852 190.254,74.800 189.385 C 77.508 189.122,79.232 188.722,81.600 187.808 C 83.939 186.905,84.583 186.680,85.000 186.617 C 85.220 186.584,85.907 186.341,86.526 186.078 C 87.145 185.815,87.790 185.600,87.958 185.600 C 88.127 185.600,88.520 185.105,88.832 184.500 C 89.714 182.792,90.120 182.503,92.644 181.787 C 96.780 180.613,99.389 179.265,100.207 177.878 C 100.621 177.175,101.118 176.420,101.310 176.200 C 101.503 175.980,102.056 175.080,102.541 174.200 C 103.123 173.141,104.074 172.246,105.352 171.553 C 108.398 169.902,110.334 167.657,110.791 165.248 C 111.090 163.669,112.100 161.330,112.546 161.182 C 112.576 161.172,113.585 161.064,114.788 160.941 C 115.992 160.818,118.242 160.485,119.788 160.202 C 124.187 159.396,275.936 159.394,279.600 160.200 M92.155 206.362 C 88.498 208.592,88.400 209.369,88.400 236.033 C 88.400 260.761,88.376 260.514,90.868 261.873 C 92.947 263.008,307.453 263.008,309.532 261.873 C 312.077 260.484,312.043 260.880,311.915 234.877 L 311.800 211.400 310.800 209.403 C 310.241 208.287,309.201 207.008,308.441 206.503 L 307.082 205.600 200.241 205.601 C 96.033 205.603,93.369 205.622,92.155 206.362 M307.978 210.233 C 310.848 212.132,310.800 211.694,310.800 236.214 L 310.800 258.012 309.431 259.506 L 308.061 261.000 200.200 261.000 L 92.339 261.000 90.969 259.506 L 89.600 258.012 89.610 236.106 C 89.622 211.652,89.563 212.205,92.400 210.219 L 93.800 209.239 200.109 209.220 L 306.417 209.200 307.978 210.233 M88.400 267.254 C 86.970 267.443,84.720 267.695,83.400 267.815 C 81.565 267.981,80.835 268.240,80.300 268.916 C 79.915 269.402,79.431 270.006,79.224 270.257 C 79.017 270.509,78.957 270.824,79.091 270.957 C 79.224 271.091,79.144 271.200,78.913 271.200 C 78.681 271.200,78.365 272.235,78.210 273.500 C 77.790 276.918,76.649 278.219,73.716 278.623 C 72.442 278.798,71.310 278.958,71.200 278.979 C 70.687 279.073,68.394 280.608,68.350 280.886 C 68.240 281.580,68.112 281.885,67.047 284.000 C 66.439 285.210,65.853 286.646,65.746 287.191 C 65.639 287.736,65.487 288.246,65.409 288.324 C 65.214 288.520,59.963 289.170,56.800 289.390 C 53.282 289.635,51.567 289.976,51.001 290.542 C 50.267 291.276,49.541 292.782,49.755 293.127 C 50.531 294.383,46.757 296.236,42.800 296.541 C 32.344 297.347,33.315 297.140,31.949 298.865 C 28.152 303.658,28.222 310.098,32.081 311.158 C 34.095 311.711,366.616 311.586,368.496 311.032 C 372.151 309.953,372.034 302.984,368.289 298.739 L 367.000 297.278 360.800 296.798 C 353.398 296.225,351.505 295.524,350.200 292.870 C 349.341 291.122,346.653 289.639,343.909 289.401 C 343.189 289.338,341.160 289.166,339.400 289.018 C 335.226 288.668,334.800 288.523,334.800 287.453 C 334.800 286.962,334.644 286.389,334.453 286.180 C 334.262 285.971,333.787 284.945,333.398 283.900 C 333.009 282.855,332.536 282.000,332.346 282.000 C 332.156 282.000,332.000 281.645,332.000 281.210 C 332.000 280.026,329.230 278.862,324.903 278.227 C 323.968 278.090,322.405 275.949,322.400 274.800 C 322.393 273.285,321.630 270.848,320.874 269.930 C 319.509 268.271,319.120 267.999,318.071 267.970 C 317.482 267.954,316.640 267.878,316.200 267.801 C 310.951 266.882,301.546 266.806,199.600 266.856 C 139.870 266.885,89.830 267.064,88.400 267.254 M308.800 270.233 C 311.705 271.055,313.650 271.587,314.461 271.781 C 316.915 272.368,318.688 274.021,320.262 277.190 C 320.773 278.219,322.709 280.341,324.858 282.227 C 325.376 282.681,326.073 283.401,326.406 283.827 C 327.842 285.660,328.999 287.428,328.999 287.790 C 329.000 288.004,330.890 288.796,333.200 289.549 C 339.128 291.482,340.625 292.196,341.649 293.581 C 342.542 294.789,345.126 296.400,346.170 296.400 C 346.701 296.400,351.945 298.463,353.251 299.185 C 353.608 299.383,356.881 300.142,360.524 300.873 L 367.147 302.200 368.009 304.031 C 368.860 305.835,368.861 305.883,368.133 307.431 L 367.395 309.000 364.598 309.118 C 363.059 309.182,360.540 309.395,359.000 309.589 C 355.699 310.007,41.355 309.869,36.600 309.448 C 32.128 309.052,30.023 305.920,32.538 303.405 C 32.902 303.041,33.200 302.619,33.200 302.468 C 33.200 302.317,34.955 301.852,37.100 301.435 C 43.532 300.185,46.431 299.370,49.865 297.848 C 51.660 297.051,53.595 296.400,54.165 296.400 C 54.734 296.400,55.200 296.240,55.200 296.043 C 55.200 295.847,55.670 295.569,56.244 295.425 C 56.819 295.281,58.149 294.279,59.200 293.200 C 60.251 292.121,61.626 291.125,62.256 290.988 C 64.062 290.595,68.890 289.207,70.105 288.731 C 70.713 288.493,71.478 287.736,71.805 287.049 C 72.132 286.362,72.940 285.170,73.599 284.400 C 74.259 283.630,74.799 282.883,74.799 282.739 C 74.800 282.596,75.348 282.132,76.018 281.707 C 77.275 280.912,80.788 276.539,80.796 275.761 C 80.798 275.520,81.397 274.710,82.127 273.961 C 83.426 272.628,84.592 272.142,90.200 270.594 C 91.520 270.229,92.780 269.871,93.000 269.797 C 94.667 269.239,306.803 269.667,308.800 270.233 M62.470 315.726 C 61.991 316.235,61.600 316.848,61.600 317.088 C 61.600 317.328,60.976 318.272,60.212 319.185 C 57.988 321.848,58.005 321.604,58.002 351.440 C 58.000 381.110,57.981 380.835,60.117 382.438 L 61.400 383.400 105.200 383.400 C 148.814 383.400,149.007 383.396,150.600 382.566 C 153.424 381.095,153.373 381.441,153.633 361.800 C 153.761 352.120,154.007 343.795,154.179 343.300 L 154.493 342.400 200.200 342.400 L 245.907 342.400 246.186 343.500 C 246.340 344.105,246.591 352.430,246.745 362.000 C 247.055 381.367,247.008 381.049,249.779 382.532 L 251.400 383.400 294.768 383.507 L 338.137 383.614 339.642 382.571 C 342.244 380.768,342.159 381.738,342.315 351.800 C 342.490 318.275,342.767 320.772,338.331 315.960 L 337.262 314.800 200.300 314.800 L 63.339 314.800 62.470 315.726 M337.924 319.761 C 338.521 320.069,339.419 321.051,339.920 321.944 L 340.832 323.566 340.716 350.483 C 340.590 379.707,340.596 379.625,338.313 381.509 C 337.821 381.915,329.064 381.996,294.871 381.909 L 252.044 381.800 250.676 380.474 C 248.693 378.552,248.400 376.074,248.400 361.239 C 248.400 347.575,248.002 343.155,246.640 341.707 L 245.800 340.814 200.170 340.807 L 154.539 340.800 153.646 341.751 C 152.290 343.194,152.017 346.356,152.008 360.723 C 151.998 376.105,151.717 378.542,149.724 380.474 L 148.356 381.800 105.678 381.911 C 72.266 381.998,62.797 381.914,62.066 381.525 C 59.750 380.293,59.810 381.056,59.684 351.315 C 59.556 320.982,59.454 322.232,62.243 320.038 L 63.308 319.200 200.074 319.200 C 316.611 319.200,337.000 319.283,337.924 319.761 M166.597 346.115 C 166.376 346.382,165.989 347.062,165.739 347.627 C 165.380 348.436,164.813 348.759,163.066 349.150 C 160.483 349.728,159.142 350.674,157.728 352.915 L 156.708 354.529 156.873 366.365 C 157.045 378.706,157.099 379.100,158.904 381.083 C 160.595 382.941,161.841 383.000,199.600 383.000 C 239.025 383.000,239.121 382.994,241.434 380.575 C 243.132 378.798,243.601 375.090,243.601 363.454 L 243.600 354.308 242.531 352.344 C 241.375 350.220,239.512 348.800,237.882 348.800 C 237.251 348.800,236.538 348.393,236.024 347.740 C 234.270 345.510,235.768 345.599,200.054 345.615 C 174.668 345.627,166.907 345.743,166.597 346.115 M236.852 351.583 C 240.935 353.134,240.800 352.715,240.800 363.847 C 240.800 375.901,240.182 378.447,236.860 380.084 L 235.000 381.000 200.600 381.112 C 166.459 381.223,166.180 381.218,163.535 380.373 L 160.869 379.522 160.235 376.712 C 159.748 374.558,159.600 371.597,159.600 364.040 C 159.600 352.738,159.362 353.472,163.600 351.726 L 165.800 350.819 200.296 350.809 C 233.583 350.800,234.864 350.827,236.852 351.583 " stroke="none" fill="#6ca4d7" fill-rule="evenodd"></path><path id="path4" d="M183.751 18.561 C 183.063 18.803,181.668 19.531,180.651 20.180 L 178.800 21.360 178.800 24.480 L 178.800 27.600 180.350 27.600 C 181.759 27.600,181.922 27.489,182.145 26.375 C 182.280 25.702,183.034 24.181,183.820 22.996 C 185.755 20.081,185.720 17.870,183.751 18.561 M215.200 19.358 C 215.200 20.135,215.581 21.722,216.047 22.885 C 216.513 24.048,217.062 25.585,217.266 26.300 C 217.894 28.496,218.400 27.749,218.400 24.626 C 218.400 21.036,218.036 19.965,216.428 18.820 L 215.200 17.946 215.200 19.358 M147.732 35.883 C 146.399 36.547,144.373 39.724,144.434 41.054 C 144.457 41.549,144.580 41.431,144.798 40.706 C 145.393 38.729,146.853 36.792,148.339 36.007 C 150.083 35.086,149.551 34.976,147.732 35.883 M195.800 38.752 C 195.360 38.941,194.190 39.196,193.200 39.318 C 188.914 39.847,185.145 41.957,183.093 44.977 C 182.545 45.783,181.513 46.874,180.799 47.401 C 179.367 48.457,179.162 48.516,173.000 49.631 C 170.128 50.151,168.199 51.255,167.373 52.852 C 167.022 53.531,166.578 53.910,166.321 53.751 C 166.077 53.600,165.986 53.654,166.121 53.872 C 167.359 55.875,158.057 59.949,150.800 60.581 C 145.091 61.079,143.589 61.294,143.372 61.646 C 143.247 61.848,142.993 61.919,142.808 61.805 C 142.623 61.690,141.960 62.158,141.335 62.844 C 137.489 67.069,136.810 67.542,133.922 67.999 C 132.755 68.183,129.999 68.608,127.797 68.944 C 125.596 69.279,122.986 69.730,121.997 69.946 C 121.009 70.162,119.570 70.435,118.800 70.552 C 115.498 71.057,111.412 72.055,110.830 72.498 C 109.804 73.280,109.078 73.890,107.641 75.180 C 106.893 75.851,106.029 76.400,105.721 76.400 C 105.413 76.400,104.653 76.662,104.034 76.982 C 103.415 77.303,102.479 77.644,101.954 77.740 C 101.429 77.836,99.968 78.216,98.708 78.584 C 97.447 78.951,96.320 79.237,96.203 79.218 C 95.771 79.148,93.723 80.370,93.183 81.021 C 92.637 81.678,91.519 87.929,91.850 88.475 C 93.128 90.586,93.859 90.600,200.200 90.600 C 317.518 90.600,308.699 91.010,308.466 85.568 C 308.262 80.793,306.662 79.220,301.000 78.227 C 297.269 77.573,293.859 76.142,292.118 74.500 C 291.127 73.565,290.080 72.800,289.791 72.800 C 289.503 72.800,289.207 72.631,289.133 72.424 C 289.009 72.072,288.523 71.926,285.700 71.392 C 284.659 71.195,283.936 71.053,281.600 70.587 C 281.050 70.477,279.520 70.217,278.200 70.009 C 276.880 69.801,274.180 69.344,272.200 68.994 C 270.220 68.645,267.452 68.185,266.048 67.974 C 263.509 67.591,260.898 66.062,260.829 64.919 C 260.690 62.608,256.943 61.206,249.368 60.633 C 245.767 60.361,238.709 58.424,238.177 57.562 C 238.049 57.356,237.777 57.291,237.572 57.417 C 237.368 57.544,237.200 57.367,237.200 57.024 C 237.200 56.681,237.047 56.400,236.859 56.400 C 236.337 56.400,234.041 54.093,234.303 53.831 C 234.429 53.704,234.304 53.600,234.024 53.600 C 233.437 53.600,231.746 51.582,231.910 51.078 C 231.970 50.892,231.835 50.855,231.610 50.994 C 231.384 51.133,231.200 51.027,231.200 50.757 C 231.200 50.487,231.082 50.385,230.937 50.530 C 230.792 50.675,230.469 50.623,230.218 50.415 C 229.968 50.207,227.834 49.691,225.476 49.268 C 220.843 48.437,218.789 47.431,217.217 45.223 C 216.738 44.551,216.472 44.000,216.627 44.000 C 218.278 44.000,209.781 39.660,207.139 39.155 C 204.210 38.594,196.780 38.330,195.800 38.752 M207.080 44.073 C 209.424 44.803,210.795 45.503,211.880 46.521 C 215.703 50.107,221.278 53.063,224.926 53.436 L 227.476 53.698 229.155 56.349 C 231.596 60.204,232.173 60.800,233.464 60.802 C 234.089 60.802,236.220 61.062,238.200 61.378 C 240.180 61.695,242.700 62.055,243.800 62.179 C 247.980 62.651,249.325 63.380,250.525 65.826 C 251.122 67.044,251.745 67.958,251.909 67.856 C 252.072 67.755,253.195 68.099,254.403 68.620 C 255.611 69.141,257.005 69.575,257.500 69.584 C 257.995 69.593,258.400 69.751,258.400 69.936 C 258.400 71.202,262.647 72.520,269.050 73.241 C 277.002 74.136,279.695 74.849,280.757 76.340 C 281.347 77.168,282.423 77.707,285.266 78.599 C 287.320 79.243,289.383 80.008,289.850 80.298 C 290.318 80.589,291.054 80.895,291.486 80.978 C 295.274 81.708,295.478 81.887,296.286 85.220 L 297.042 88.333 295.021 88.517 C 292.383 88.757,108.021 88.757,105.384 88.517 L 103.368 88.334 103.655 85.329 C 103.813 83.676,104.000 82.284,104.071 82.234 C 104.142 82.185,105.370 81.829,106.800 81.444 C 108.230 81.059,110.030 80.417,110.800 80.017 C 111.570 79.618,113.633 78.797,115.384 78.193 C 117.294 77.533,119.026 76.635,119.715 75.947 C 120.345 75.316,121.220 74.800,121.657 74.800 C 122.095 74.800,122.794 74.617,123.211 74.394 C 123.628 74.171,126.721 73.711,130.084 73.372 C 136.795 72.695,139.431 72.027,141.170 70.564 C 141.800 70.034,142.516 69.600,142.762 69.600 C 143.371 69.600,146.859 67.987,147.600 67.363 C 147.930 67.085,148.380 66.866,148.600 66.877 C 148.820 66.888,149.360 66.164,149.800 65.268 C 150.944 62.938,151.994 62.658,165.890 60.980 C 168.252 60.695,169.191 59.859,171.554 55.944 L 172.909 53.699 175.528 53.431 C 179.152 53.060,185.849 49.372,189.168 45.921 C 191.871 43.110,200.977 42.170,207.080 44.073 M122.250 100.129 C 119.078 103.301,119.150 102.668,119.283 126.203 C 119.416 149.793,119.345 149.265,122.600 151.090 L 124.200 151.987 200.146 151.993 L 276.091 152.000 277.649 151.124 C 281.136 149.165,281.267 148.134,281.119 123.800 L 281.000 104.200 279.860 102.290 C 279.233 101.240,278.136 99.935,277.422 99.390 L 276.124 98.400 200.052 98.400 L 123.979 98.400 122.250 100.129 M277.416 102.100 C 280.075 105.159,280.000 104.511,280.000 124.514 C 280.000 144.762,279.715 147.502,277.399 149.500 L 276.355 150.400 200.200 150.400 L 124.045 150.400 123.001 149.500 C 120.685 147.502,120.400 144.762,120.400 124.514 C 120.400 104.511,120.325 105.159,122.984 102.100 L 124.462 100.400 200.200 100.400 L 275.938 100.400 277.416 102.100 M119.788 160.202 C 118.242 160.485,115.992 160.818,114.788 160.941 C 113.585 161.064,112.576 161.172,112.546 161.182 C 112.100 161.330,111.090 163.669,110.791 165.248 C 110.334 167.657,108.398 169.902,105.352 171.553 C 104.074 172.246,103.123 173.141,102.541 174.200 C 102.056 175.080,101.503 175.980,101.310 176.200 C 101.118 176.420,100.621 177.175,100.207 177.878 C 99.389 179.265,96.780 180.613,92.644 181.787 C 90.120 182.503,89.714 182.792,88.832 184.500 C 88.520 185.105,88.127 185.600,87.958 185.600 C 87.790 185.600,87.145 185.815,86.526 186.078 C 85.907 186.341,85.220 186.584,85.000 186.617 C 84.583 186.680,83.939 186.905,81.600 187.808 C 79.232 188.722,77.508 189.122,74.800 189.385 C 65.852 190.254,63.684 191.126,62.250 194.431 C 60.453 198.575,61.455 199.369,69.200 199.946 C 75.140 200.388,329.210 200.257,333.400 199.809 C 338.697 199.244,339.727 198.069,338.138 194.405 C 336.697 191.080,334.934 190.397,325.200 189.386 C 323.770 189.238,321.610 188.762,320.400 188.330 C 319.190 187.897,317.300 187.275,316.200 186.947 C 313.199 186.052,311.600 185.230,311.600 184.581 C 311.600 184.262,311.420 184.000,311.200 184.000 C 310.980 184.000,310.800 183.726,310.800 183.391 C 310.800 182.703,310.167 182.404,306.200 181.217 C 301.417 179.786,300.798 179.334,298.777 175.797 C 297.316 173.239,296.596 172.405,295.175 171.622 C 291.635 169.672,289.726 167.434,289.245 164.669 C 288.684 161.448,287.923 160.805,284.656 160.786 C 283.305 160.778,281.030 160.515,279.600 160.200 C 275.936 159.394,124.187 159.396,119.788 160.202 M85.876 162.500 C 85.345 163.215,84.706 164.412,84.455 165.160 C 83.657 167.543,83.985 167.484,84.979 165.065 C 85.507 163.781,86.251 162.386,86.631 161.965 C 87.012 161.544,87.215 161.200,87.082 161.200 C 86.949 161.200,86.406 161.785,85.876 162.500 M280.566 165.952 C 283.225 167.246,286.067 168.539,286.882 168.826 C 287.868 169.173,288.522 169.729,288.836 170.487 C 289.096 171.114,289.706 171.940,290.192 172.322 C 290.821 172.817,291.225 173.818,291.597 175.808 C 292.397 180.086,294.729 181.800,301.980 183.442 C 306.774 184.527,307.042 184.671,307.762 186.557 C 308.758 189.164,310.960 190.723,314.712 191.477 C 316.410 191.818,317.980 192.231,318.200 192.394 C 318.420 192.557,319.680 193.004,321.000 193.389 C 325.563 194.718,327.295 195.296,328.345 195.845 C 328.925 196.147,329.895 196.396,330.500 196.398 C 332.843 196.403,331.434 197.143,328.100 197.659 C 318.351 199.167,68.800 198.300,68.800 196.759 C 68.800 196.561,69.295 196.399,69.900 196.398 C 70.505 196.396,71.470 196.150,72.044 195.850 C 73.418 195.133,77.616 193.806,80.518 193.172 C 81.793 192.893,82.918 192.532,83.019 192.370 C 83.119 192.208,83.561 192.169,84.000 192.284 C 84.478 192.409,84.800 192.296,84.800 192.004 C 84.800 191.733,85.068 191.617,85.400 191.745 C 85.730 191.871,86.000 191.781,86.000 191.545 C 86.000 191.308,86.258 191.214,86.574 191.335 C 86.890 191.456,87.205 191.402,87.274 191.214 C 87.343 191.027,87.760 190.812,88.200 190.737 C 88.640 190.661,89.090 190.501,89.200 190.381 C 89.310 190.260,89.971 189.763,90.669 189.276 C 91.423 188.749,92.217 187.660,92.625 186.590 C 93.260 184.926,93.468 184.748,95.356 184.247 C 107.448 181.036,107.697 180.893,108.669 176.583 C 109.625 172.347,111.946 168.992,114.208 168.573 C 114.433 168.532,116.859 167.396,119.599 166.049 L 124.582 163.600 200.157 163.600 L 275.732 163.600 280.566 165.952 M92.400 210.219 C 89.563 212.205,89.622 211.652,89.610 236.106 L 89.600 258.012 90.969 259.506 L 92.339 261.000 200.200 261.000 L 308.061 261.000 309.431 259.506 L 310.800 258.012 310.800 236.214 C 310.800 211.694,310.848 212.132,307.978 210.233 L 306.417 209.200 200.109 209.220 L 93.800 209.239 92.400 210.219 M308.299 212.756 L 309.638 214.512 309.519 235.956 C 309.390 259.194,309.469 258.396,307.171 259.753 C 305.488 260.747,94.912 260.747,93.229 259.753 C 90.934 258.398,91.010 259.153,90.880 236.407 C 90.748 213.262,90.675 214.401,92.416 212.299 L 93.659 210.799 200.309 210.899 L 306.959 211.000 308.299 212.756 M93.000 269.797 C 92.780 269.871,91.520 270.229,90.200 270.594 C 84.592 272.142,83.426 272.628,82.127 273.961 C 81.397 274.710,80.798 275.520,80.796 275.761 C 80.788 276.539,77.275 280.912,76.018 281.707 C 75.348 282.132,74.800 282.596,74.799 282.739 C 74.799 282.883,74.259 283.630,73.599 284.400 C 72.940 285.170,72.132 286.362,71.805 287.049 C 71.478 287.736,70.713 288.493,70.105 288.731 C 68.890 289.207,64.062 290.595,62.256 290.988 C 61.626 291.125,60.251 292.121,59.200 293.200 C 58.149 294.279,56.819 295.281,56.244 295.425 C 55.670 295.569,55.200 295.847,55.200 296.043 C 55.200 296.240,54.734 296.400,54.165 296.400 C 53.595 296.400,51.660 297.051,49.865 297.848 C 46.431 299.370,43.532 300.185,37.100 301.435 C 34.955 301.852,33.200 302.317,33.200 302.468 C 33.200 302.619,32.902 303.041,32.538 303.405 C 30.023 305.920,32.128 309.052,36.600 309.448 C 41.355 309.869,355.699 310.007,359.000 309.589 C 360.540 309.395,363.059 309.182,364.598 309.118 L 367.395 309.000 368.133 307.431 C 368.861 305.883,368.860 305.835,368.009 304.031 L 367.147 302.200 360.524 300.873 C 356.881 300.142,353.608 299.383,353.251 299.185 C 351.945 298.463,346.701 296.400,346.170 296.400 C 345.126 296.400,342.542 294.789,341.649 293.581 C 340.625 292.196,339.128 291.482,333.200 289.549 C 330.890 288.796,329.000 288.004,328.999 287.790 C 328.999 287.428,327.842 285.660,326.406 283.827 C 326.073 283.401,325.376 282.681,324.858 282.227 C 322.709 280.341,320.773 278.219,320.262 277.190 C 318.688 274.021,316.915 272.368,314.461 271.781 C 313.650 271.587,311.705 271.055,308.800 270.233 C 306.803 269.667,94.667 269.239,93.000 269.797 M55.593 271.500 C 54.686 272.653,53.597 274.978,53.604 275.749 C 53.606 275.997,54.068 275.211,54.631 274.001 C 55.194 272.792,55.940 271.487,56.289 271.101 C 56.638 270.716,56.819 270.400,56.691 270.400 C 56.563 270.400,56.069 270.895,55.593 271.500 M307.800 274.253 C 310.555 275.157,311.443 275.595,312.473 276.554 C 312.960 277.008,314.508 278.384,315.911 279.611 C 317.947 281.390,318.801 282.526,320.132 285.217 C 321.049 287.073,322.160 288.776,322.600 289.001 C 323.040 289.226,324.210 289.892,325.200 290.480 C 327.020 291.562,331.470 292.912,334.834 293.403 C 337.256 293.757,337.243 293.744,338.592 297.141 C 340.251 301.319,341.136 301.899,347.300 302.851 C 354.537 303.968,356.817 304.408,357.546 304.825 C 357.906 305.031,358.720 305.385,359.355 305.611 C 360.909 306.164,360.564 306.385,357.125 307.041 C 349.006 308.590,37.755 307.712,39.322 306.145 C 39.713 305.753,45.326 303.994,46.861 303.781 C 56.986 302.381,58.215 302.074,59.597 300.603 C 60.570 299.567,62.400 296.145,62.400 295.361 C 62.400 294.424,63.552 293.698,65.480 293.421 C 74.828 292.078,79.635 288.980,81.036 283.399 C 81.302 282.338,85.375 277.955,85.960 278.099 C 86.092 278.132,86.918 277.486,87.796 276.663 C 88.674 275.840,89.844 275.069,90.396 274.949 C 90.948 274.829,92.030 274.486,92.800 274.186 C 95.140 273.275,305.020 273.340,307.800 274.253 M363.077 277.981 C 363.779 278.410,364.627 279.264,364.961 279.880 C 365.295 280.496,365.575 280.757,365.584 280.460 C 365.605 279.766,363.049 277.200,362.340 277.201 C 362.043 277.202,362.375 277.553,363.077 277.981 M4.801 312.938 C 4.796 314.142,7.458 316.804,8.662 316.799 C 8.848 316.798,8.413 316.439,7.696 316.002 C 6.979 315.565,6.035 314.621,5.598 313.904 C 5.161 313.187,4.802 312.752,4.801 312.938 M394.716 314.017 C 394.348 314.659,393.451 315.546,392.723 315.990 C 391.996 316.434,391.552 316.798,391.738 316.799 C 392.910 316.804,396.120 313.587,395.531 312.998 C 395.451 312.918,395.084 313.376,394.716 314.017 M62.243 320.038 C 59.454 322.232,59.556 320.982,59.684 351.315 C 59.810 381.056,59.750 380.293,62.066 381.525 C 62.797 381.914,72.266 381.998,105.678 381.911 L 148.356 381.800 149.724 380.474 C 151.717 378.542,151.998 376.105,152.008 360.723 C 152.017 346.356,152.290 343.194,153.646 341.751 L 154.539 340.800 200.170 340.807 L 245.800 340.814 246.640 341.707 C 248.002 343.155,248.400 347.575,248.400 361.239 C 248.400 376.074,248.693 378.552,250.676 380.474 L 252.044 381.800 294.871 381.909 C 329.064 381.996,337.821 381.915,338.313 381.509 C 340.596 379.625,340.590 379.707,340.716 350.483 L 340.832 323.566 339.920 321.944 C 339.419 321.051,338.521 320.069,337.924 319.761 C 337.000 319.283,316.611 319.200,200.074 319.200 L 63.308 319.200 62.243 320.038 M337.469 321.082 C 339.609 322.484,339.601 322.376,339.592 349.087 C 339.583 375.236,339.420 378.288,337.945 379.858 L 337.044 380.818 295.822 380.709 C 248.210 380.583,251.841 380.885,250.732 376.962 C 250.177 375.001,250.059 372.509,250.032 362.277 C 249.989 345.892,249.619 342.821,247.461 340.973 L 245.856 339.600 200.159 339.600 L 154.462 339.600 152.731 340.918 L 151.000 342.236 150.740 345.618 C 150.597 347.478,150.447 354.760,150.408 361.800 C 150.321 377.234,150.044 378.908,147.400 379.962 C 144.795 381.001,64.021 381.141,62.594 380.109 C 60.862 378.856,60.805 377.885,60.802 349.967 L 60.800 323.333 62.267 321.867 L 63.733 320.400 200.081 320.400 C 327.872 320.400,336.493 320.443,337.469 321.082 M163.600 351.726 C 159.362 353.472,159.600 352.738,159.600 364.040 C 159.600 371.597,159.748 374.558,160.235 376.712 L 160.869 379.522 163.535 380.373 C 166.180 381.218,166.459 381.223,200.600 381.112 L 235.000 381.000 236.860 380.084 C 240.182 378.447,240.800 375.901,240.800 363.847 C 240.800 349.387,245.182 350.797,200.296 350.809 L 165.800 350.819 163.600 351.726 M235.700 353.964 L 236.800 354.528 236.800 363.710 L 236.800 372.892 235.100 375.234 L 233.400 377.577 200.146 377.588 L 166.892 377.600 166.274 376.656 C 165.933 376.137,165.401 375.458,165.091 375.148 C 163.719 373.776,163.600 372.856,163.600 363.626 C 163.600 358.552,163.645 354.397,163.700 354.394 C 163.755 354.391,164.520 354.127,165.400 353.807 C 167.743 352.956,234.023 353.104,235.700 353.964 " stroke="none" fill="#76afe7" fill-rule="evenodd"></path></g></svg>