<svg id="svg" version="1.1" xmlns="http://www.w3.org/2000/svg" xmlns:xlink="http://www.w3.org/1999/xlink" width="400" height="400" viewBox="0, 0, 400,400"><g id="svgg"><path id="path0" d="M241.854 96.007 C 240.246 97.418,234.706 100.507,232.470 101.239 C 231.661 101.503,230.279 102.458,229.398 103.360 C 228.517 104.262,227.077 105.651,226.198 106.448 C 225.319 107.244,224.160 108.484,223.623 109.204 C 222.283 110.999,220.080 111.866,215.598 112.361 C 211.116 112.857,208.028 113.813,207.214 114.957 C 202.859 121.077,195.508 122.930,173.000 123.580 C 155.823 124.076,150.616 124.812,148.798 127.003 C 148.498 127.363,147.559 128.013,146.710 128.446 C 145.861 128.879,144.854 129.541,144.473 129.917 C 144.091 130.292,143.244 131.051,142.589 131.603 C 141.935 132.155,140.860 133.774,140.200 135.202 C 139.291 137.167,138.175 138.598,135.600 141.099 L 132.200 144.402 132.200 169.332 L 132.200 194.262 133.223 195.631 C 133.785 196.384,134.749 197.978,135.365 199.173 C 136.390 201.163,137.875 203.507,138.422 204.000 C 138.545 204.110,139.013 204.920,139.463 205.800 C 139.913 206.680,140.591 207.985,140.970 208.701 C 141.349 209.416,142.083 212.129,142.602 214.729 C 143.922 221.351,145.038 223.393,148.244 225.057 C 151.052 226.514,154.660 229.954,155.163 231.656 C 156.270 235.401,157.223 237.120,158.334 237.379 C 158.920 237.515,160.480 238.143,161.800 238.773 C 163.120 239.403,165.442 240.207,166.960 240.559 C 169.246 241.088,170.081 241.525,171.819 243.099 C 174.845 245.841,174.934 245.899,176.853 246.398 C 177.814 246.648,179.680 247.187,181.000 247.595 C 182.320 248.003,184.688 248.729,186.263 249.207 C 189.422 250.166,191.331 251.678,192.300 253.986 C 193.259 256.269,193.608 256.375,200.200 256.375 C 206.791 256.375,207.138 256.270,208.103 253.986 C 209.432 250.838,211.940 249.385,219.791 247.216 C 225.170 245.730,227.366 244.729,228.268 243.353 C 229.217 241.904,231.198 240.874,234.283 240.225 C 235.833 239.899,237.707 239.280,238.450 238.850 C 239.192 238.420,240.562 237.845,241.494 237.573 C 243.212 237.070,244.800 234.397,244.800 232.010 C 244.800 230.862,248.484 227.331,252.400 224.726 C 255.719 222.518,256.521 220.969,257.619 214.640 C 258.035 212.243,258.719 209.633,259.140 208.840 C 259.560 208.048,260.366 206.532,260.932 205.471 C 261.498 204.410,262.600 202.579,263.380 201.403 C 264.161 200.227,264.800 199.105,264.800 198.911 C 264.800 198.490,267.197 195.123,267.787 194.714 C 268.065 194.522,268.200 184.292,268.200 163.459 L 268.200 132.488 266.500 130.472 C 265.565 129.364,264.800 128.301,264.800 128.112 C 264.800 127.922,263.968 126.964,262.952 125.983 C 260.716 123.826,259.760 121.820,258.795 117.260 C 257.413 110.733,254.521 104.915,252.600 104.799 C 252.380 104.786,251.594 103.971,250.853 102.988 C 250.113 102.004,249.340 101.200,249.136 101.200 C 248.453 101.200,244.800 97.499,244.800 96.807 C 244.800 95.050,243.382 94.665,241.854 96.007 M163.200 261.353 C 163.200 261.429,163.010 262.460,162.777 263.645 C 162.311 266.020,162.284 270.921,162.724 273.376 L 163.006 274.951 166.239 275.803 C 171.227 277.118,173.902 279.154,174.799 282.318 C 175.727 285.587,178.193 287.104,185.709 289.030 C 188.723 289.802,189.688 290.668,192.549 295.165 L 194.098 297.600 200.210 297.600 L 206.321 297.600 207.260 296.137 C 207.777 295.333,208.572 294.075,209.026 293.342 C 210.969 290.207,211.816 289.655,216.600 288.399 C 222.360 286.888,224.364 285.639,225.000 283.168 C 225.874 279.768,229.209 277.008,233.853 275.841 L 237.394 274.951 237.676 273.375 C 238.116 270.921,238.089 266.020,237.623 263.645 C 237.390 262.460,237.200 261.428,237.200 261.351 C 237.200 260.930,230.786 261.818,229.600 262.402 C 228.830 262.781,227.490 263.322,226.623 263.602 C 224.769 264.202,224.074 264.812,222.669 267.068 C 220.830 270.021,219.625 270.624,213.694 271.561 C 202.730 273.294,184.423 272.342,180.604 269.839 C 180.065 269.486,178.901 268.239,178.017 267.069 C 177.133 265.898,176.003 264.733,175.505 264.480 C 173.058 263.235,163.200 260.730,163.200 261.353 " stroke="none" fill="#f9fafb" fill-rule="evenodd"></path><path id="path1" d="M187.600 26.369 C 184.850 26.948,181.594 27.919,180.365 28.526 C 177.486 29.948,170.360 32.000,168.300 32.000 C 166.664 32.000,160.271 32.826,155.564 33.645 C 153.959 33.925,152.771 34.358,152.528 34.752 C 152.308 35.108,151.633 36.300,151.027 37.400 C 149.626 39.945,148.264 41.385,146.443 42.244 C 145.649 42.619,144.769 43.252,144.486 43.651 C 144.203 44.050,143.351 44.671,142.592 45.031 C 141.833 45.391,140.842 46.284,140.390 47.017 C 139.779 48.004,138.637 48.794,135.968 50.074 L 132.370 51.800 131.755 54.000 C 130.354 59.015,129.923 59.985,128.560 61.181 C 127.797 61.852,126.947 62.400,126.672 62.400 C 125.650 62.400,124.888 64.614,124.606 68.400 C 124.058 75.752,122.684 80.217,120.369 82.165 C 119.726 82.706,119.200 83.315,119.200 83.519 C 119.200 84.488,116.659 89.884,115.387 91.618 L 113.958 93.565 113.722 100.482 C 113.592 104.287,113.620 109.173,113.783 111.340 L 114.081 115.281 115.788 116.036 C 116.727 116.451,119.484 117.221,121.916 117.747 L 126.338 118.703 126.574 117.759 C 126.705 117.240,127.439 116.188,128.206 115.421 C 128.973 114.654,129.600 113.913,129.600 113.775 C 129.600 110.675,135.794 108.594,146.800 107.995 C 155.271 107.535,156.923 107.291,159.600 106.111 C 160.810 105.577,163.813 104.630,166.274 104.004 C 168.875 103.344,171.806 102.283,173.274 101.471 C 175.954 99.989,178.001 99.470,183.800 98.802 C 185.780 98.574,189.020 98.122,191.000 97.798 C 192.980 97.473,197.336 97.037,200.681 96.828 C 207.686 96.391,208.081 96.245,209.194 93.695 C 210.339 91.068,214.656 87.054,218.182 85.338 C 221.650 83.651,224.776 81.557,224.790 80.913 C 224.806 80.151,227.507 77.639,228.608 77.362 C 229.153 77.225,229.600 76.868,229.600 76.568 C 229.600 72.728,234.032 69.264,238.307 69.763 C 242.384 70.238,248.169 73.806,248.986 76.348 C 249.116 76.752,250.149 77.246,251.698 77.645 C 257.407 79.116,260.182 80.741,261.205 83.213 C 261.460 83.828,262.200 84.552,262.850 84.821 C 263.500 85.090,264.295 85.690,264.617 86.155 C 264.938 86.620,266.358 88.170,267.771 89.600 C 271.073 92.941,272.943 96.981,273.652 102.302 L 274.138 105.953 276.169 106.430 C 277.286 106.693,278.650 107.129,279.200 107.399 C 279.750 107.670,281.165 108.015,282.344 108.165 C 283.523 108.316,284.895 108.706,285.392 109.032 L 286.297 109.624 286.586 103.246 C 286.976 94.637,286.633 91.139,285.252 89.640 C 284.673 89.012,283.570 87.253,282.800 85.732 C 281.966 84.083,280.915 82.649,280.200 82.183 C 278.040 80.774,275.332 73.350,274.583 66.780 L 274.375 64.960 272.196 64.503 C 270.998 64.252,269.429 63.788,268.709 63.472 C 267.989 63.156,265.795 62.520,263.834 62.058 C 260.217 61.207,257.200 59.648,257.200 58.630 C 257.200 57.712,255.102 56.229,252.778 55.502 C 251.580 55.128,248.868 54.277,246.750 53.611 C 244.633 52.945,242.599 52.400,242.230 52.400 C 240.012 52.400,238.282 50.352,237.803 47.161 C 237.427 44.651,237.379 44.611,234.066 44.030 C 229.619 43.250,227.626 40.971,226.644 35.544 C 226.312 33.712,225.515 33.349,220.200 32.609 C 219.320 32.486,217.610 32.214,216.400 32.005 C 215.190 31.795,213.596 31.523,212.859 31.399 C 210.841 31.061,208.646 29.805,207.355 28.249 C 205.160 25.606,195.563 24.693,187.600 26.369 M240.021 94.015 C 238.162 94.626,236.044 95.603,235.314 96.186 C 234.583 96.769,233.314 97.555,232.493 97.933 C 231.672 98.311,230.280 99.076,229.400 99.635 C 228.520 100.193,227.221 100.883,226.513 101.168 C 225.263 101.671,224.223 103.080,222.216 106.991 C 221.103 109.160,219.518 109.952,214.917 110.639 C 208.909 111.536,203.185 113.349,197.431 116.179 C 189.827 119.917,186.090 120.487,163.200 121.398 C 155.264 121.713,147.797 123.110,146.981 124.431 C 146.855 124.634,146.399 124.800,145.966 124.800 C 145.515 124.800,145.032 125.190,144.833 125.714 C 144.283 127.160,139.425 131.465,137.729 132.010 C 136.199 132.501,134.800 133.462,134.800 134.021 C 134.800 134.184,134.316 134.870,133.724 135.544 C 132.574 136.855,131.964 138.805,131.204 143.600 C 130.601 147.400,130.906 197.145,131.558 201.400 C 132.332 206.455,132.177 206.193,135.589 208.193 C 139.123 210.266,139.540 210.885,140.570 215.600 C 142.127 222.731,143.277 224.784,147.903 228.691 C 149.374 229.933,150.359 231.284,151.613 233.781 C 153.212 236.962,153.439 237.223,155.161 237.850 C 158.540 239.080,160.360 239.934,162.087 241.100 C 163.029 241.736,164.430 242.502,165.200 242.803 C 165.970 243.103,166.960 243.685,167.400 244.096 C 171.465 247.890,173.115 248.762,179.600 250.543 C 181.690 251.116,184.431 251.871,185.691 252.219 C 187.643 252.758,188.265 253.183,189.891 255.087 C 192.517 258.163,193.256 258.400,200.207 258.400 C 207.038 258.400,207.519 258.237,210.800 254.818 C 213.142 252.376,213.127 252.383,220.800 250.391 C 226.272 248.971,228.774 247.789,231.283 245.439 C 232.538 244.263,234.328 242.996,235.260 242.623 C 236.191 242.250,237.414 241.620,237.977 241.224 C 239.381 240.234,243.067 238.400,243.652 238.400 C 245.694 238.400,247.328 236.945,248.824 233.798 C 249.691 231.973,251.003 229.972,251.873 229.147 C 252.713 228.351,254.235 226.912,255.255 225.950 C 257.457 223.872,258.861 220.605,259.616 215.800 C 260.413 210.725,261.090 209.681,264.790 207.825 L 267.930 206.250 268.406 203.025 C 269.427 196.111,269.572 191.234,269.582 163.400 C 269.596 128.346,269.336 124.919,266.463 122.285 C 264.855 120.809,261.600 117.006,261.600 116.602 C 261.600 116.461,260.700 114.318,259.600 111.838 C 258.500 109.359,257.600 107.098,257.600 106.815 C 257.600 105.077,255.464 101.660,253.950 100.978 C 253.081 100.585,251.209 99.035,249.792 97.532 C 248.374 96.030,247.104 94.800,246.969 94.800 C 246.834 94.800,246.246 94.469,245.662 94.065 C 243.920 92.860,243.546 92.856,240.021 94.015 M244.800 96.807 C 244.800 97.499,248.453 101.200,249.136 101.200 C 249.340 101.200,250.113 102.004,250.853 102.988 C 251.594 103.971,252.380 104.786,252.600 104.799 C 254.521 104.915,257.413 110.733,258.795 117.260 C 259.760 121.820,260.716 123.826,262.952 125.983 C 263.968 126.964,264.800 127.922,264.800 128.112 C 264.800 128.301,265.565 129.364,266.500 130.472 L 268.200 132.488 268.200 163.459 C 268.200 184.292,268.065 194.522,267.787 194.714 C 267.197 195.123,264.800 198.490,264.800 198.911 C 264.800 199.105,264.161 200.227,263.380 201.403 C 262.600 202.579,261.498 204.410,260.932 205.471 C 260.366 206.532,259.560 208.048,259.140 208.840 C 258.719 209.633,258.035 212.243,257.619 214.640 C 256.521 220.969,255.719 222.518,252.400 224.726 C 248.484 227.331,244.800 230.862,244.800 232.010 C 244.800 234.397,243.212 237.070,241.494 237.573 C 240.562 237.845,239.192 238.420,238.450 238.850 C 237.707 239.280,235.833 239.899,234.283 240.225 C 231.198 240.874,229.217 241.904,228.268 243.353 C 227.366 244.729,225.170 245.730,219.791 247.216 C 211.940 249.385,209.432 250.838,208.103 253.986 C 207.138 256.270,206.791 256.375,200.200 256.375 C 193.608 256.375,193.259 256.269,192.300 253.986 C 191.331 251.678,189.422 250.166,186.263 249.207 C 184.688 248.729,182.320 248.003,181.000 247.595 C 179.680 247.187,177.814 246.648,176.853 246.398 C 174.934 245.899,174.845 245.841,171.819 243.099 C 170.081 241.525,169.246 241.088,166.960 240.559 C 165.442 240.207,163.120 239.403,161.800 238.773 C 160.480 238.143,158.920 237.515,158.334 237.379 C 157.223 237.120,156.270 235.401,155.163 231.656 C 154.660 229.954,151.052 226.514,148.244 225.057 C 145.038 223.393,143.922 221.351,142.602 214.729 C 142.083 212.129,141.349 209.416,140.970 208.701 C 140.591 207.985,139.913 206.680,139.463 205.800 C 139.013 204.920,138.545 204.110,138.422 204.000 C 137.875 203.507,136.390 201.163,135.365 199.173 C 134.749 197.978,133.785 196.384,133.223 195.631 L 132.200 194.262 132.200 169.332 L 132.200 144.402 135.600 141.099 C 138.175 138.598,139.291 137.167,140.200 135.202 C 140.860 133.774,141.935 132.155,142.589 131.603 C 143.244 131.051,144.091 130.292,144.473 129.917 C 144.854 129.541,145.861 128.879,146.710 128.446 C 147.559 128.013,148.498 127.363,148.798 127.003 C 150.616 124.812,155.823 124.076,173.000 123.580 C 195.508 122.930,202.859 121.077,207.214 114.957 C 208.028 113.813,211.116 112.857,215.598 112.361 C 220.080 111.866,222.283 110.999,223.623 109.204 C 224.160 108.484,225.319 107.244,226.198 106.448 C 227.077 105.651,228.517 104.262,229.398 103.360 C 230.279 102.458,231.661 101.503,232.470 101.239 C 234.706 100.507,240.246 97.418,241.854 96.007 C 243.382 94.665,244.800 95.050,244.800 96.807 M162.350 260.569 C 161.507 262.065,161.429 262.696,161.415 268.200 C 161.394 276.377,161.839 277.414,166.054 279.011 C 169.221 280.211,171.131 281.828,173.503 285.315 C 174.442 286.696,175.335 287.456,176.703 288.040 C 177.746 288.485,179.140 289.123,179.800 289.457 C 180.460 289.791,182.489 290.608,184.308 291.273 L 187.617 292.482 189.508 295.613 C 192.001 299.738,192.645 300.000,200.300 300.000 C 207.067 300.000,208.250 299.608,209.879 296.829 C 211.965 293.270,213.032 292.267,215.825 291.242 C 223.989 288.244,225.643 287.282,227.608 284.388 C 229.660 281.366,230.988 280.311,234.440 278.957 C 238.574 277.335,239.005 276.312,238.985 268.200 C 238.969 262.193,238.860 261.617,237.294 259.305 C 236.952 258.800,227.056 260.219,223.469 261.289 C 221.860 261.768,220.257 263.653,219.097 266.429 C 218.573 267.684,218.223 267.923,215.954 268.575 C 214.549 268.978,212.230 269.674,210.800 270.120 C 207.605 271.117,196.178 271.562,192.735 270.824 C 184.927 269.149,183.283 268.236,179.915 263.709 C 178.172 261.365,177.788 261.228,169.135 259.864 L 163.269 258.939 162.350 260.569 M170.800 262.852 C 175.817 264.394,176.140 264.583,178.017 267.069 C 178.901 268.239,180.065 269.486,180.604 269.839 C 184.423 272.342,202.730 273.294,213.694 271.561 C 219.625 270.624,220.830 270.021,222.669 267.068 C 224.074 264.812,224.769 264.202,226.623 263.602 C 227.490 263.322,228.830 262.781,229.600 262.402 C 230.786 261.818,237.200 260.930,237.200 261.351 C 237.200 261.428,237.390 262.460,237.623 263.645 C 238.089 266.020,238.116 270.921,237.676 273.375 L 237.394 274.951 233.853 275.841 C 229.209 277.008,225.874 279.768,225.000 283.168 C 224.364 285.639,222.360 286.888,216.600 288.399 C 211.816 289.655,210.969 290.207,209.026 293.342 C 208.572 294.075,207.777 295.333,207.260 296.137 L 206.321 297.600 200.210 297.600 L 194.098 297.600 192.549 295.165 C 189.688 290.668,188.723 289.802,185.709 289.030 C 178.193 287.104,175.727 285.587,174.799 282.318 C 173.902 279.154,171.227 277.118,166.239 275.803 L 163.006 274.951 162.724 273.376 C 162.284 270.921,162.311 266.020,162.777 263.645 C 163.010 262.460,163.200 261.429,163.200 261.353 C 163.200 260.980,167.419 261.812,170.800 262.852 M156.125 292.309 C 154.258 293.518,155.576 305.958,157.640 306.613 C 158.974 307.036,162.234 309.864,162.847 311.129 L 163.441 312.356 164.221 310.341 C 164.706 309.087,165.708 307.663,166.875 306.570 L 168.750 304.815 167.075 303.999 C 162.187 301.617,160.433 299.667,158.620 294.602 C 157.789 292.282,157.118 291.665,156.125 292.309 M242.414 292.774 C 242.186 293.199,242.000 293.751,242.000 294.000 C 242.000 295.785,239.208 300.319,237.488 301.327 C 236.481 301.918,235.410 302.647,235.109 302.948 C 234.807 303.250,233.976 303.799,233.261 304.168 L 231.962 304.840 233.736 306.813 C 234.711 307.898,235.864 309.502,236.297 310.378 C 237.079 311.958,237.088 311.963,237.522 311.010 C 237.992 309.980,241.529 307.003,242.742 306.618 C 244.449 306.076,245.882 293.332,244.346 292.358 C 243.477 291.808,242.860 291.941,242.414 292.774 M120.000 293.625 C 118.350 294.250,116.370 294.861,115.600 294.983 C 114.269 295.194,113.200 296.449,113.200 297.801 C 113.200 299.939,109.704 302.432,105.354 303.398 C 99.684 304.656,99.291 304.814,98.776 306.057 C 98.510 306.701,97.506 307.919,96.546 308.764 C 95.586 309.609,94.800 310.537,94.800 310.826 C 94.800 313.084,90.853 315.622,86.147 316.390 L 83.293 316.857 83.032 318.492 C 82.715 320.475,81.758 322.180,80.622 322.788 C 80.060 323.089,79.531 324.105,79.036 325.831 C 78.628 327.257,77.815 329.026,77.230 329.762 C 76.645 330.498,75.819 331.888,75.394 332.850 C 74.970 333.813,74.514 334.690,74.381 334.800 C 74.249 334.910,73.728 335.720,73.224 336.600 C 72.721 337.480,71.420 338.920,70.333 339.800 C 69.246 340.680,67.552 342.120,66.567 343.000 L 64.776 344.600 64.018 350.800 C 63.601 354.210,63.064 358.620,62.824 360.600 C 62.138 366.275,61.622 368.835,60.781 370.736 C 60.352 371.707,60.000 372.566,60.000 372.644 C 60.000 372.722,60.894 373.240,61.987 373.793 L 63.973 374.800 113.981 374.800 L 163.989 374.800 165.527 373.705 C 166.372 373.103,167.400 371.921,167.809 371.079 C 168.219 370.236,169.419 368.614,170.475 367.473 C 171.532 366.333,173.089 364.651,173.936 363.736 L 175.476 362.073 176.131 356.336 C 176.491 353.181,176.894 349.160,177.026 347.400 C 177.510 340.935,178.268 338.125,180.053 336.167 C 181.494 334.588,176.578 332.905,173.708 333.996 C 172.555 334.434,170.014 334.853,167.480 335.022 C 163.339 335.300,163.200 335.340,163.200 336.246 C 163.200 338.604,160.489 342.242,157.322 344.134 C 155.227 345.386,146.761 341.268,145.251 338.263 C 144.729 337.224,143.515 335.728,142.553 334.940 C 140.614 333.352,139.559 330.743,139.017 326.200 C 138.859 324.880,138.203 322.689,137.560 321.332 C 136.798 319.725,136.246 317.700,135.978 315.532 C 135.752 313.699,135.395 311.331,135.184 310.269 C 134.973 309.208,134.800 307.576,134.800 306.643 C 134.800 305.118,134.537 304.655,132.200 302.060 C 130.770 300.473,129.600 298.899,129.600 298.562 C 129.600 298.226,129.015 296.706,128.300 295.184 L 127.000 292.416 125.000 292.453 C 123.858 292.474,121.713 292.977,120.000 293.625 M271.224 296.851 C 270.028 299.289,268.807 301.376,268.511 301.490 C 267.006 302.067,265.695 304.994,265.235 308.804 C 264.982 310.892,264.607 314.002,264.401 315.716 C 264.157 317.740,263.600 319.723,262.813 321.373 C 261.974 323.130,261.600 324.518,261.600 325.870 C 261.600 329.522,259.563 334.789,258.147 334.797 C 257.521 334.801,254.800 337.871,254.800 338.572 C 254.800 339.415,252.927 340.738,251.048 341.222 C 250.142 341.456,248.099 342.280,246.510 343.053 C 243.326 344.603,243.516 344.634,240.520 342.065 C 238.452 340.293,237.200 338.097,237.200 336.246 C 237.200 335.341,237.059 335.300,232.981 335.027 C 230.631 334.869,227.794 334.411,226.576 333.992 C 224.268 333.198,224.264 333.198,220.262 334.764 L 219.125 335.209 220.313 336.562 C 222.033 338.521,222.706 340.780,223.183 346.200 C 224.389 359.893,224.787 362.034,226.488 364.000 C 228.223 366.003,228.210 365.990,230.361 368.128 C 231.206 368.968,232.224 370.325,232.622 371.143 C 233.020 371.961,233.972 373.119,234.737 373.715 L 236.129 374.800 286.510 374.800 L 336.892 374.800 338.841 373.739 L 340.790 372.678 340.044 371.439 C 339.259 370.138,338.553 368.130,338.246 366.330 C 337.773 363.554,337.211 359.154,337.029 356.800 C 336.789 353.683,335.671 344.715,335.512 344.631 C 335.450 344.599,334.560 343.903,333.533 343.086 C 332.506 342.269,331.496 341.600,331.289 341.600 C 330.559 341.600,328.074 338.912,327.190 337.167 C 326.698 336.195,325.985 334.950,325.606 334.400 C 325.227 333.850,324.804 332.935,324.667 332.366 C 324.530 331.798,323.898 330.678,323.262 329.878 C 322.626 329.078,321.772 327.257,321.364 325.831 C 320.821 323.936,320.360 323.100,319.647 322.720 C 318.674 322.201,317.225 319.594,317.209 318.333 C 317.199 317.615,314.926 316.635,312.265 316.201 C 309.766 315.793,307.712 314.484,306.508 312.530 C 305.898 311.542,304.636 309.843,303.702 308.755 C 302.768 307.667,301.713 306.334,301.358 305.792 C 300.687 304.767,299.613 304.379,295.200 303.565 C 289.949 302.596,288.482 301.542,287.127 297.766 C 286.254 295.331,286.164 295.231,284.611 294.978 C 283.725 294.834,281.650 294.195,280.000 293.560 C 278.263 292.890,276.242 292.407,275.200 292.411 L 273.400 292.418 271.224 296.851 " stroke="none" fill="#b4dcfc" fill-rule="evenodd"></path><path id="path2" d="M149.600 3.882 C 145.694 4.292,145.225 5.001,144.955 10.902 C 144.843 13.366,144.717 15.415,144.676 15.455 C 144.634 15.495,140.960 15.589,136.511 15.664 C 126.944 15.825,126.975 15.812,126.547 19.908 C 126.402 21.292,126.089 22.406,125.843 22.414 C 118.479 22.646,115.000 25.423,114.519 31.456 L 114.291 34.311 112.246 34.614 C 111.121 34.780,109.810 34.879,109.333 34.834 C 108.857 34.789,108.317 35.008,108.133 35.322 C 107.950 35.635,107.216 36.190,106.501 36.555 C 104.675 37.489,101.885 45.914,102.546 48.500 C 102.645 48.885,102.562 49.200,102.363 49.200 C 102.163 49.200,102.000 50.100,102.000 51.200 C 102.000 53.160,101.976 53.200,100.787 53.200 C 97.646 53.200,95.765 55.083,96.089 57.900 C 96.172 58.615,96.096 59.200,95.921 59.200 C 95.746 59.200,95.604 88.360,95.606 124.000 C 95.608 159.640,95.751 188.800,95.924 188.800 C 96.098 188.800,96.167 189.420,96.079 190.177 C 95.850 192.131,97.469 193.750,99.423 193.521 C 100.180 193.433,100.800 193.504,100.800 193.680 C 100.800 193.856,101.301 194.000,101.914 194.000 C 103.000 194.000,103.040 194.080,103.466 197.100 C 104.285 202.896,106.458 205.105,111.954 205.730 C 113.139 205.865,114.164 206.031,114.232 206.099 C 114.301 206.167,114.441 210.088,114.543 214.812 C 114.761 224.813,114.760 224.800,115.142 224.800 C 115.303 224.800,115.644 225.586,115.901 226.547 C 116.218 227.729,116.828 228.666,117.791 229.447 C 118.573 230.081,120.110 231.453,121.207 232.495 C 122.654 233.871,123.640 234.461,124.801 234.646 L 126.400 234.902 126.400 238.251 C 126.400 242.573,126.907 243.200,130.400 243.200 C 132.533 243.200,132.800 243.289,132.800 244.000 C 132.800 244.440,132.935 244.800,133.100 244.801 C 133.265 244.802,133.411 246.287,133.424 248.101 C 133.468 254.302,134.544 255.030,143.900 255.185 C 144.767 255.199,144.800 255.335,144.800 258.863 L 144.800 262.526 136.000 262.280 C 131.160 262.145,127.200 262.162,127.201 262.317 C 127.201 262.473,125.738 262.541,123.948 262.468 C 116.758 262.176,111.266 263.711,109.914 266.390 C 109.046 268.110,108.110 269.046,106.390 269.914 C 105.506 270.360,104.691 271.264,104.061 272.500 C 103.117 274.350,103.043 274.400,101.246 274.407 C 86.184 274.460,85.113 274.935,84.357 281.902 L 83.870 286.400 82.035 286.432 C 77.890 286.506,77.130 286.818,77.248 288.400 C 77.272 288.730,77.272 289.900,77.247 291.000 L 77.202 293.000 74.401 292.867 C 72.860 292.794,71.600 292.884,71.600 293.067 C 71.600 293.250,70.594 293.400,69.365 293.400 C 66.493 293.400,65.037 294.775,65.275 297.264 C 65.355 298.109,65.270 298.800,65.085 298.800 C 64.901 298.800,64.782 299.115,64.821 299.500 C 64.860 299.885,64.871 301.235,64.846 302.500 L 64.800 304.800 61.800 304.800 C 60.150 304.800,58.800 304.940,58.800 305.111 C 58.800 305.281,58.109 305.355,57.264 305.275 C 54.623 305.023,53.391 306.470,53.437 309.767 C 53.458 311.215,53.323 312.400,53.137 312.400 C 52.952 312.400,52.800 313.480,52.800 314.800 L 52.800 317.200 51.600 317.200 C 50.940 317.200,50.400 317.355,50.400 317.545 C 50.400 317.734,49.968 317.806,49.439 317.705 C 48.135 317.456,46.656 318.935,46.905 320.239 C 47.006 320.768,46.946 321.200,46.771 321.200 C 46.596 321.200,46.438 324.383,46.420 328.273 C 46.402 332.164,46.343 335.391,46.289 335.445 C 46.235 335.499,44.573 335.663,42.595 335.810 C 37.692 336.173,36.138 336.618,35.299 337.898 C 34.537 339.060,34.183 395.515,34.933 396.266 C 35.579 396.913,364.138 396.880,365.023 396.232 C 366.035 395.492,366.252 343.157,365.258 339.292 C 364.572 336.622,364.168 336.416,358.652 335.920 C 356.203 335.700,354.158 335.481,354.106 335.433 C 354.055 335.385,353.998 332.253,353.980 328.473 C 353.962 324.693,353.810 321.600,353.643 321.600 C 353.475 321.600,353.415 321.078,353.509 320.440 C 353.743 318.843,352.357 317.457,350.760 317.691 C 350.122 317.785,349.600 317.713,349.600 317.531 C 349.600 317.349,349.174 317.200,348.654 317.200 C 347.637 317.200,347.203 315.604,347.198 311.844 C 347.191 306.572,344.923 304.908,337.639 304.834 C 336.451 304.822,335.432 304.764,335.376 304.706 C 335.291 304.618,334.845 297.518,334.773 295.093 C 334.742 294.069,333.010 293.060,331.803 293.364 C 331.193 293.517,330.800 293.445,330.800 293.180 C 330.800 292.888,329.549 292.787,326.999 292.873 L 323.198 293.000 323.153 291.000 C 323.128 289.900,323.128 288.730,323.152 288.400 C 323.270 286.814,322.512 286.505,318.329 286.432 L 316.458 286.400 316.177 284.100 C 315.570 279.121,314.599 276.969,312.494 275.940 C 310.578 275.003,309.895 274.914,301.687 274.525 L 297.173 274.311 296.635 273.022 C 296.018 271.545,294.209 269.600,293.452 269.600 C 292.770 269.600,291.301 268.002,290.470 266.358 C 289.152 263.747,282.723 262.063,275.608 262.464 C 274.283 262.539,273.199 262.474,273.199 262.320 C 273.200 262.166,269.150 262.149,264.200 262.283 L 255.200 262.526 255.200 258.863 L 255.200 255.200 256.500 255.186 C 257.215 255.178,258.880 255.084,260.200 254.977 C 261.520 254.870,263.101 254.789,263.713 254.798 C 266.346 254.837,267.385 252.880,267.130 248.363 C 267.044 246.844,267.115 245.600,267.287 245.600 C 267.459 245.600,267.600 245.060,267.600 244.400 L 267.600 243.200 270.000 243.200 C 273.508 243.200,274.000 242.581,274.000 238.173 L 274.000 234.747 275.836 232.620 C 276.846 231.451,278.846 229.807,280.281 228.968 C 282.669 227.571,283.643 226.542,285.507 223.443 C 285.786 222.979,285.993 221.970,285.968 221.200 C 285.724 213.726,286.045 206.000,286.600 206.000 C 286.930 206.000,287.200 205.845,287.200 205.655 C 287.200 205.466,287.647 205.396,288.193 205.501 C 289.452 205.741,291.304 205.291,291.010 204.816 C 290.887 204.618,290.998 204.325,291.255 204.166 C 291.548 203.985,291.616 204.050,291.438 204.338 C 290.884 205.235,291.617 204.782,293.121 203.300 C 294.882 201.563,295.800 199.766,296.466 196.748 C 297.070 194.005,297.323 193.698,298.792 193.914 C 299.457 194.011,300.000 193.922,300.000 193.715 C 300.000 193.508,300.529 193.416,301.176 193.511 C 302.831 193.754,304.554 192.031,304.311 190.376 C 304.216 189.729,304.285 189.200,304.465 189.200 C 304.644 189.200,304.792 160.310,304.794 125.000 C 304.796 89.557,304.644 60.800,304.454 60.800 C 304.265 60.800,304.181 60.395,304.266 59.900 C 304.824 56.665,302.586 53.777,299.328 53.530 C 298.628 53.477,298.144 53.291,298.251 53.117 C 298.359 52.943,298.282 52.800,298.079 52.800 C 297.877 52.800,297.794 52.363,297.896 51.830 C 298.416 49.113,295.915 46.417,293.332 46.911 C 292.820 47.009,292.400 46.959,292.400 46.799 C 292.400 46.639,291.012 46.477,289.316 46.437 C 285.565 46.350,285.808 46.599,285.943 42.983 C 286.005 41.333,285.888 40.000,285.683 40.000 C 285.478 40.000,285.396 39.553,285.501 39.007 C 285.741 37.748,285.291 35.896,284.816 36.190 C 284.618 36.313,284.325 36.202,284.166 35.945 C 283.975 35.635,284.051 35.584,284.390 35.794 C 284.733 36.006,284.842 35.926,284.719 35.556 C 284.617 35.250,284.008 34.951,283.367 34.892 C 279.982 34.578,273.580 34.410,264.900 34.405 L 255.200 34.400 255.186 31.500 C 255.126 19.303,253.824 16.925,246.974 16.498 C 245.105 16.381,243.481 16.131,243.365 15.943 C 243.248 15.754,242.535 15.600,241.780 15.600 C 240.492 15.600,240.334 15.446,239.200 13.100 C 238.536 11.725,237.731 10.150,237.411 9.600 C 237.092 9.050,236.725 7.924,236.596 7.097 C 236.293 5.150,235.301 4.525,231.700 4.014 C 229.034 3.636,153.106 3.514,149.600 3.882 M215.309 18.425 C 220.550 19.050,221.469 19.757,223.671 24.867 L 224.993 27.934 227.378 28.403 C 230.240 28.966,233.977 30.320,234.720 31.063 C 235.015 31.358,235.406 31.600,235.588 31.600 C 236.137 31.600,239.904 35.462,240.132 36.259 C 240.511 37.579,241.550 42.949,241.796 44.854 C 242.213 48.085,241.039 47.838,260.465 48.780 C 269.397 49.213,269.286 49.161,271.682 54.000 C 272.716 56.090,273.571 58.010,273.582 58.267 C 273.592 58.524,274.541 58.935,275.691 59.182 C 278.720 59.832,281.149 61.381,281.880 63.129 C 282.214 63.928,282.968 65.306,283.556 66.191 C 284.143 67.076,284.889 68.327,285.212 68.970 C 285.536 69.614,286.293 70.327,286.897 70.556 C 287.936 70.951,289.455 73.408,289.815 75.277 C 289.892 75.676,290.056 76.167,290.180 76.368 C 290.824 77.410,291.000 83.468,291.000 104.600 L 291.000 127.800 290.029 130.800 C 289.495 132.450,289.085 133.918,289.117 134.062 C 289.148 134.206,288.910 134.543,288.587 134.811 C 288.264 135.079,288.000 135.511,288.000 135.771 C 288.000 136.032,287.593 136.796,287.096 137.470 L 286.192 138.695 285.496 137.772 C 285.113 137.265,284.800 136.701,284.800 136.519 C 284.800 135.826,283.041 132.950,281.339 130.861 C 280.364 129.665,279.086 127.857,278.497 126.843 C 277.909 125.829,277.196 124.762,276.914 124.472 C 276.632 124.181,275.923 123.128,275.339 122.131 C 272.940 118.039,272.800 120.507,272.800 166.801 C 272.800 209.802,272.778 210.365,270.990 212.153 C 270.666 212.477,270.400 213.010,270.400 213.337 C 270.400 213.664,269.787 214.563,269.038 215.334 C 267.708 216.704,264.800 221.282,264.800 222.007 C 264.800 222.207,264.035 223.123,263.100 224.043 C 262.165 224.962,261.670 225.565,262.000 225.381 C 262.489 225.108,262.512 225.156,262.121 225.639 C 261.858 225.964,261.598 226.991,261.543 227.919 C 261.441 229.644,259.515 232.642,258.795 232.197 C 258.608 232.082,258.355 232.149,258.232 232.348 C 258.109 232.547,257.406 232.822,256.670 232.960 C 255.271 233.223,254.343 234.703,253.188 238.514 C 252.531 240.680,251.363 241.263,246.775 241.717 C 241.802 242.209,240.802 242.906,240.797 245.881 C 240.796 246.936,240.545 249.461,240.240 251.491 C 239.691 255.146,239.696 255.207,240.714 257.691 C 241.688 260.067,241.756 260.710,241.996 269.800 C 242.311 281.784,242.193 281.464,246.338 281.545 C 251.285 281.642,255.740 282.070,256.600 282.532 C 257.040 282.768,257.619 282.998,257.886 283.043 C 258.153 283.088,258.873 283.482,259.486 283.918 C 261.117 285.080,267.534 286.570,268.800 286.081 C 269.350 285.869,269.936 285.677,270.103 285.653 C 270.269 285.630,271.287 285.164,272.365 284.618 C 274.347 283.613,274.773 283.722,274.965 285.280 C 275.088 286.271,279.972 287.518,287.909 288.582 C 294.908 289.522,296.205 290.049,299.080 293.122 C 300.445 294.580,301.485 295.849,301.391 295.942 C 300.686 296.647,303.811 299.187,305.913 299.618 C 309.421 300.338,311.600 302.087,311.600 304.184 C 311.600 304.438,313.355 305.549,315.500 306.652 C 320.024 308.980,320.911 310.172,321.381 314.560 C 321.731 317.833,322.820 319.199,325.081 319.202 C 329.826 319.209,331.093 320.367,333.232 326.649 C 334.864 331.441,334.990 331.662,336.848 332.996 C 339.820 335.131,340.717 337.506,341.412 345.070 C 341.603 347.151,341.888 348.140,342.451 348.670 C 342.879 349.071,343.537 349.741,343.914 350.157 C 345.239 351.619,348.917 354.785,349.300 354.794 C 349.465 354.797,349.600 355.124,349.600 355.520 C 349.600 355.916,349.770 356.411,349.978 356.620 C 350.788 357.435,351.646 364.579,351.692 370.893 C 351.739 377.478,350.307 380.719,347.060 381.368 C 340.327 382.715,234.569 382.801,229.605 381.464 C 225.458 380.347,223.795 379.170,222.875 376.700 C 221.011 371.700,219.895 367.472,219.206 362.800 C 218.291 356.591,217.757 355.323,214.549 351.733 C 210.355 347.039,209.078 341.980,209.177 330.445 C 209.264 320.300,209.499 319.993,217.764 319.261 C 226.515 318.487,226.575 318.415,223.514 312.467 C 222.306 310.120,220.921 306.999,220.436 305.530 C 219.952 304.062,219.283 302.635,218.951 302.359 C 217.937 301.517,212.586 301.720,209.409 302.721 C 205.492 303.954,195.282 303.997,190.600 302.800 C 183.222 300.913,181.090 301.583,179.783 306.200 C 179.068 308.727,176.803 313.208,175.508 314.656 C 175.001 315.224,174.786 315.956,174.871 316.830 C 175.032 318.478,175.571 318.647,182.600 319.259 C 190.763 319.970,191.110 320.403,191.230 330.030 C 191.372 341.431,189.751 347.751,185.675 351.691 C 182.757 354.511,181.941 356.594,181.028 363.543 C 180.047 371.015,177.567 378.069,175.429 379.471 C 170.932 382.419,169.493 382.480,109.000 382.282 C 56.113 382.108,53.037 382.036,51.342 380.925 C 47.159 378.184,47.764 357.327,52.128 353.794 C 53.533 352.657,55.043 351.388,57.274 349.468 L 58.749 348.200 59.158 343.600 C 59.706 337.441,61.484 333.399,63.994 332.602 C 64.847 332.331,66.451 329.117,67.669 325.236 C 69.074 320.757,71.213 319.200,75.958 319.200 C 77.712 319.200,78.448 317.981,79.250 313.745 C 80.121 309.142,80.263 308.964,84.943 306.575 C 86.954 305.549,88.765 304.414,88.967 304.054 C 89.946 302.308,92.326 300.487,94.528 299.799 C 96.584 299.158,98.800 297.344,98.800 296.302 C 98.800 296.180,99.480 294.962,100.311 293.596 C 102.119 290.621,103.206 290.099,109.820 289.029 C 122.065 287.048,125.587 286.150,124.978 285.164 C 124.765 284.821,125.894 283.863,126.640 283.753 C 126.948 283.708,127.200 283.835,127.200 284.035 C 127.200 284.236,127.476 284.400,127.814 284.400 C 128.152 284.400,128.872 284.691,129.414 285.046 C 129.956 285.401,130.400 285.559,130.400 285.397 C 130.400 285.235,130.625 285.283,130.900 285.504 C 131.441 285.939,133.987 285.899,135.600 285.430 C 136.150 285.270,137.124 285.063,137.764 284.970 C 138.405 284.877,139.665 284.379,140.564 283.863 C 143.320 282.284,146.843 281.662,153.660 281.550 C 158.271 281.474,158.085 281.936,158.404 269.800 C 158.643 260.750,158.715 260.058,159.671 257.728 L 160.685 255.256 160.101 250.128 C 159.780 247.308,159.448 244.617,159.363 244.149 C 159.111 242.752,157.450 241.995,154.096 241.748 C 149.657 241.421,147.838 240.479,147.192 238.171 C 146.605 236.075,144.553 232.800,143.826 232.800 C 142.414 232.800,138.800 227.976,138.800 226.091 C 138.800 225.755,137.900 224.617,136.800 223.563 C 135.700 222.508,134.800 221.533,134.800 221.396 C 134.800 221.049,132.671 218.231,132.280 218.060 C 131.781 217.842,129.956 214.811,129.784 213.915 C 129.699 213.474,129.218 212.277,128.715 211.256 L 127.800 209.400 127.600 171.400 C 127.381 129.704,127.481 131.278,125.098 132.080 C 123.660 132.564,120.692 135.537,119.787 137.400 C 118.802 139.427,114.578 141.809,113.371 141.018 C 112.421 140.395,111.115 138.690,110.937 137.840 C 109.496 130.940,109.400 128.833,109.400 104.200 C 109.400 81.416,109.563 76.621,110.416 74.400 C 110.458 74.290,110.519 74.020,110.552 73.800 C 110.776 72.308,111.910 70.403,113.030 69.636 C 114.226 68.816,116.800 64.432,116.800 63.215 C 116.800 62.976,117.178 61.750,117.639 60.490 C 118.101 59.231,118.560 57.526,118.659 56.701 C 119.093 53.101,120.304 51.559,123.602 50.406 C 126.882 49.259,128.173 47.847,129.251 44.227 C 130.516 39.982,131.188 39.354,136.957 37.022 C 138.808 36.274,140.441 34.654,140.998 33.014 C 141.843 30.522,144.654 29.507,152.605 28.826 C 158.377 28.331,159.149 27.644,160.507 21.800 C 160.771 20.665,163.228 18.799,164.480 18.784 C 166.838 18.755,173.396 18.310,173.552 18.168 C 173.959 17.798,212.007 18.032,215.309 18.425 M108.087 37.132 C 107.439 38.785,104.800 41.417,104.800 40.411 C 104.800 39.828,105.427 38.898,106.467 37.939 C 108.369 36.183,108.481 36.126,108.087 37.132 M295.969 48.236 C 296.646 48.805,297.195 49.480,297.188 49.736 C 297.181 49.991,296.985 49.873,296.753 49.473 C 296.520 49.073,295.761 48.398,295.065 47.974 C 294.369 47.550,294.011 47.202,294.269 47.201 C 294.527 47.201,295.292 47.666,295.969 48.236 M234.653 82.511 L 232.706 83.412 234.400 85.106 C 235.991 86.697,236.410 86.942,237.400 86.863 C 240.623 86.605,244.623 85.895,245.850 85.362 C 250.072 83.529,250.069 83.542,246.438 82.439 C 242.521 81.249,237.312 81.281,234.653 82.511 M254.967 92.669 C 254.839 93.071,254.563 93.828,254.352 94.352 C 253.945 95.365,254.804 96.800,255.818 96.800 C 256.632 96.800,258.248 95.253,257.794 94.908 C 257.570 94.739,256.895 94.001,256.293 93.269 C 255.341 92.110,255.169 92.032,254.967 92.669 M223.287 94.356 C 221.905 95.539,221.955 95.753,223.844 96.731 C 224.530 97.086,224.919 96.998,225.923 96.257 L 227.158 95.346 226.163 94.273 C 224.947 92.962,224.915 92.963,223.287 94.356 M266.640 104.840 C 266.055 106.418,265.627 107.751,265.688 107.801 C 266.612 108.552,267.738 108.825,268.021 108.366 C 268.287 107.935,268.091 102.450,267.797 102.085 C 267.745 102.022,267.225 103.262,266.640 104.840 M153.000 112.659 C 146.827 113.375,144.164 113.931,144.660 114.403 C 145.646 115.340,153.117 116.089,159.000 115.841 C 165.937 115.548,180.451 114.483,180.685 114.249 C 181.690 113.244,159.130 111.948,153.000 112.659 M131.900 124.887 C 131.088 125.903,131.515 127.739,132.529 127.589 C 137.777 126.816,138.505 125.735,134.600 124.513 C 132.572 123.878,132.722 123.857,131.900 124.887 M287.216 162.333 C 288.065 163.020,288.129 163.412,288.249 168.613 C 288.319 171.664,288.460 174.380,288.563 174.649 C 288.789 175.238,287.049 177.205,286.319 177.187 C 284.447 177.139,284.054 175.959,283.843 169.755 L 283.640 163.802 284.695 162.701 C 285.944 161.398,286.043 161.383,287.216 162.333 M115.334 163.127 C 115.851 163.699,115.987 164.662,115.968 167.627 C 115.954 169.702,116.106 172.324,116.304 173.453 C 116.659 175.466,116.640 175.528,115.370 176.541 L 114.075 177.574 113.001 176.729 C 112.050 175.981,111.955 175.696,112.174 174.242 C 112.310 173.339,112.525 170.530,112.652 168.000 C 112.930 162.484,113.619 161.232,115.334 163.127 M173.400 254.495 C 170.210 255.274,170.190 255.391,173.113 256.149 C 175.838 256.856,175.942 256.855,177.651 256.094 L 179.400 255.315 177.675 254.835 C 176.726 254.571,175.736 254.299,175.475 254.230 C 175.214 254.161,174.280 254.280,173.400 254.495 M223.000 254.743 L 221.000 255.324 222.763 256.105 C 224.397 256.828,230.276 256.143,229.457 255.324 C 228.684 254.551,224.850 254.206,223.000 254.743 M194.000 267.600 C 194.000 267.849,196.333 268.000,200.200 268.000 C 204.067 268.000,206.400 267.849,206.400 267.600 C 206.400 267.351,204.067 267.200,200.200 267.200 C 196.333 267.200,194.000 267.351,194.000 267.600 M162.300 284.714 C 160.331 284.963,160.193 286.148,161.987 287.391 C 163.610 288.516,163.925 288.488,165.484 287.086 L 166.368 286.290 165.484 285.613 C 164.342 284.739,163.652 284.544,162.300 284.714 M236.017 284.872 C 233.871 285.666,233.839 286.851,235.933 287.966 C 237.224 288.654,240.205 286.731,239.600 285.600 C 239.164 284.786,237.283 284.404,236.017 284.872 M255.057 292.000 C 254.942 292.550,254.741 293.990,254.609 295.200 C 254.477 296.410,253.995 299.178,253.536 301.351 C 252.728 305.181,252.723 305.414,253.372 308.951 C 255.195 318.893,255.496 319.434,256.173 314.000 C 256.324 312.790,256.732 310.463,257.080 308.828 C 258.028 304.373,257.225 293.682,255.796 291.727 C 255.298 291.046,255.252 291.064,255.057 292.000 M144.037 292.502 C 143.015 295.192,142.526 304.657,143.231 308.136 C 143.603 309.973,144.032 312.551,144.184 313.865 C 144.648 317.857,145.175 318.079,145.927 314.600 C 147.602 306.845,147.721 305.499,147.021 302.174 C 146.653 300.428,146.103 297.488,145.797 295.641 C 145.172 291.860,144.641 290.914,144.037 292.502 M174.357 292.265 C 173.827 292.406,173.771 292.732,174.040 294.118 C 174.219 295.043,174.373 296.453,174.383 297.251 C 174.403 298.992,175.053 299.639,176.303 299.166 C 177.167 298.838,177.196 298.685,176.953 295.712 C 176.663 292.152,176.347 291.733,174.357 292.265 M224.134 292.309 C 223.136 292.944,223.282 298.983,224.299 299.128 C 225.378 299.281,225.765 298.442,226.182 295.046 C 226.515 292.333,225.735 291.290,224.134 292.309 M235.800 321.498 C 231.375 321.861,228.992 322.971,230.301 324.060 C 231.345 324.928,235.493 327.351,238.084 328.607 C 240.980 330.011,241.927 331.032,242.790 333.678 L 243.482 335.800 245.288 332.000 C 249.942 322.206,249.814 323.104,246.680 322.233 C 244.741 321.694,238.531 321.275,235.800 321.498 M153.410 322.239 C 151.060 323.099,150.997 323.289,152.195 325.865 C 153.666 329.027,154.578 331.074,155.418 333.102 C 156.513 335.744,157.024 335.921,157.548 333.842 C 158.125 331.547,159.443 330.016,161.858 328.831 C 167.840 325.898,170.999 323.722,170.372 322.967 C 169.217 321.575,156.692 321.037,153.410 322.239 " stroke="none" fill="#5091cc" fill-rule="evenodd"></path><path id="path3" d="M180.600 21.609 C 177.405 21.942,175.405 22.595,174.349 23.651 C 173.947 24.053,173.029 24.634,172.309 24.943 C 171.589 25.252,170.425 26.028,169.723 26.668 C 168.847 27.465,167.661 27.993,165.948 28.346 C 164.575 28.630,162.584 29.301,161.525 29.838 C 160.365 30.426,157.731 31.128,154.900 31.605 C 148.054 32.758,145.931 33.823,144.355 36.896 C 142.839 39.853,139.295 42.930,135.790 44.333 C 132.761 45.545,132.529 45.726,131.662 47.551 C 131.157 48.615,130.202 50.143,129.540 50.946 C 128.878 51.749,127.788 53.440,127.118 54.703 C 125.269 58.189,124.249 59.993,122.815 62.318 C 122.097 63.483,121.170 65.758,120.757 67.373 C 119.410 72.632,117.389 76.863,115.244 78.919 C 112.819 81.242,112.506 82.399,112.188 90.200 C 111.903 97.202,111.878 114.944,112.152 116.400 C 112.255 116.950,112.454 119.116,112.593 121.214 C 112.895 125.772,112.901 125.813,113.581 127.639 L 114.117 129.078 115.958 128.545 C 116.971 128.252,119.761 127.785,122.157 127.506 L 126.514 127.000 127.957 123.706 C 130.254 118.462,131.472 117.037,135.092 115.356 C 136.801 114.563,138.561 113.583,139.001 113.180 C 142.047 110.390,145.148 109.937,166.200 109.205 C 186.101 108.512,186.724 108.390,190.600 104.413 C 193.804 101.126,194.257 100.929,201.309 99.763 C 210.175 98.297,213.272 96.720,222.268 89.093 C 224.694 87.036,226.217 85.404,226.764 84.274 C 229.038 79.578,233.565 77.738,241.245 78.389 C 251.306 79.243,255.106 81.187,258.465 87.199 C 261.321 92.312,262.188 93.225,266.503 95.670 C 269.782 97.529,270.998 99.736,271.765 105.220 C 272.431 109.988,272.917 110.698,276.370 111.957 C 280.680 113.528,283.340 116.377,284.443 120.600 C 286.298 127.706,286.453 127.814,287.023 122.400 C 287.151 121.190,287.503 117.950,287.806 115.200 C 288.194 111.678,288.321 106.239,288.236 96.800 C 288.098 81.428,288.121 81.549,284.645 78.372 C 282.485 76.397,281.278 74.308,278.769 68.200 C 277.284 64.584,276.484 63.741,272.800 61.906 C 271.148 61.084,269.122 59.552,267.243 57.706 C 265.617 56.108,264.075 54.800,263.818 54.800 C 263.560 54.800,262.848 54.277,262.236 53.637 C 261.623 52.998,260.554 52.367,259.861 52.236 C 259.167 52.104,258.150 51.903,257.600 51.787 C 255.895 51.430,248.732 50.828,246.000 50.812 C 242.059 50.789,240.012 49.103,239.045 45.084 C 238.302 41.994,237.148 39.674,236.241 39.446 C 235.729 39.318,233.801 37.755,231.955 35.974 C 228.972 33.095,225.421 30.800,223.949 30.800 C 222.989 30.800,216.546 27.445,215.056 26.169 C 214.176 25.416,213.280 24.800,213.066 24.800 C 212.851 24.800,212.086 24.350,211.364 23.800 C 210.643 23.250,209.921 22.800,209.758 22.800 C 209.596 22.800,209.115 22.485,208.690 22.100 C 207.845 21.335,186.764 20.967,180.600 21.609 M200.348 26.029 C 206.146 26.850,206.211 26.871,207.355 28.249 C 208.646 29.805,210.841 31.061,212.859 31.399 C 213.596 31.523,215.190 31.795,216.400 32.005 C 217.610 32.214,219.320 32.486,220.200 32.609 C 225.515 33.349,226.312 33.712,226.644 35.544 C 227.626 40.971,229.619 43.250,234.066 44.030 C 237.379 44.611,237.427 44.651,237.803 47.161 C 238.282 50.352,240.012 52.400,242.230 52.400 C 242.599 52.400,244.633 52.945,246.750 53.611 C 248.868 54.277,251.580 55.128,252.778 55.502 C 255.102 56.229,257.200 57.712,257.200 58.630 C 257.200 59.648,260.217 61.207,263.834 62.058 C 265.795 62.520,267.989 63.156,268.709 63.472 C 269.429 63.788,270.998 64.252,272.196 64.503 L 274.375 64.960 274.583 66.780 C 275.332 73.350,278.040 80.774,280.200 82.183 C 280.915 82.649,281.966 84.083,282.800 85.732 C 283.570 87.253,284.673 89.012,285.252 89.640 C 286.633 91.139,286.976 94.637,286.586 103.246 L 286.297 109.624 285.392 109.032 C 284.895 108.706,283.523 108.316,282.344 108.165 C 281.165 108.015,279.750 107.670,279.200 107.399 C 278.650 107.129,277.286 106.693,276.169 106.430 L 274.138 105.953 273.652 102.302 C 272.943 96.981,271.073 92.941,267.771 89.600 C 266.358 88.170,264.938 86.620,264.617 86.155 C 264.295 85.690,263.500 85.090,262.850 84.821 C 262.200 84.552,261.460 83.828,261.205 83.213 C 260.182 80.741,257.407 79.116,251.698 77.645 C 250.149 77.246,249.116 76.752,248.986 76.348 C 248.169 73.806,242.384 70.238,238.307 69.763 C 234.032 69.264,229.600 72.728,229.600 76.568 C 229.600 76.868,229.153 77.225,228.608 77.362 C 227.507 77.639,224.806 80.151,224.790 80.913 C 224.776 81.557,221.650 83.651,218.182 85.338 C 214.656 87.054,210.339 91.068,209.194 93.695 C 208.081 96.245,207.686 96.391,200.681 96.828 C 197.336 97.037,192.980 97.473,191.000 97.798 C 189.020 98.122,185.780 98.574,183.800 98.802 C 178.001 99.470,175.954 99.989,173.274 101.471 C 171.806 102.283,168.875 103.344,166.274 104.004 C 163.813 104.630,160.810 105.577,159.600 106.111 C 156.923 107.291,155.271 107.535,146.800 107.995 C 135.794 108.594,129.600 110.675,129.600 113.775 C 129.600 113.913,128.973 114.654,128.206 115.421 C 127.439 116.188,126.705 117.240,126.574 117.759 L 126.338 118.703 121.916 117.747 C 119.484 117.221,116.727 116.451,115.788 116.036 L 114.081 115.281 113.783 111.340 C 113.620 109.173,113.592 104.287,113.722 100.482 L 113.958 93.565 115.387 91.618 C 116.659 89.884,119.200 84.488,119.200 83.519 C 119.200 83.315,119.726 82.706,120.369 82.165 C 122.684 80.217,124.058 75.752,124.606 68.400 C 124.888 64.614,125.650 62.400,126.672 62.400 C 126.947 62.400,127.797 61.852,128.560 61.181 C 129.923 59.985,130.354 59.015,131.755 54.000 L 132.370 51.800 135.968 50.074 C 138.637 48.794,139.779 48.004,140.390 47.017 C 140.842 46.284,141.833 45.391,142.592 45.031 C 143.351 44.671,144.203 44.050,144.486 43.651 C 144.769 43.252,145.649 42.619,146.443 42.244 C 148.264 41.385,149.626 39.945,151.027 37.400 C 151.633 36.300,152.308 35.108,152.528 34.752 C 152.771 34.358,153.959 33.925,155.564 33.645 C 160.271 32.826,166.664 32.000,168.300 32.000 C 170.360 32.000,177.486 29.948,180.365 28.526 C 182.332 27.554,190.951 25.418,193.548 25.258 C 194.069 25.226,197.129 25.573,200.348 26.029 M241.800 91.050 C 236.473 92.363,234.932 93.056,231.431 95.710 C 229.434 97.223,226.489 99.093,224.887 99.865 C 221.615 101.441,221.146 101.994,220.187 105.400 C 219.815 106.720,219.386 107.936,219.234 108.102 C 218.890 108.475,208.931 110.270,203.045 111.020 C 197.803 111.687,196.245 112.162,195.282 113.386 C 192.949 116.352,185.705 117.809,168.400 118.791 C 151.560 119.748,146.025 120.417,144.500 121.683 C 143.793 122.270,142.400 124.977,142.400 125.764 C 142.400 126.922,138.924 129.308,135.625 130.415 C 130.913 131.996,131.052 131.716,130.007 141.684 C 129.503 146.491,129.484 192.752,129.983 200.890 C 130.412 207.903,130.633 208.403,134.479 211.054 C 137.310 213.006,138.524 214.566,138.990 216.851 C 139.348 218.604,141.138 223.909,141.816 225.226 C 142.106 225.790,143.547 227.410,145.018 228.826 C 147.421 231.140,150.000 235.234,150.000 236.737 C 150.000 237.524,152.226 238.701,155.000 239.382 C 160.271 240.676,162.555 242.710,163.017 246.523 C 163.423 249.879,166.123 251.180,172.715 251.194 C 175.036 251.199,176.340 251.470,179.115 252.524 C 182.624 253.857,184.871 254.568,186.900 254.988 C 187.937 255.202,188.000 255.339,188.000 257.389 C 188.000 260.169,187.790 260.125,200.065 259.919 C 211.131 259.732,212.400 259.328,212.400 255.989 C 212.400 255.473,212.767 255.131,213.500 254.961 C 214.863 254.647,218.174 253.549,221.600 252.276 C 223.425 251.598,225.461 251.231,228.431 251.047 C 235.884 250.583,236.980 249.983,237.392 246.137 C 237.580 244.379,237.913 243.242,238.341 242.899 C 240.467 241.192,242.539 240.170,245.138 239.547 C 248.575 238.723,249.882 237.966,250.441 236.479 C 252.105 232.053,253.866 229.555,256.513 227.873 C 258.415 226.663,260.219 222.027,261.600 214.800 L 262.020 212.600 265.290 210.800 C 271.038 207.636,270.759 210.240,270.606 161.200 C 270.467 116.834,270.526 117.219,263.177 112.932 C 261.567 111.993,260.026 108.980,259.347 105.444 C 258.717 102.159,257.984 100.919,256.239 100.190 C 254.223 99.348,250.963 96.190,250.238 94.378 C 249.310 92.060,244.846 90.299,241.800 91.050 M245.662 94.065 C 246.246 94.469,246.834 94.800,246.969 94.800 C 247.104 94.800,248.374 96.030,249.792 97.532 C 251.209 99.035,253.081 100.585,253.950 100.978 C 255.464 101.660,257.600 105.077,257.600 106.815 C 257.600 107.098,258.500 109.359,259.600 111.838 C 260.700 114.318,261.600 116.461,261.600 116.602 C 261.600 117.006,264.855 120.809,266.463 122.285 C 269.336 124.919,269.596 128.346,269.582 163.400 C 269.572 191.234,269.427 196.111,268.406 203.025 L 267.930 206.250 264.790 207.825 C 261.090 209.681,260.413 210.725,259.616 215.800 C 258.861 220.605,257.457 223.872,255.255 225.950 C 254.235 226.912,252.713 228.351,251.873 229.147 C 251.003 229.972,249.691 231.973,248.824 233.798 C 247.328 236.945,245.694 238.400,243.652 238.400 C 243.067 238.400,239.381 240.234,237.977 241.224 C 237.414 241.620,236.191 242.250,235.260 242.623 C 234.328 242.996,232.538 244.263,231.283 245.439 C 228.774 247.789,226.272 248.971,220.800 250.391 C 213.127 252.383,213.142 252.376,210.800 254.818 C 207.519 258.237,207.038 258.400,200.207 258.400 C 193.256 258.400,192.517 258.163,189.891 255.087 C 188.265 253.183,187.643 252.758,185.691 252.219 C 184.431 251.871,181.690 251.116,179.600 250.543 C 173.115 248.762,171.465 247.890,167.400 244.096 C 166.960 243.685,165.970 243.103,165.200 242.803 C 164.430 242.502,163.029 241.736,162.087 241.100 C 160.360 239.934,158.540 239.080,155.161 237.850 C 153.439 237.223,153.212 236.962,151.613 233.781 C 150.359 231.284,149.374 229.933,147.903 228.691 C 143.277 224.784,142.127 222.731,140.570 215.600 C 139.540 210.885,139.123 210.266,135.589 208.193 C 132.177 206.193,132.332 206.455,131.558 201.400 C 130.906 197.145,130.601 147.400,131.204 143.600 C 131.964 138.805,132.574 136.855,133.724 135.544 C 134.316 134.870,134.800 134.184,134.800 134.021 C 134.800 133.462,136.199 132.501,137.729 132.010 C 139.425 131.465,144.283 127.160,144.833 125.714 C 145.032 125.190,145.515 124.800,145.966 124.800 C 146.399 124.800,146.855 124.634,146.981 124.431 C 147.797 123.110,155.264 121.713,163.200 121.398 C 186.090 120.487,189.827 119.917,197.431 116.179 C 203.185 113.349,208.909 111.536,214.917 110.639 C 219.518 109.952,221.103 109.160,222.216 106.991 C 224.223 103.080,225.263 101.671,226.513 101.168 C 227.221 100.883,228.520 100.193,229.400 99.635 C 230.280 99.076,231.672 98.311,232.493 97.933 C 233.314 97.555,234.583 96.769,235.314 96.186 C 236.797 95.002,243.069 92.786,244.000 93.117 C 244.330 93.234,245.078 93.661,245.662 94.065 M162.439 257.946 C 160.342 260.891,159.560 266.650,160.352 273.327 C 160.957 278.426,161.802 279.752,165.760 281.816 C 168.677 283.337,170.366 284.802,172.065 287.285 C 172.476 287.886,174.113 288.830,176.357 289.760 C 178.713 290.737,180.674 291.884,181.951 293.032 C 183.033 294.004,184.018 294.800,184.141 294.800 C 184.357 294.800,185.297 295.618,187.829 298.010 C 192.734 302.644,209.289 302.607,211.948 297.956 C 212.307 297.330,213.082 296.616,213.671 296.372 C 214.260 296.127,214.840 295.673,214.959 295.363 C 215.078 295.054,215.438 294.800,215.760 294.800 C 216.082 294.800,216.698 294.305,217.129 293.700 C 217.851 292.688,221.086 290.934,226.073 288.851 C 227.347 288.319,228.260 287.577,228.925 286.534 C 230.306 284.371,231.376 283.490,234.800 281.704 C 237.169 280.468,237.992 279.793,238.715 278.497 C 240.613 275.090,240.867 263.965,239.139 259.947 C 237.677 256.548,237.743 256.564,230.937 257.969 C 227.672 258.644,223.830 259.312,222.400 259.454 C 218.508 259.840,215.726 260.989,214.949 262.531 C 214.597 263.229,213.902 264.250,213.406 264.800 C 212.909 265.350,212.390 266.282,212.251 266.871 C 211.563 269.797,196.481 271.207,190.733 268.883 L 188.465 267.967 188.184 264.883 C 187.801 260.693,187.706 260.566,184.718 260.268 C 177.077 259.508,170.013 258.366,164.149 256.944 C 163.526 256.793,163.069 257.060,162.439 257.946 M176.715 261.251 C 178.057 261.612,178.754 262.147,179.915 263.709 C 183.283 268.236,184.927 269.149,192.735 270.824 C 196.178 271.562,207.605 271.117,210.800 270.120 C 212.230 269.674,214.549 268.978,215.954 268.575 C 218.223 267.923,218.573 267.684,219.097 266.429 C 220.257 263.653,221.860 261.768,223.469 261.289 C 227.056 260.219,236.952 258.800,237.294 259.305 C 238.860 261.617,238.969 262.193,238.985 268.200 C 239.005 276.312,238.574 277.335,234.440 278.957 C 230.988 280.311,229.660 281.366,227.608 284.388 C 225.643 287.282,223.989 288.244,215.825 291.242 C 213.032 292.267,211.965 293.270,209.879 296.829 C 208.250 299.608,207.067 300.000,200.300 300.000 C 192.645 300.000,192.001 299.738,189.508 295.613 L 187.617 292.482 184.308 291.273 C 182.489 290.608,180.460 289.791,179.800 289.457 C 179.140 289.123,177.746 288.485,176.703 288.040 C 175.335 287.456,174.442 286.696,173.503 285.315 C 171.131 281.828,169.221 280.211,166.054 279.011 C 161.839 277.414,161.394 276.377,161.415 268.200 C 161.429 262.696,161.507 262.065,162.350 260.569 L 163.269 258.939 169.135 259.864 C 172.361 260.373,175.772 260.997,176.715 261.251 M154.168 289.354 C 150.861 290.894,150.357 291.839,150.645 295.952 C 150.920 299.875,152.361 306.256,153.774 309.800 C 154.300 311.120,154.836 312.683,154.966 313.274 C 155.557 315.964,156.811 317.114,159.929 317.825 C 165.999 319.209,168.783 317.590,170.227 311.833 C 170.387 311.199,171.749 309.383,173.254 307.798 C 176.271 304.621,176.274 304.543,173.383 303.081 C 170.384 301.564,167.205 298.722,165.992 296.473 C 164.403 293.525,163.653 292.652,161.976 291.798 C 161.219 291.412,159.766 290.490,158.746 289.748 C 156.545 288.147,156.726 288.163,154.168 289.354 M241.800 289.645 C 240.920 290.318,239.371 291.292,238.358 291.811 C 237.003 292.505,236.013 293.491,234.612 295.541 C 232.628 298.446,228.364 302.449,226.110 303.524 C 224.268 304.402,224.450 305.072,227.335 308.028 C 228.729 309.457,230.003 311.157,230.166 311.807 C 231.529 317.237,234.165 319.024,239.392 318.061 C 242.950 317.405,243.950 316.972,244.359 315.908 C 251.240 298.031,251.653 291.795,246.118 289.347 C 243.490 288.184,243.733 288.168,241.800 289.645 M123.400 290.016 C 122.300 290.212,119.613 290.571,117.430 290.814 C 113.340 291.269,110.400 292.342,110.400 293.380 C 110.400 293.689,110.165 294.181,109.878 294.471 C 109.590 294.762,108.943 295.736,108.440 296.636 C 107.411 298.476,106.230 299.289,102.948 300.418 C 101.704 300.846,100.487 301.353,100.244 301.545 C 100.000 301.737,98.873 302.196,97.740 302.566 C 95.391 303.332,94.212 304.291,92.695 306.668 C 91.347 308.781,89.494 310.187,87.200 310.835 C 86.210 311.115,85.310 311.381,85.200 311.426 C 85.090 311.471,84.611 311.635,84.135 311.791 C 83.530 311.990,83.008 312.816,82.399 314.538 C 81.921 315.892,81.379 317.383,81.196 317.851 C 80.586 319.405,78.380 321.545,76.880 322.036 C 74.363 322.861,73.804 323.457,72.886 326.293 C 71.525 330.500,69.050 334.856,66.856 336.909 C 63.586 339.967,63.225 340.710,62.180 346.509 C 61.656 349.419,60.771 353.307,60.213 355.149 C 59.655 356.991,59.121 358.923,59.027 359.442 C 58.782 360.794,58.435 361.312,56.100 363.819 C 55.385 364.586,54.800 365.312,54.800 365.431 C 54.800 365.550,54.277 366.311,53.637 367.123 C 51.570 369.748,51.394 376.911,53.405 376.524 C 53.622 376.483,54.205 376.829,54.700 377.294 C 55.195 377.759,55.600 378.013,55.600 377.859 C 55.600 377.705,56.185 377.899,56.900 378.290 C 58.127 378.960,61.221 379.000,112.029 379.000 L 165.858 379.000 167.629 377.828 C 173.950 373.646,176.835 368.660,177.998 359.907 C 178.455 356.469,179.079 352.699,179.385 351.528 C 182.003 341.496,182.371 340.834,187.200 337.477 L 188.200 336.781 188.063 330.091 C 187.900 322.174,188.534 323.240,183.915 323.109 C 180.215 323.004,180.043 323.038,179.096 324.059 C 178.556 324.641,177.369 325.588,176.457 326.164 C 175.546 326.739,174.800 327.462,174.800 327.769 C 174.800 329.335,170.612 331.585,166.200 332.388 C 163.089 332.955,161.839 333.839,160.203 336.631 C 158.412 339.687,157.187 340.064,153.127 338.810 C 149.447 337.673,146.040 333.247,144.563 327.683 C 144.254 326.518,143.397 324.268,142.658 322.683 C 140.849 318.798,140.504 317.548,140.209 313.800 C 139.504 304.865,138.806 301.132,137.407 298.823 C 136.666 297.600,135.552 295.628,134.930 294.440 C 133.235 291.201,128.007 289.195,123.400 290.016 M270.800 290.645 C 269.370 291.198,267.750 291.786,267.200 291.952 C 266.022 292.309,264.722 294.108,263.753 296.723 C 263.370 297.755,262.756 299.050,262.389 299.600 C 261.609 300.766,261.007 304.467,260.374 311.991 C 259.964 316.867,259.037 320.830,257.987 322.200 C 257.818 322.420,257.010 324.400,256.190 326.600 C 253.009 335.143,251.321 337.345,246.883 338.746 C 242.944 339.989,241.988 339.687,240.197 336.631 C 238.574 333.862,237.320 332.985,234.200 332.437 C 229.820 331.669,225.684 329.343,225.022 327.275 C 224.903 326.904,223.994 326.088,223.002 325.463 C 222.010 324.837,221.034 324.032,220.834 323.674 C 220.519 323.112,213.074 322.776,212.569 323.301 C 212.517 323.356,212.413 326.403,212.337 330.073 L 212.200 336.745 215.263 339.673 C 217.713 342.013,218.421 342.961,218.800 344.400 C 219.060 345.390,219.690 347.550,220.200 349.200 C 221.411 353.118,221.437 353.248,222.415 360.213 C 223.249 366.151,224.344 369.748,225.598 370.664 C 225.947 370.920,227.306 372.567,228.617 374.325 C 232.516 379.556,225.480 379.000,287.769 379.000 L 341.800 379.000 344.000 377.498 C 348.484 374.438,348.879 373.802,348.265 370.641 C 347.924 368.886,344.634 363.961,342.760 362.400 C 341.785 361.588,339.243 352.456,337.997 345.290 C 337.219 340.818,337.260 340.899,333.970 337.392 C 332.727 336.067,331.302 334.177,330.803 333.192 C 330.304 332.206,329.591 330.950,329.218 330.400 C 328.845 329.850,328.055 328.044,327.461 326.386 C 326.359 323.309,325.627 322.569,322.931 321.810 C 321.753 321.479,319.281 318.678,318.959 317.310 C 318.815 316.700,318.354 315.382,317.935 314.382 C 317.145 312.500,317.146 312.500,312.639 310.775 C 310.280 309.872,309.114 308.854,307.393 306.193 C 306.678 305.089,305.668 303.974,305.147 303.716 C 303.316 302.809,298.583 300.890,297.000 300.412 C 293.510 299.360,292.000 298.665,292.000 298.111 C 292.000 294.150,288.584 291.455,282.722 290.791 C 280.696 290.562,277.860 290.203,276.420 289.995 C 273.220 289.532,273.884 289.455,270.800 290.645 M158.620 294.602 C 160.433 299.667,162.187 301.617,167.075 303.999 L 168.750 304.815 166.875 306.570 C 165.708 307.663,164.706 309.087,164.221 310.341 L 163.441 312.356 162.847 311.129 C 162.234 309.864,158.974 307.036,157.640 306.613 C 156.108 306.126,154.938 300.470,155.375 295.655 C 155.783 291.151,157.217 290.685,158.620 294.602 M244.346 292.358 C 245.882 293.332,244.449 306.076,242.742 306.618 C 241.529 307.003,237.992 309.980,237.522 311.010 C 237.088 311.963,237.079 311.958,236.297 310.378 C 235.864 309.502,234.711 307.898,233.736 306.813 L 231.962 304.840 233.261 304.168 C 233.976 303.799,234.807 303.250,235.109 302.948 C 235.410 302.647,236.481 301.918,237.488 301.327 C 239.208 300.319,242.000 295.785,242.000 294.000 C 242.000 292.498,243.219 291.644,244.346 292.358 M128.300 295.184 C 129.015 296.706,129.600 298.226,129.600 298.562 C 129.600 298.899,130.770 300.473,132.200 302.060 C 134.537 304.655,134.800 305.118,134.800 306.643 C 134.800 307.576,134.973 309.208,135.184 310.269 C 135.395 311.331,135.752 313.699,135.978 315.532 C 136.246 317.700,136.798 319.725,137.560 321.332 C 138.203 322.689,138.859 324.880,139.017 326.200 C 139.559 330.743,140.614 333.352,142.553 334.940 C 143.515 335.728,144.729 337.224,145.251 338.263 C 146.761 341.268,155.227 345.386,157.322 344.134 C 160.489 342.242,163.200 338.604,163.200 336.246 C 163.200 335.340,163.339 335.300,167.480 335.022 C 170.014 334.853,172.555 334.434,173.708 333.996 C 176.578 332.905,181.494 334.588,180.053 336.167 C 178.268 338.125,177.510 340.935,177.026 347.400 C 176.894 349.160,176.491 353.181,176.131 356.336 L 175.476 362.073 173.936 363.736 C 173.089 364.651,171.532 366.333,170.475 367.473 C 169.419 368.614,168.219 370.236,167.809 371.079 C 167.400 371.921,166.372 373.103,165.527 373.705 L 163.989 374.800 113.981 374.800 L 63.973 374.800 61.987 373.793 C 60.894 373.240,60.000 372.722,60.000 372.644 C 60.000 372.566,60.352 371.707,60.781 370.736 C 61.622 368.835,62.138 366.275,62.824 360.600 C 63.064 358.620,63.601 354.210,64.018 350.800 L 64.776 344.600 66.567 343.000 C 67.552 342.120,69.246 340.680,70.333 339.800 C 71.420 338.920,72.721 337.480,73.224 336.600 C 73.728 335.720,74.249 334.910,74.381 334.800 C 74.514 334.690,74.970 333.813,75.394 332.850 C 75.819 331.888,76.645 330.498,77.230 329.762 C 77.815 329.026,78.628 327.257,79.036 325.831 C 79.531 324.105,80.060 323.089,80.622 322.788 C 81.758 322.180,82.715 320.475,83.032 318.492 L 83.293 316.857 86.147 316.390 C 90.853 315.622,94.800 313.084,94.800 310.826 C 94.800 310.537,95.586 309.609,96.546 308.764 C 97.506 307.919,98.510 306.701,98.776 306.057 C 99.291 304.814,99.684 304.656,105.354 303.398 C 109.704 302.432,113.200 299.939,113.200 297.801 C 113.200 296.449,114.269 295.194,115.600 294.983 C 116.370 294.861,118.350 294.250,120.000 293.625 C 121.713 292.977,123.858 292.474,125.000 292.453 L 127.000 292.416 128.300 295.184 M280.000 293.560 C 281.650 294.195,283.725 294.834,284.611 294.978 C 286.164 295.231,286.254 295.331,287.127 297.766 C 288.482 301.542,289.949 302.596,295.200 303.565 C 299.613 304.379,300.687 304.767,301.358 305.792 C 301.713 306.334,302.768 307.667,303.702 308.755 C 304.636 309.843,305.898 311.542,306.508 312.530 C 307.712 314.484,309.766 315.793,312.265 316.201 C 314.926 316.635,317.199 317.615,317.209 318.333 C 317.225 319.594,318.674 322.201,319.647 322.720 C 320.360 323.100,320.821 323.936,321.364 325.831 C 321.772 327.257,322.626 329.078,323.262 329.878 C 323.898 330.678,324.530 331.798,324.667 332.366 C 324.804 332.935,325.227 333.850,325.606 334.400 C 325.985 334.950,326.698 336.195,327.190 337.167 C 328.074 338.912,330.559 341.600,331.289 341.600 C 331.496 341.600,332.506 342.269,333.533 343.086 C 334.560 343.903,335.450 344.599,335.512 344.631 C 335.671 344.715,336.789 353.683,337.029 356.800 C 337.211 359.154,337.773 363.554,338.246 366.330 C 338.553 368.130,339.259 370.138,340.044 371.439 L 340.790 372.678 338.841 373.739 L 336.892 374.800 286.510 374.800 L 236.129 374.800 234.737 373.715 C 233.972 373.119,233.020 371.961,232.622 371.143 C 232.224 370.325,231.206 368.968,230.361 368.128 C 224.435 362.238,224.655 362.911,223.183 346.200 C 222.706 340.780,222.033 338.521,220.313 336.562 L 219.125 335.209 220.262 334.764 C 224.264 333.198,224.268 333.198,226.576 333.992 C 227.794 334.411,230.631 334.869,232.981 335.027 C 237.059 335.300,237.200 335.341,237.200 336.246 C 237.200 338.097,238.452 340.293,240.520 342.065 C 243.516 344.634,243.326 344.603,246.510 343.053 C 248.099 342.280,250.142 341.456,251.048 341.222 C 252.927 340.738,254.800 339.415,254.800 338.572 C 254.800 337.871,257.521 334.801,258.147 334.797 C 259.563 334.789,261.600 329.522,261.600 325.870 C 261.600 324.518,261.974 323.130,262.813 321.373 C 263.600 319.723,264.157 317.740,264.401 315.716 C 264.607 314.002,264.982 310.892,265.235 308.804 C 265.695 304.994,267.006 302.067,268.511 301.490 C 268.807 301.376,270.028 299.289,271.224 296.851 L 273.400 292.418 275.200 292.411 C 276.242 292.407,278.263 292.890,280.000 293.560 " stroke="none" fill="#a0caf2" fill-rule="evenodd"></path><path id="path4" d="M173.552 18.168 C 173.396 18.310,166.838 18.755,164.480 18.784 C 163.228 18.799,160.771 20.665,160.507 21.800 C 159.149 27.644,158.377 28.331,152.605 28.826 C 144.654 29.507,141.843 30.522,140.998 33.014 C 140.441 34.654,138.808 36.274,136.957 37.022 C 131.188 39.354,130.516 39.982,129.251 44.227 C 128.173 47.847,126.882 49.259,123.602 50.406 C 120.304 51.559,119.093 53.101,118.659 56.701 C 118.560 57.526,118.101 59.231,117.639 60.490 C 117.178 61.750,116.800 62.976,116.800 63.215 C 116.800 64.432,114.226 68.816,113.030 69.636 C 111.910 70.403,110.776 72.308,110.552 73.800 C 110.519 74.020,110.458 74.290,110.416 74.400 C 109.563 76.621,109.400 81.416,109.400 104.200 C 109.400 128.833,109.496 130.940,110.937 137.840 C 111.115 138.690,112.421 140.395,113.371 141.018 C 114.578 141.809,118.802 139.427,119.787 137.400 C 120.692 135.537,123.660 132.564,125.098 132.080 C 127.481 131.278,127.381 129.704,127.600 171.400 L 127.800 209.400 128.715 211.256 C 129.218 212.277,129.699 213.474,129.784 213.915 C 129.956 214.811,131.781 217.842,132.280 218.060 C 132.671 218.231,134.800 221.049,134.800 221.396 C 134.800 221.533,135.700 222.508,136.800 223.563 C 137.900 224.617,138.800 225.755,138.800 226.091 C 138.800 227.976,142.414 232.800,143.826 232.800 C 144.553 232.800,146.605 236.075,147.192 238.171 C 147.838 240.479,149.657 241.421,154.096 241.748 C 157.450 241.995,159.111 242.752,159.363 244.149 C 159.448 244.617,159.780 247.308,160.101 250.128 L 160.685 255.256 159.671 257.728 C 158.715 260.058,158.643 260.750,158.404 269.800 C 158.085 281.936,158.271 281.474,153.660 281.550 C 146.843 281.662,143.320 282.284,140.564 283.863 C 139.665 284.379,138.405 284.877,137.764 284.970 C 137.124 285.063,136.150 285.270,135.600 285.430 C 133.987 285.899,131.441 285.939,130.900 285.504 C 130.625 285.283,130.400 285.235,130.400 285.397 C 130.400 285.559,129.956 285.401,129.414 285.046 C 128.872 284.691,128.152 284.400,127.814 284.400 C 127.476 284.400,127.200 284.236,127.200 284.035 C 127.200 283.835,126.948 283.708,126.640 283.753 C 125.894 283.863,124.765 284.821,124.978 285.164 C 125.587 286.150,122.065 287.048,109.820 289.029 C 103.206 290.099,102.119 290.621,100.311 293.596 C 99.480 294.962,98.800 296.180,98.800 296.302 C 98.800 297.344,96.584 299.158,94.528 299.799 C 92.326 300.487,89.946 302.308,88.967 304.054 C 88.765 304.414,86.954 305.549,84.943 306.575 C 80.263 308.964,80.121 309.142,79.250 313.745 C 78.448 317.981,77.712 319.200,75.958 319.200 C 71.213 319.200,69.074 320.757,67.669 325.236 C 66.451 329.117,64.847 332.331,63.994 332.602 C 61.484 333.399,59.706 337.441,59.158 343.600 L 58.749 348.200 57.274 349.468 C 55.043 351.388,53.533 352.657,52.128 353.794 C 47.764 357.327,47.159 378.184,51.342 380.925 C 53.037 382.036,56.113 382.108,109.000 382.282 C 169.493 382.480,170.932 382.419,175.429 379.471 C 177.567 378.069,180.047 371.015,181.028 363.543 C 181.941 356.594,182.757 354.511,185.675 351.691 C 189.751 347.751,191.372 341.431,191.230 330.030 C 191.110 320.403,190.763 319.970,182.600 319.259 C 175.571 318.647,175.032 318.478,174.871 316.830 C 174.786 315.956,175.001 315.224,175.508 314.656 C 176.803 313.208,179.068 308.727,179.783 306.200 C 181.090 301.583,183.222 300.913,190.600 302.800 C 195.282 303.997,205.492 303.954,209.409 302.721 C 212.586 301.720,217.937 301.517,218.951 302.359 C 219.283 302.635,219.952 304.062,220.436 305.530 C 220.921 306.999,222.306 310.120,223.514 312.467 C 226.575 318.415,226.515 318.487,217.764 319.261 C 209.499 319.993,209.264 320.300,209.177 330.445 C 209.078 341.980,210.355 347.039,214.549 351.733 C 217.757 355.323,218.291 356.591,219.206 362.800 C 219.895 367.472,221.011 371.700,222.875 376.700 C 223.795 379.170,225.458 380.347,229.605 381.464 C 234.569 382.801,340.327 382.715,347.060 381.368 C 350.307 380.719,351.739 377.478,351.692 370.893 C 351.646 364.579,350.788 357.435,349.978 356.620 C 349.770 356.411,349.600 355.916,349.600 355.520 C 349.600 355.124,349.465 354.797,349.300 354.794 C 348.917 354.785,345.239 351.619,343.914 350.157 C 343.537 349.741,342.879 349.071,342.451 348.670 C 341.888 348.140,341.603 347.151,341.412 345.070 C 340.717 337.506,339.820 335.131,336.848 332.996 C 334.990 331.662,334.864 331.441,333.232 326.649 C 331.093 320.367,329.826 319.209,325.081 319.202 C 322.820 319.199,321.731 317.833,321.381 314.560 C 320.911 310.172,320.024 308.980,315.500 306.652 C 313.355 305.549,311.600 304.438,311.600 304.184 C 311.600 302.087,309.421 300.338,305.913 299.618 C 303.811 299.187,300.686 296.647,301.391 295.942 C 301.485 295.849,300.445 294.580,299.080 293.122 C 296.205 290.049,294.908 289.522,287.909 288.582 C 279.972 287.518,275.088 286.271,274.965 285.280 C 274.773 283.722,274.347 283.613,272.365 284.618 C 271.287 285.164,270.269 285.630,270.103 285.653 C 269.936 285.677,269.350 285.869,268.800 286.081 C 267.534 286.570,261.117 285.080,259.486 283.918 C 258.873 283.482,258.153 283.088,257.886 283.043 C 257.619 282.998,257.040 282.768,256.600 282.532 C 255.740 282.070,251.285 281.642,246.338 281.545 C 242.193 281.464,242.311 281.784,241.996 269.800 C 241.756 260.710,241.688 260.067,240.714 257.691 C 239.696 255.207,239.691 255.146,240.240 251.491 C 240.545 249.461,240.796 246.936,240.797 245.881 C 240.802 242.906,241.802 242.209,246.775 241.717 C 251.363 241.263,252.531 240.680,253.188 238.514 C 254.343 234.703,255.271 233.223,256.670 232.960 C 257.406 232.822,258.109 232.547,258.232 232.348 C 258.355 232.149,258.608 232.082,258.795 232.197 C 259.515 232.642,261.441 229.644,261.543 227.919 C 261.598 226.991,261.858 225.964,262.121 225.639 C 262.512 225.156,262.489 225.108,262.000 225.381 C 261.670 225.565,262.165 224.962,263.100 224.043 C 264.035 223.123,264.800 222.207,264.800 222.007 C 264.800 221.282,267.708 216.704,269.038 215.334 C 269.787 214.563,270.400 213.664,270.400 213.337 C 270.400 213.010,270.666 212.477,270.990 212.153 C 272.778 210.365,272.800 209.802,272.800 166.801 C 272.800 120.507,272.940 118.039,275.339 122.131 C 275.923 123.128,276.632 124.181,276.914 124.472 C 277.196 124.762,277.909 125.829,278.497 126.843 C 279.086 127.857,280.364 129.665,281.339 130.861 C 283.041 132.950,284.800 135.826,284.800 136.519 C 284.800 136.701,285.113 137.265,285.496 137.772 L 286.192 138.695 287.096 137.470 C 287.593 136.796,288.000 136.032,288.000 135.771 C 288.000 135.511,288.264 135.079,288.587 134.811 C 288.910 134.543,289.148 134.206,289.117 134.062 C 289.085 133.918,289.495 132.450,290.029 130.800 L 291.000 127.800 291.000 104.600 C 291.000 83.468,290.824 77.410,290.180 76.368 C 290.056 76.167,289.892 75.676,289.815 75.277 C 289.455 73.408,287.936 70.951,286.897 70.556 C 286.293 70.327,285.536 69.614,285.212 68.970 C 284.889 68.327,284.143 67.076,283.556 66.191 C 282.968 65.306,282.214 63.928,281.880 63.129 C 281.149 61.381,278.720 59.832,275.691 59.182 C 274.541 58.935,273.592 58.524,273.582 58.267 C 273.571 58.010,272.716 56.090,271.682 54.000 C 269.286 49.161,269.397 49.213,260.465 48.780 C 241.039 47.838,242.213 48.085,241.796 44.854 C 241.550 42.949,240.511 37.579,240.132 36.259 C 239.904 35.462,236.137 31.600,235.588 31.600 C 235.406 31.600,235.015 31.358,234.720 31.063 C 233.977 30.320,230.240 28.966,227.378 28.403 L 224.993 27.934 223.671 24.867 C 221.469 19.757,220.550 19.050,215.309 18.425 C 212.007 18.032,173.959 17.798,173.552 18.168 M208.690 22.100 C 209.115 22.485,209.596 22.800,209.758 22.800 C 209.921 22.800,210.643 23.250,211.364 23.800 C 212.086 24.350,212.851 24.800,213.066 24.800 C 213.280 24.800,214.176 25.416,215.056 26.169 C 216.546 27.445,222.989 30.800,223.949 30.800 C 225.421 30.800,228.972 33.095,231.955 35.974 C 233.801 37.755,235.729 39.318,236.241 39.446 C 237.148 39.674,238.302 41.994,239.045 45.084 C 240.012 49.103,242.059 50.789,246.000 50.812 C 248.732 50.828,255.895 51.430,257.600 51.787 C 258.150 51.903,259.167 52.104,259.861 52.236 C 260.554 52.367,261.623 52.998,262.236 53.637 C 262.848 54.277,263.560 54.800,263.818 54.800 C 264.075 54.800,265.617 56.108,267.243 57.706 C 269.122 59.552,271.148 61.084,272.800 61.906 C 276.484 63.741,277.284 64.584,278.769 68.200 C 281.278 74.308,282.485 76.397,284.645 78.372 C 288.121 81.549,288.098 81.428,288.236 96.800 C 288.321 106.239,288.194 111.678,287.806 115.200 C 287.503 117.950,287.151 121.190,287.023 122.400 C 286.453 127.814,286.298 127.706,284.443 120.600 C 283.340 116.377,280.680 113.528,276.370 111.957 C 272.917 110.698,272.431 109.988,271.765 105.220 C 270.998 99.736,269.782 97.529,266.503 95.670 C 262.188 93.225,261.321 92.312,258.465 87.199 C 255.106 81.187,251.306 79.243,241.245 78.389 C 233.565 77.738,229.038 79.578,226.764 84.274 C 226.217 85.404,224.694 87.036,222.268 89.093 C 213.272 96.720,210.175 98.297,201.309 99.763 C 194.257 100.929,193.804 101.126,190.600 104.413 C 186.724 108.390,186.101 108.512,166.200 109.205 C 145.148 109.937,142.047 110.390,139.001 113.180 C 138.561 113.583,136.801 114.563,135.092 115.356 C 131.472 117.037,130.254 118.462,127.957 123.706 L 126.514 127.000 122.157 127.506 C 119.761 127.785,116.971 128.252,115.958 128.545 L 114.117 129.078 113.581 127.639 C 112.901 125.813,112.895 125.772,112.593 121.214 C 112.454 119.116,112.255 116.950,112.152 116.400 C 111.878 114.944,111.903 97.202,112.188 90.200 C 112.506 82.399,112.819 81.242,115.244 78.919 C 117.389 76.863,119.410 72.632,120.757 67.373 C 121.170 65.758,122.097 63.483,122.815 62.318 C 124.249 59.993,125.269 58.189,127.118 54.703 C 127.788 53.440,128.878 51.749,129.540 50.946 C 130.202 50.143,131.157 48.615,131.662 47.551 C 132.529 45.726,132.761 45.545,135.790 44.333 C 139.295 42.930,142.839 39.853,144.355 36.896 C 145.931 33.823,148.054 32.758,154.900 31.605 C 157.731 31.128,160.365 30.426,161.525 29.838 C 162.584 29.301,164.575 28.630,165.948 28.346 C 167.661 27.993,168.847 27.465,169.723 26.668 C 170.425 26.028,171.589 25.252,172.309 24.943 C 173.029 24.634,173.947 24.053,174.349 23.651 C 176.330 21.670,179.721 21.305,195.658 21.359 C 206.736 21.396,207.991 21.467,208.690 22.100 M106.467 37.939 C 105.427 38.898,104.800 39.828,104.800 40.411 C 104.800 41.417,107.439 38.785,108.087 37.132 C 108.481 36.126,108.369 36.183,106.467 37.939 M295.065 47.974 C 295.761 48.398,296.520 49.073,296.753 49.473 C 296.985 49.873,297.181 49.991,297.188 49.736 C 297.203 49.174,294.928 47.199,294.269 47.201 C 294.011 47.202,294.369 47.550,295.065 47.974 M246.438 82.439 C 250.069 83.542,250.072 83.529,245.850 85.362 C 244.623 85.895,240.623 86.605,237.400 86.863 C 236.410 86.942,235.991 86.697,234.400 85.106 L 232.706 83.412 234.653 82.511 C 237.312 81.281,242.521 81.249,246.438 82.439 M247.829 91.972 C 249.214 92.584,249.724 93.094,250.238 94.378 C 250.963 96.190,254.223 99.348,256.239 100.190 C 257.984 100.919,258.717 102.159,259.347 105.444 C 260.026 108.980,261.567 111.993,263.177 112.932 C 270.526 117.219,270.467 116.834,270.606 161.200 C 270.759 210.240,271.038 207.636,265.290 210.800 L 262.020 212.600 261.600 214.800 C 260.219 222.027,258.415 226.663,256.513 227.873 C 253.866 229.555,252.105 232.053,250.441 236.479 C 249.882 237.966,248.575 238.723,245.138 239.547 C 242.539 240.170,240.467 241.192,238.341 242.899 C 237.913 243.242,237.580 244.379,237.392 246.137 C 236.980 249.983,235.884 250.583,228.431 251.047 C 225.461 251.231,223.425 251.598,221.600 252.276 C 218.174 253.549,214.863 254.647,213.500 254.961 C 212.767 255.131,212.400 255.473,212.400 255.989 C 212.400 259.328,211.131 259.732,200.065 259.919 C 187.790 260.125,188.000 260.169,188.000 257.389 C 188.000 255.339,187.937 255.202,186.900 254.988 C 184.871 254.568,182.624 253.857,179.115 252.524 C 176.340 251.470,175.036 251.199,172.715 251.194 C 166.123 251.180,163.423 249.879,163.017 246.523 C 162.555 242.710,160.271 240.676,155.000 239.382 C 152.226 238.701,150.000 237.524,150.000 236.737 C 150.000 235.234,147.421 231.140,145.018 228.826 C 143.547 227.410,142.106 225.790,141.816 225.226 C 141.138 223.909,139.348 218.604,138.990 216.851 C 138.524 214.566,137.310 213.006,134.479 211.054 C 130.633 208.403,130.412 207.903,129.983 200.890 C 129.484 192.752,129.503 146.491,130.007 141.684 C 131.052 131.716,130.913 131.996,135.625 130.415 C 138.924 129.308,142.400 126.922,142.400 125.764 C 142.400 124.977,143.793 122.270,144.500 121.683 C 146.025 120.417,151.560 119.748,168.400 118.791 C 185.705 117.809,192.949 116.352,195.282 113.386 C 196.245 112.162,197.803 111.687,203.045 111.020 C 208.931 110.270,218.890 108.475,219.234 108.102 C 219.386 107.936,219.815 106.720,220.187 105.400 C 221.146 101.994,221.615 101.441,224.887 99.865 C 226.489 99.093,229.434 97.223,231.431 95.710 C 234.932 93.056,236.473 92.363,241.800 91.050 C 243.143 90.719,245.976 91.152,247.829 91.972 M257.794 94.908 C 258.248 95.253,256.632 96.800,255.818 96.800 C 254.804 96.800,253.945 95.365,254.352 94.352 C 254.563 93.828,254.839 93.071,254.967 92.669 C 255.169 92.032,255.341 92.110,256.293 93.269 C 256.895 94.001,257.570 94.739,257.794 94.908 M226.163 94.273 L 227.158 95.346 225.923 96.257 C 224.919 96.998,224.530 97.086,223.844 96.731 C 221.955 95.753,221.905 95.539,223.287 94.356 C 224.915 92.963,224.947 92.962,226.163 94.273 M268.115 105.024 C 268.415 108.772,267.777 109.500,265.688 107.801 C 265.627 107.751,266.055 106.418,266.640 104.840 C 267.225 103.262,267.745 102.022,267.797 102.085 C 267.848 102.148,267.991 103.471,268.115 105.024 M170.200 112.779 C 175.228 113.112,181.011 113.923,180.685 114.249 C 180.451 114.483,165.937 115.548,159.000 115.841 C 153.117 116.089,145.646 115.340,144.660 114.403 C 144.164 113.931,146.827 113.375,153.000 112.659 C 155.434 112.377,165.153 112.445,170.200 112.779 M134.600 124.513 C 138.505 125.735,137.777 126.816,132.529 127.589 C 131.515 127.739,131.088 125.903,131.900 124.887 C 132.722 123.857,132.572 123.878,134.600 124.513 M284.695 162.701 L 283.640 163.802 283.843 169.755 C 284.054 175.959,284.447 177.139,286.319 177.187 C 287.049 177.205,288.789 175.238,288.563 174.649 C 288.460 174.380,288.319 171.664,288.249 168.613 C 288.129 163.412,288.065 163.020,287.216 162.333 C 286.043 161.383,285.944 161.398,284.695 162.701 M113.291 162.900 C 113.067 163.175,112.779 165.470,112.652 168.000 C 112.525 170.530,112.310 173.339,112.174 174.242 C 111.955 175.696,112.050 175.981,113.001 176.729 L 114.075 177.574 115.370 176.541 C 116.640 175.528,116.659 175.466,116.304 173.453 C 116.106 172.324,115.954 169.702,115.968 167.627 C 115.997 163.158,114.801 161.046,113.291 162.900 M177.675 254.835 L 179.400 255.315 177.651 256.094 C 175.942 256.855,175.838 256.856,173.113 256.149 C 171.152 255.641,170.543 255.346,171.062 255.156 C 172.489 254.633,175.005 254.105,175.475 254.230 C 175.736 254.299,176.726 254.571,177.675 254.835 M229.457 255.324 C 230.276 256.143,224.397 256.828,222.763 256.105 L 221.000 255.324 223.000 254.743 C 224.850 254.206,228.684 254.551,229.457 255.324 M170.000 258.167 C 174.622 259.106,178.272 259.627,184.718 260.268 C 187.706 260.566,187.801 260.693,188.184 264.883 L 188.465 267.967 190.733 268.883 C 196.481 271.207,211.563 269.797,212.251 266.871 C 212.390 266.282,212.909 265.350,213.406 264.800 C 213.902 264.250,214.597 263.229,214.949 262.531 C 215.726 260.989,218.508 259.840,222.400 259.454 C 223.830 259.312,227.672 258.644,230.937 257.969 C 237.743 256.564,237.677 256.548,239.139 259.947 C 240.867 263.965,240.613 275.090,238.715 278.497 C 237.992 279.793,237.169 280.468,234.800 281.704 C 231.376 283.490,230.306 284.371,228.925 286.534 C 228.260 287.577,227.347 288.319,226.073 288.851 C 221.086 290.934,217.851 292.688,217.129 293.700 C 216.698 294.305,216.082 294.800,215.760 294.800 C 215.438 294.800,215.078 295.054,214.959 295.363 C 214.840 295.673,214.260 296.127,213.671 296.372 C 213.082 296.616,212.307 297.330,211.948 297.956 C 209.289 302.607,192.734 302.644,187.829 298.010 C 185.297 295.618,184.357 294.800,184.141 294.800 C 184.018 294.800,183.033 294.004,181.951 293.032 C 180.674 291.884,178.713 290.737,176.357 289.760 C 174.113 288.830,172.476 287.886,172.065 287.285 C 170.366 284.802,168.677 283.337,165.760 281.816 C 161.802 279.752,160.957 278.426,160.352 273.327 C 159.345 264.835,161.332 256.261,164.149 256.944 C 164.617 257.058,167.250 257.608,170.000 258.167 M135.519 262.298 C 137.344 262.372,140.224 262.372,141.919 262.297 C 143.614 262.222,142.120 262.161,138.600 262.162 C 135.080 262.162,133.694 262.224,135.519 262.298 M258.300 262.298 C 260.115 262.372,263.085 262.372,264.900 262.298 C 266.715 262.223,265.230 262.163,261.600 262.163 C 257.970 262.163,256.485 262.223,258.300 262.298 M206.400 267.600 C 206.400 267.849,204.067 268.000,200.200 268.000 C 196.333 268.000,194.000 267.849,194.000 267.600 C 194.000 267.351,196.333 267.200,200.200 267.200 C 204.067 267.200,206.400 267.351,206.400 267.600 M165.484 285.613 L 166.368 286.290 165.484 287.086 C 163.925 288.488,163.610 288.516,161.987 287.391 C 160.700 286.499,160.491 286.177,160.811 285.580 C 161.486 284.317,163.814 284.334,165.484 285.613 M239.600 285.600 C 240.205 286.731,237.224 288.654,235.933 287.966 C 234.489 287.197,233.995 286.348,234.624 285.719 C 235.953 284.390,238.915 284.319,239.600 285.600 M158.746 289.748 C 159.766 290.490,161.219 291.412,161.976 291.798 C 163.653 292.652,164.403 293.525,165.992 296.473 C 167.205 298.722,170.384 301.564,173.383 303.081 C 176.274 304.543,176.271 304.621,173.254 307.798 C 171.749 309.383,170.387 311.199,170.227 311.833 C 168.783 317.590,165.999 319.209,159.929 317.825 C 156.811 317.114,155.557 315.964,154.966 313.274 C 154.836 312.683,154.300 311.120,153.774 309.800 C 152.361 306.256,150.920 299.875,150.645 295.952 C 150.357 291.839,150.861 290.894,154.168 289.354 C 156.726 288.163,156.545 288.147,158.746 289.748 M246.118 289.347 C 251.653 291.795,251.240 298.031,244.359 315.908 C 243.950 316.972,242.950 317.405,239.392 318.061 C 234.165 319.024,231.529 317.237,230.166 311.807 C 230.003 311.157,228.729 309.457,227.335 308.028 C 224.450 305.072,224.268 304.402,226.110 303.524 C 228.364 302.449,232.628 298.446,234.612 295.541 C 236.013 293.491,237.003 292.505,238.358 291.811 C 239.371 291.292,240.920 290.318,241.800 289.645 C 243.733 288.168,243.490 288.184,246.118 289.347 M130.845 291.106 C 133.629 292.212,133.866 292.405,134.930 294.440 C 135.552 295.628,136.666 297.600,137.407 298.823 C 138.806 301.132,139.504 304.865,140.209 313.800 C 140.504 317.548,140.849 318.798,142.658 322.683 C 143.397 324.268,144.254 326.518,144.563 327.683 C 146.040 333.247,149.447 337.673,153.127 338.810 C 157.187 340.064,158.412 339.687,160.203 336.631 C 161.839 333.839,163.089 332.955,166.200 332.388 C 170.612 331.585,174.800 329.335,174.800 327.769 C 174.800 327.462,175.546 326.739,176.457 326.164 C 177.369 325.588,178.556 324.641,179.096 324.059 C 180.043 323.038,180.215 323.004,183.915 323.109 C 188.534 323.240,187.900 322.174,188.063 330.091 L 188.200 336.781 187.200 337.477 C 182.371 340.834,182.003 341.496,179.385 351.528 C 179.079 352.699,178.455 356.469,177.998 359.907 C 176.835 368.660,173.950 373.646,167.629 377.828 L 165.858 379.000 112.029 379.000 C 61.221 379.000,58.127 378.960,56.900 378.290 C 56.185 377.899,55.600 377.705,55.600 377.859 C 55.600 378.013,55.195 377.759,54.700 377.294 C 54.205 376.829,53.622 376.483,53.405 376.524 C 51.394 376.911,51.570 369.748,53.637 367.123 C 54.277 366.311,54.800 365.550,54.800 365.431 C 54.800 365.312,55.385 364.586,56.100 363.819 C 58.435 361.312,58.782 360.794,59.027 359.442 C 59.121 358.923,59.655 356.991,60.213 355.149 C 60.771 353.307,61.656 349.419,62.180 346.509 C 63.225 340.710,63.586 339.967,66.856 336.909 C 69.050 334.856,71.525 330.500,72.886 326.293 C 73.804 323.457,74.363 322.861,76.880 322.036 C 78.380 321.545,80.586 319.405,81.196 317.851 C 81.379 317.383,81.921 315.892,82.399 314.538 C 83.008 312.816,83.530 311.990,84.135 311.791 C 84.611 311.635,85.090 311.471,85.200 311.426 C 85.310 311.381,86.210 311.115,87.200 310.835 C 89.494 310.187,91.347 308.781,92.695 306.668 C 94.212 304.291,95.391 303.332,97.740 302.566 C 98.873 302.196,100.000 301.737,100.244 301.545 C 100.487 301.353,101.704 300.846,102.948 300.418 C 106.230 299.289,107.411 298.476,108.440 296.636 C 108.943 295.736,109.590 294.762,109.878 294.471 C 110.165 294.181,110.400 293.689,110.400 293.380 C 110.400 292.342,113.340 291.269,117.430 290.814 C 119.613 290.571,122.300 290.212,123.400 290.016 C 126.091 289.536,127.363 289.722,130.845 291.106 M276.420 289.995 C 277.860 290.203,280.696 290.562,282.722 290.791 C 288.584 291.455,292.000 294.150,292.000 298.111 C 292.000 298.665,293.510 299.360,297.000 300.412 C 298.583 300.890,303.316 302.809,305.147 303.716 C 305.668 303.974,306.678 305.089,307.393 306.193 C 309.114 308.854,310.280 309.872,312.639 310.775 C 317.146 312.500,317.145 312.500,317.935 314.382 C 318.354 315.382,318.815 316.700,318.959 317.310 C 319.281 318.678,321.753 321.479,322.931 321.810 C 325.627 322.569,326.359 323.309,327.461 326.386 C 328.055 328.044,328.845 329.850,329.218 330.400 C 329.591 330.950,330.304 332.206,330.803 333.192 C 331.302 334.177,332.727 336.067,333.970 337.392 C 337.260 340.899,337.219 340.818,337.997 345.290 C 339.243 352.456,341.785 361.588,342.760 362.400 C 344.634 363.961,347.924 368.886,348.265 370.641 C 348.879 373.802,348.484 374.438,344.000 377.498 L 341.800 379.000 287.769 379.000 C 225.480 379.000,232.516 379.556,228.617 374.325 C 227.306 372.567,225.947 370.920,225.598 370.664 C 224.344 369.748,223.249 366.151,222.415 360.213 C 221.437 353.248,221.411 353.118,220.200 349.200 C 219.690 347.550,219.060 345.390,218.800 344.400 C 218.421 342.961,217.713 342.013,215.263 339.673 L 212.200 336.745 212.337 330.073 C 212.413 326.403,212.517 323.356,212.569 323.301 C 213.074 322.776,220.519 323.112,220.834 323.674 C 221.034 324.032,222.010 324.837,223.002 325.463 C 223.994 326.088,224.903 326.904,225.022 327.275 C 225.684 329.343,229.820 331.669,234.200 332.437 C 237.320 332.985,238.574 333.862,240.197 336.631 C 241.988 339.687,242.944 339.989,246.883 338.746 C 251.321 337.345,253.009 335.143,256.190 326.600 C 257.010 324.400,257.818 322.420,257.987 322.200 C 259.037 320.830,259.964 316.867,260.374 311.991 C 261.007 304.467,261.609 300.766,262.389 299.600 C 262.756 299.050,263.370 297.755,263.753 296.723 C 264.722 294.108,266.022 292.309,267.200 291.952 C 267.750 291.786,269.370 291.198,270.800 290.645 C 273.884 289.455,273.220 289.532,276.420 289.995 M256.791 295.118 C 257.650 300.052,257.767 305.599,257.080 308.828 C 256.732 310.463,256.324 312.790,256.173 314.000 C 255.496 319.434,255.195 318.893,253.372 308.951 C 252.723 305.414,252.728 305.181,253.536 301.351 C 253.995 299.178,254.477 296.410,254.609 295.200 C 255.160 290.137,255.919 290.109,256.791 295.118 M145.797 295.641 C 146.103 297.488,146.653 300.428,147.021 302.174 C 147.721 305.499,147.602 306.845,145.927 314.600 C 145.175 318.079,144.648 317.857,144.184 313.865 C 144.032 312.551,143.603 309.973,143.231 308.136 C 142.620 305.122,142.608 304.244,143.099 299.165 C 143.938 290.503,144.768 289.419,145.797 295.641 M176.250 292.306 C 177.256 292.963,177.301 298.788,176.303 299.166 C 175.053 299.639,174.403 298.992,174.383 297.251 C 174.373 296.453,174.219 295.043,174.040 294.118 C 173.683 292.277,174.801 291.360,176.250 292.306 M225.936 292.352 C 226.503 292.711,226.262 296.414,225.546 298.328 C 224.624 300.793,223.390 299.244,223.534 295.803 C 223.684 292.225,224.312 291.323,225.936 292.352 M246.680 322.233 C 249.375 322.982,249.456 323.180,248.174 325.905 C 247.580 327.167,246.281 329.910,245.288 332.000 L 243.482 335.800 242.790 333.678 C 241.927 331.032,240.980 330.011,238.084 328.607 C 235.493 327.351,231.345 324.928,230.301 324.060 C 227.653 321.857,240.264 320.450,246.680 322.233 M167.954 322.028 C 172.142 322.926,170.764 324.464,161.858 328.831 C 159.443 330.016,158.125 331.547,157.548 333.842 C 157.024 335.921,156.513 335.744,155.418 333.102 C 154.578 331.074,153.666 329.027,152.195 325.865 C 150.997 323.289,151.060 323.099,153.410 322.239 C 155.348 321.529,164.979 321.389,167.954 322.028 " stroke="none" fill="#83b4e2" fill-rule="evenodd"></path></g></svg>