<svg id="svg" version="1.1" xmlns="http://www.w3.org/2000/svg" xmlns:xlink="http://www.w3.org/1999/xlink" width="400" height="400" viewBox="0, 0, 400,400"><g id="svgg"><path id="path0" d="M43.722 65.457 C 43.460 65.564,43.027 66.315,42.760 67.126 C 42.186 68.869,40.659 70.596,39.131 71.229 C 37.843 71.762,37.463 72.793,36.745 77.700 C 36.463 79.625,36.110 81.200,35.959 81.200 C 35.809 81.200,35.566 81.683,35.417 82.273 C 34.397 86.339,29.060 91.162,25.549 91.191 C 24.101 91.203,23.741 92.335,23.228 98.490 C 22.994 101.289,22.540 104.342,22.219 105.274 C 21.898 106.206,21.732 107.066,21.851 107.184 C 22.150 107.484,374.116 107.692,376.654 107.395 L 378.708 107.154 378.145 105.284 C 377.835 104.255,377.394 101.160,377.165 98.407 C 376.659 92.337,376.296 91.203,374.851 91.191 C 370.773 91.157,365.170 85.323,364.513 80.426 C 364.393 79.532,364.093 78.797,363.847 78.794 C 363.601 78.791,363.670 78.613,364.000 78.400 C 364.330 78.187,364.398 78.009,364.152 78.006 C 363.891 78.003,363.590 76.845,363.432 75.244 C 363.148 72.362,362.856 71.896,360.648 70.787 C 360.014 70.469,359.310 69.802,359.084 69.305 C 358.857 68.807,358.542 68.400,358.384 68.400 C 358.226 68.400,357.860 67.815,357.571 67.100 C 357.282 66.385,356.855 65.668,356.623 65.506 C 356.164 65.187,44.507 65.138,43.722 65.457 M154.660 175.187 C 154.321 175.964,153.858 177.095,153.632 177.700 C 153.405 178.305,153.074 178.800,152.896 178.800 C 152.718 178.800,152.243 179.358,151.840 180.040 C 151.113 181.271,148.497 182.774,147.054 182.791 C 145.958 182.804,142.631 185.375,139.207 188.856 C 135.922 192.195,135.307 192.491,130.130 193.222 C 123.137 194.209,105.736 193.115,104.819 191.631 C 104.690 191.422,103.739 190.888,102.707 190.446 C 99.840 189.217,96.862 187.060,95.118 184.950 C 94.046 183.653,92.893 182.782,91.504 182.222 C 89.240 181.310,88.040 179.687,87.162 176.352 L 86.675 174.504 83.038 174.295 C 79.721 174.105,75.299 174.605,74.800 175.227 C 74.690 175.365,74.150 175.598,73.600 175.745 C 72.875 175.940,72.284 176.683,71.451 178.451 C 70.387 180.706,70.115 180.976,67.810 182.054 C 66.275 182.772,65.152 183.587,64.883 184.179 C 63.831 186.487,60.176 190.281,58.468 190.838 C 57.661 191.101,56.904 191.462,56.787 191.641 C 56.367 192.282,49.299 193.285,44.000 193.456 C 38.409 193.636,36.861 194.026,34.900 195.749 L 34.000 196.539 34.000 286.470 C 34.000 335.931,34.048 376.400,34.106 376.400 C 34.164 376.400,35.196 376.760,36.400 377.200 C 38.498 377.967,39.585 378.000,62.672 378.000 L 86.755 378.000 87.377 377.111 C 87.936 376.314,88.000 368.015,88.002 296.611 C 88.004 246.852,88.151 216.108,88.394 214.620 C 88.917 211.428,90.563 208.143,92.017 207.391 C 93.030 206.867,106.133 206.808,200.822 206.898 L 308.476 207.000 309.441 208.200 C 309.972 208.860,310.810 210.390,311.303 211.600 L 312.200 213.800 312.400 295.239 C 312.568 363.460,312.689 376.785,313.149 377.339 C 314.081 378.461,360.899 378.334,364.000 377.200 C 365.204 376.760,366.237 376.400,366.295 376.400 C 366.354 376.400,366.356 335.858,366.301 286.306 L 366.200 196.211 364.293 194.964 C 362.432 193.746,362.243 193.710,356.493 193.487 C 350.593 193.258,343.617 192.274,343.209 191.614 C 343.090 191.421,342.499 191.140,341.896 190.988 C 340.630 190.671,336.400 186.671,336.400 185.792 C 336.400 185.466,336.242 185.200,336.049 185.200 C 335.855 185.200,335.473 184.660,335.200 184.000 C 334.927 183.340,334.533 182.800,334.326 182.800 C 332.584 182.800,329.853 180.928,328.754 178.980 C 327.597 176.930,326.798 176.354,324.300 175.770 C 323.695 175.629,323.200 175.366,323.200 175.185 C 323.200 174.763,319.754 174.107,316.324 173.876 L 313.649 173.696 312.836 176.371 C 311.725 180.030,310.556 181.646,308.459 182.420 C 307.235 182.873,306.222 183.709,304.938 185.328 C 303.946 186.577,302.979 187.600,302.788 187.600 C 302.596 187.600,301.635 188.143,300.651 188.808 C 299.667 189.472,298.173 190.302,297.331 190.652 C 296.489 191.003,295.698 191.452,295.573 191.651 C 293.979 194.182,264.400 194.105,264.400 191.569 C 264.400 191.366,264.161 191.200,263.868 191.200 C 263.576 191.200,262.242 190.210,260.905 189.000 C 259.568 187.790,258.350 186.800,258.198 186.800 C 258.046 186.800,257.123 185.911,256.145 184.824 C 254.756 183.278,253.895 182.710,252.195 182.216 C 249.516 181.437,246.447 178.566,245.622 176.067 C 245.093 174.463,245.009 174.400,243.392 174.400 C 242.468 174.400,240.896 174.288,239.900 174.152 C 238.089 173.903,238.088 173.904,235.314 176.652 C 233.788 178.163,232.091 179.792,231.544 180.271 C 230.523 181.163,226.213 182.800,224.883 182.800 C 224.365 182.800,223.803 183.531,223.022 185.223 C 221.956 187.532,220.662 189.122,218.244 191.092 C 214.170 194.413,186.022 194.290,182.001 190.934 C 179.392 188.756,178.284 187.383,177.293 185.100 C 176.476 183.216,176.122 182.800,175.335 182.800 C 174.098 182.800,169.580 181.283,168.800 180.605 C 167.730 179.676,163.556 175.820,162.826 175.087 C 162.317 174.575,161.149 174.289,158.697 174.074 L 155.277 173.774 154.660 175.187 " stroke="none" fill="#eff8fb" fill-rule="evenodd"></path><path id="path1" d="M49.637 23.006 C 44.826 23.881,44.868 23.861,44.433 25.504 C 43.588 28.695,43.167 32.447,42.962 38.600 L 42.749 45.000 43.969 46.300 L 45.189 47.600 200.200 47.600 L 355.211 47.600 356.432 46.300 L 357.652 45.000 357.425 38.400 C 357.229 32.703,356.187 24.853,355.541 24.207 C 355.438 24.104,354.104 23.708,352.577 23.326 C 348.803 22.384,54.768 22.073,49.637 23.006 M42.800 62.383 C 42.250 62.559,41.035 62.934,40.100 63.215 C 39.165 63.497,38.400 63.844,38.400 63.985 C 38.400 64.126,37.503 64.565,36.406 64.959 C 33.962 65.838,31.949 68.374,31.214 71.500 C 30.942 72.655,30.558 73.600,30.360 73.600 C 30.162 73.600,30.000 74.015,30.000 74.522 C 30.000 77.656,27.408 82.323,24.818 83.853 C 23.147 84.840,21.798 87.709,20.799 92.400 C 20.353 94.490,19.812 96.260,19.595 96.333 C 19.378 96.407,19.200 96.818,19.200 97.247 C 19.200 98.199,17.319 102.000,16.848 102.000 C 16.661 102.000,15.989 102.765,15.354 103.700 C 14.719 104.635,14.063 105.461,13.895 105.535 C 12.664 106.080,12.875 107.162,14.302 107.628 C 15.126 107.896,15.906 108.279,16.036 108.478 C 17.618 110.905,383.512 110.863,384.322 108.435 C 384.399 108.204,385.182 107.820,386.061 107.583 C 387.933 107.080,387.354 105.734,383.756 102.224 C 382.640 101.135,381.374 98.565,381.036 96.700 C 380.886 95.875,380.620 95.200,380.445 95.200 C 380.270 95.200,379.838 93.738,379.486 91.951 C 378.683 87.875,377.220 84.820,375.616 83.873 C 372.831 82.228,371.088 79.007,370.219 73.900 C 370.079 73.075,369.812 72.400,369.626 72.400 C 369.441 72.400,369.163 71.727,369.008 70.904 C 368.561 68.519,366.295 65.777,364.086 64.948 C 363.049 64.559,362.110 64.129,362.000 63.991 C 361.722 63.645,360.561 63.221,358.080 62.563 C 355.696 61.930,44.771 61.753,42.800 62.383 M356.623 65.506 C 356.855 65.668,357.282 66.385,357.571 67.100 C 357.860 67.815,358.226 68.400,358.384 68.400 C 358.542 68.400,358.857 68.807,359.084 69.305 C 359.310 69.802,360.014 70.469,360.648 70.787 C 362.856 71.896,363.148 72.362,363.432 75.244 C 363.590 76.845,363.891 78.003,364.152 78.006 C 364.398 78.009,364.330 78.187,364.000 78.400 C 363.670 78.613,363.601 78.791,363.847 78.794 C 364.093 78.797,364.393 79.532,364.513 80.426 C 365.170 85.323,370.773 91.157,374.851 91.191 C 376.296 91.203,376.659 92.337,377.165 98.407 C 377.394 101.160,377.835 104.255,378.145 105.284 L 378.708 107.154 376.654 107.395 C 374.116 107.692,22.150 107.484,21.851 107.184 C 21.732 107.066,21.898 106.206,22.219 105.274 C 22.540 104.342,22.994 101.289,23.228 98.490 C 23.741 92.335,24.101 91.203,25.549 91.191 C 29.060 91.162,34.397 86.339,35.417 82.273 C 35.566 81.683,35.809 81.200,35.959 81.200 C 36.110 81.200,36.463 79.625,36.745 77.700 C 37.463 72.793,37.843 71.762,39.131 71.229 C 40.659 70.596,42.186 68.869,42.760 67.126 C 43.027 66.315,43.460 65.564,43.722 65.457 C 44.507 65.138,356.164 65.187,356.623 65.506 M16.470 124.126 C 15.991 124.635,15.600 125.239,15.600 125.467 C 15.600 125.696,15.150 126.369,14.600 126.962 C 13.575 128.069,12.956 144.400,13.939 144.400 C 14.125 144.400,14.386 146.553,14.518 149.185 C 14.771 154.203,15.394 157.146,16.276 157.484 C 16.564 157.595,16.800 157.857,16.800 158.066 C 16.800 158.426,18.566 160.832,20.100 162.562 C 20.485 162.996,20.800 163.486,20.800 163.652 C 20.800 165.465,24.176 170.759,25.710 171.352 C 27.200 171.927,30.910 175.004,31.268 175.961 C 31.466 176.489,38.544 177.600,41.709 177.600 C 45.383 177.600,48.673 176.645,49.024 175.477 C 49.429 174.133,51.536 172.117,53.745 170.962 C 54.840 170.390,55.992 169.665,56.306 169.351 C 56.619 169.038,57.354 168.534,57.938 168.232 C 58.548 167.916,59.818 166.306,60.921 164.452 C 62.076 162.508,63.453 160.783,64.377 160.119 C 66.228 158.788,66.905 156.866,67.588 151.000 C 68.479 143.353,69.113 141.180,70.917 139.602 L 72.515 138.203 79.854 138.058 L 87.192 137.912 88.543 139.263 C 90.015 140.735,90.596 142.667,91.056 147.612 C 91.198 149.145,91.443 150.400,91.599 150.400 C 91.755 150.400,91.993 151.705,92.128 153.300 C 92.523 157.979,94.854 161.600,97.470 161.600 C 97.603 161.600,99.802 163.720,102.356 166.311 C 104.910 168.902,107.701 171.540,108.557 172.175 C 109.428 172.820,110.374 173.987,110.702 174.824 C 111.718 177.410,113.145 177.769,121.046 177.428 C 128.062 177.125,129.452 176.854,129.890 175.706 C 130.125 175.088,132.854 172.238,134.444 170.949 C 135.650 169.971,139.200 164.784,139.200 163.999 C 139.200 163.786,140.370 162.486,141.800 161.109 C 143.230 159.733,144.400 158.458,144.400 158.276 C 144.400 158.095,144.836 157.374,145.369 156.673 C 145.902 155.973,146.461 154.905,146.612 154.300 C 146.763 153.695,147.010 153.200,147.161 153.200 C 147.572 153.200,148.736 149.347,149.216 146.400 C 150.402 139.112,151.780 137.993,159.549 138.010 C 170.646 138.033,171.346 138.659,173.192 150.200 C 174.040 155.505,174.622 157.600,175.249 157.600 C 175.442 157.600,175.600 157.805,175.600 158.055 C 175.600 158.306,176.334 159.307,177.231 160.279 C 178.127 161.252,179.120 162.667,179.436 163.424 C 179.752 164.181,180.163 164.800,180.349 164.800 C 180.535 164.800,181.207 165.939,181.843 167.331 C 182.893 169.628,183.194 169.950,185.093 170.805 C 187.118 171.716,191.200 175.119,191.200 175.896 C 191.200 176.509,196.962 177.600,200.200 177.600 C 203.430 177.600,209.200 176.509,209.200 175.899 C 209.200 175.132,212.997 171.966,215.182 170.910 C 217.162 169.953,217.550 169.563,218.368 167.710 C 218.880 166.550,219.427 165.600,219.583 165.600 C 219.739 165.600,220.392 164.586,221.033 163.346 C 221.675 162.107,222.695 160.558,223.300 159.904 C 223.905 159.250,224.400 158.549,224.400 158.345 C 224.400 158.142,224.654 157.878,224.963 157.759 C 225.782 157.445,226.252 155.969,227.183 150.800 C 229.263 139.247,230.632 138.000,241.235 138.000 C 248.764 138.000,250.304 139.487,251.383 147.800 C 251.704 150.268,252.354 152.400,252.787 152.400 C 252.965 152.400,253.221 152.985,253.355 153.701 C 253.666 155.356,255.777 158.330,258.597 161.083 C 259.809 162.266,260.800 163.409,260.800 163.623 C 260.800 164.125,263.633 168.400,263.966 168.400 C 264.104 168.400,264.555 169.026,264.968 169.792 C 265.380 170.557,266.016 171.278,266.381 171.394 C 267.201 171.654,270.400 174.965,270.400 175.553 C 270.400 176.738,272.292 177.145,279.111 177.426 C 287.201 177.760,288.814 177.381,289.614 174.957 C 289.866 174.193,290.767 173.075,291.727 172.334 C 292.647 171.625,295.470 168.952,298.000 166.394 C 302.190 162.159,305.771 159.200,306.708 159.200 C 306.908 159.200,307.310 158.210,307.600 157.000 C 307.890 155.790,308.246 154.800,308.390 154.800 C 308.535 154.800,308.869 152.485,309.134 149.656 C 309.771 142.860,310.403 140.510,311.971 139.109 L 313.213 138.000 320.551 138.000 L 327.890 138.000 329.445 139.234 C 331.699 141.022,331.534 140.465,332.765 150.408 C 333.671 157.729,333.882 158.285,336.894 161.332 C 338.162 162.615,339.200 163.827,339.200 164.027 C 339.200 164.817,341.466 167.507,342.891 168.407 C 343.721 168.932,344.400 169.497,344.400 169.663 C 344.400 169.829,345.659 170.700,347.197 171.598 C 349.178 172.755,350.258 173.694,350.897 174.813 C 352.989 178.478,370.000 178.533,370.000 174.875 C 370.000 174.205,373.204 171.570,374.932 170.819 C 376.411 170.176,376.799 169.697,378.356 166.591 C 379.322 164.664,380.402 162.770,380.756 162.382 C 383.534 159.337,385.187 156.280,385.503 153.600 C 385.620 152.610,385.877 151.695,386.074 151.566 C 386.272 151.438,386.544 146.087,386.680 139.675 L 386.927 128.018 385.864 126.954 C 385.279 126.370,384.800 125.677,384.800 125.415 C 384.800 125.154,384.383 124.548,383.874 124.070 L 382.948 123.200 200.144 123.200 L 17.339 123.200 16.470 124.126 M154.260 169.515 C 153.787 170.036,153.112 170.763,152.760 171.131 C 152.005 171.919,151.200 174.139,151.200 175.431 C 151.200 177.184,148.889 178.986,145.900 179.564 C 144.415 179.852,143.200 180.247,143.200 180.443 C 143.200 180.640,142.702 180.800,142.093 180.800 C 141.033 180.800,138.000 182.517,138.000 183.117 C 138.000 183.276,137.235 184.245,136.300 185.272 C 133.353 188.507,129.323 189.600,120.338 189.600 L 113.245 189.600 109.765 188.197 C 107.851 187.426,105.874 186.383,105.371 185.880 C 104.868 185.377,103.949 184.711,103.328 184.401 C 102.708 184.090,101.838 183.522,101.395 183.137 C 100.267 182.159,98.133 181.326,95.900 180.993 C 94.855 180.837,94.000 180.550,94.000 180.355 C 94.000 180.160,93.747 180.000,93.437 180.000 C 92.468 180.000,89.200 176.518,89.200 175.486 C 89.200 174.105,88.092 171.150,87.146 170.009 C 86.195 168.862,74.462 168.413,74.097 169.509 C 74.007 169.779,73.586 170.000,73.161 170.000 C 72.168 170.000,70.952 171.999,70.412 174.519 C 69.974 176.560,67.070 180.000,65.785 180.000 C 65.463 180.000,65.200 180.157,65.200 180.349 C 65.200 180.541,64.472 180.814,63.583 180.956 C 62.497 181.130,61.413 181.721,60.283 182.754 C 59.357 183.600,57.979 184.610,57.220 184.998 C 56.460 185.386,55.614 185.929,55.339 186.204 C 53.992 187.551,46.108 189.600,42.270 189.600 C 37.049 189.600,30.800 192.760,30.800 195.400 C 30.800 195.730,30.620 196.000,30.400 196.000 C 30.135 196.000,30.000 226.285,30.000 286.054 L 30.000 376.108 31.005 377.040 C 33.664 379.504,34.837 379.600,62.201 379.600 L 87.117 379.600 88.359 378.186 L 89.600 376.772 89.600 297.049 C 89.600 208.225,89.393 214.931,92.235 211.700 L 93.378 210.400 200.190 210.400 L 307.003 210.400 308.116 211.579 C 311.008 214.644,310.800 208.007,310.800 297.049 L 310.800 376.772 312.051 378.197 L 313.303 379.622 338.951 379.511 L 364.600 379.400 366.900 378.471 C 368.165 377.960,369.472 377.271,369.803 376.940 C 370.336 376.407,370.393 365.997,370.303 285.858 L 370.200 195.379 368.434 193.789 C 367.463 192.915,366.435 191.968,366.148 191.685 C 364.881 190.432,362.480 189.823,357.800 189.568 C 352.801 189.295,344.261 187.118,342.916 185.773 C 342.601 185.458,342.101 185.200,341.805 185.200 C 341.509 185.200,340.693 184.475,339.990 183.588 C 338.696 181.954,336.963 180.800,335.803 180.800 C 335.061 180.800,334.565 180.436,331.994 178.000 C 330.744 176.816,329.992 175.721,329.799 174.800 C 329.117 171.566,328.108 170.507,325.360 170.139 C 324.282 169.995,323.290 169.709,323.155 169.504 C 322.907 169.126,314.049 168.367,313.501 168.677 C 312.877 169.030,311.248 173.080,310.976 174.953 C 310.680 177.001,308.316 180.000,307.000 180.000 C 306.670 180.000,306.400 180.157,306.400 180.348 C 306.400 180.540,305.493 180.817,304.384 180.964 C 301.937 181.289,300.656 181.816,298.742 183.282 C 297.941 183.897,297.131 184.403,296.942 184.408 C 296.754 184.412,295.880 185.047,295.000 185.820 C 294.120 186.593,292.950 187.339,292.400 187.480 C 291.850 187.620,290.450 188.154,289.289 188.667 C 284.178 190.925,267.786 189.419,265.200 186.455 C 263.073 184.016,259.844 181.572,258.203 181.159 C 257.211 180.909,256.400 180.566,256.400 180.397 C 256.400 180.227,255.224 179.770,253.786 179.381 C 250.987 178.624,248.800 176.775,248.800 175.166 C 248.800 173.965,247.828 172.308,246.125 170.605 L 244.606 169.086 240.238 169.043 C 237.067 169.012,235.823 169.137,235.701 169.500 C 235.609 169.775,235.305 170.000,235.027 170.000 C 233.661 170.000,231.208 172.408,230.954 173.999 C 230.813 174.880,230.553 175.600,230.376 175.600 C 230.199 175.600,229.949 175.932,229.820 176.337 C 229.529 177.255,226.575 179.390,225.100 179.748 C 224.495 179.895,224.000 180.192,224.000 180.408 C 224.000 180.623,223.665 180.800,223.256 180.800 C 222.388 180.800,219.561 182.619,219.047 183.508 C 215.584 189.497,198.107 191.588,186.549 187.396 C 184.123 186.516,182.677 185.432,181.192 183.382 C 180.463 182.375,177.938 180.800,177.053 180.800 C 176.694 180.800,176.400 180.620,176.400 180.400 C 176.400 180.180,176.075 180.000,175.678 180.000 C 173.991 180.000,169.200 176.010,169.200 174.605 C 169.200 173.640,166.456 170.872,164.966 170.333 C 164.215 170.062,163.600 169.704,163.600 169.538 C 163.600 168.405,155.288 168.386,154.260 169.515 M162.826 175.087 C 163.556 175.820,167.730 179.676,168.800 180.605 C 169.580 181.283,174.098 182.800,175.335 182.800 C 176.122 182.800,176.476 183.216,177.293 185.100 C 178.284 187.383,179.392 188.756,182.001 190.934 C 186.022 194.290,214.170 194.413,218.244 191.092 C 220.662 189.122,221.956 187.532,223.022 185.223 C 223.803 183.531,224.365 182.800,224.883 182.800 C 226.213 182.800,230.523 181.163,231.544 180.271 C 232.091 179.792,233.788 178.163,235.314 176.652 C 238.088 173.904,238.089 173.903,239.900 174.152 C 240.896 174.288,242.468 174.400,243.392 174.400 C 245.009 174.400,245.093 174.463,245.622 176.067 C 246.447 178.566,249.516 181.437,252.195 182.216 C 253.895 182.710,254.756 183.278,256.145 184.824 C 257.123 185.911,258.046 186.800,258.198 186.800 C 258.350 186.800,259.568 187.790,260.905 189.000 C 262.242 190.210,263.576 191.200,263.868 191.200 C 264.161 191.200,264.400 191.366,264.400 191.569 C 264.400 194.105,293.979 194.182,295.573 191.651 C 295.698 191.452,296.489 191.003,297.331 190.652 C 298.173 190.302,299.667 189.472,300.651 188.808 C 301.635 188.143,302.596 187.600,302.788 187.600 C 302.979 187.600,303.946 186.577,304.938 185.328 C 306.222 183.709,307.235 182.873,308.459 182.420 C 310.556 181.646,311.725 180.030,312.836 176.371 L 313.649 173.696 316.324 173.876 C 319.754 174.107,323.200 174.763,323.200 175.185 C 323.200 175.366,323.695 175.629,324.300 175.770 C 326.798 176.354,327.597 176.930,328.754 178.980 C 329.853 180.928,332.584 182.800,334.326 182.800 C 334.533 182.800,334.927 183.340,335.200 184.000 C 335.473 184.660,335.855 185.200,336.049 185.200 C 336.242 185.200,336.400 185.466,336.400 185.792 C 336.400 186.671,340.630 190.671,341.896 190.988 C 342.499 191.140,343.090 191.421,343.209 191.614 C 343.617 192.274,350.593 193.258,356.493 193.487 C 362.243 193.710,362.432 193.746,364.293 194.964 L 366.200 196.211 366.301 286.306 C 366.356 335.858,366.354 376.400,366.295 376.400 C 366.237 376.400,365.204 376.760,364.000 377.200 C 360.899 378.334,314.081 378.461,313.149 377.339 C 312.689 376.785,312.568 363.460,312.400 295.239 L 312.200 213.800 311.303 211.600 C 310.810 210.390,309.972 208.860,309.441 208.200 L 308.476 207.000 200.822 206.898 C 106.133 206.808,93.030 206.867,92.017 207.391 C 90.563 208.143,88.917 211.428,88.394 214.620 C 88.151 216.108,88.004 246.852,88.002 296.611 C 88.000 368.015,87.936 376.314,87.377 377.111 L 86.755 378.000 62.672 378.000 C 39.585 378.000,38.498 377.967,36.400 377.200 C 35.196 376.760,34.164 376.400,34.106 376.400 C 34.048 376.400,34.000 335.931,34.000 286.470 L 34.000 196.539 34.900 195.749 C 36.861 194.026,38.409 193.636,44.000 193.456 C 49.299 193.285,56.367 192.282,56.787 191.641 C 56.904 191.462,57.661 191.101,58.468 190.838 C 60.176 190.281,63.831 186.487,64.883 184.179 C 65.152 183.587,66.275 182.772,67.810 182.054 C 70.115 180.976,70.387 180.706,71.451 178.451 C 72.284 176.683,72.875 175.940,73.600 175.745 C 74.150 175.598,74.690 175.365,74.800 175.227 C 75.299 174.605,79.721 174.105,83.038 174.295 L 86.675 174.504 87.162 176.352 C 88.040 179.687,89.240 181.310,91.504 182.222 C 92.893 182.782,94.046 183.653,95.118 184.950 C 96.862 187.060,99.840 189.217,102.707 190.446 C 103.739 190.888,104.690 191.422,104.819 191.631 C 105.736 193.115,123.137 194.209,130.130 193.222 C 135.307 192.491,135.922 192.195,139.207 188.856 C 142.631 185.375,145.958 182.804,147.054 182.791 C 148.497 182.774,151.113 181.271,151.840 180.040 C 152.243 179.358,152.718 178.800,152.896 178.800 C 153.074 178.800,153.405 178.305,153.632 177.700 C 153.858 177.095,154.321 175.964,154.660 175.187 L 155.277 173.774 158.697 174.074 C 161.149 174.289,162.317 174.575,162.826 175.087 M105.100 223.288 L 103.600 224.157 103.600 300.205 L 103.600 376.253 105.154 377.126 L 106.709 378.000 144.959 378.000 L 183.209 378.000 184.993 377.100 L 186.778 376.200 186.778 300.200 L 186.778 224.200 184.993 223.300 L 183.209 222.400 144.904 222.409 L 106.600 222.418 105.100 223.288 M215.311 223.322 L 213.622 224.200 213.622 300.200 L 213.622 376.200 215.407 377.100 L 217.191 378.000 255.441 378.000 L 293.691 378.000 295.246 377.126 L 296.800 376.253 296.800 300.200 L 296.800 224.147 295.246 223.274 L 293.691 222.400 255.346 222.422 L 217.000 222.443 215.311 223.322 " stroke="none" fill="#b4dcfc" fill-rule="evenodd"></path><path id="path2" d="M28.800 4.345 C 28.800 4.534,28.376 4.608,27.859 4.509 C 26.172 4.187,23.828 7.141,25.300 7.735 C 25.604 7.858,25.531 7.949,25.113 7.968 C 24.475 7.998,24.426 9.302,24.408 26.434 C 24.387 47.122,24.610 45.766,21.206 45.862 C 19.440 45.912,18.893 46.095,18.406 46.801 C 18.073 47.283,16.874 48.619,15.743 49.770 C 13.708 51.841,13.680 51.904,13.166 55.532 C 12.881 57.549,12.523 59.200,12.372 59.200 C 11.765 59.200,11.120 61.648,11.372 62.993 C 11.537 63.873,11.480 64.400,11.218 64.400 C 10.988 64.400,10.799 64.895,10.799 65.500 C 10.798 66.566,10.730 66.600,8.610 66.600 C 5.580 66.600,4.600 67.580,4.600 70.610 C 4.600 71.813,4.448 72.798,4.263 72.799 C 4.078 72.799,3.966 73.655,4.015 74.700 C 4.063 75.745,4.080 78.895,4.052 81.700 L 4.000 86.800 2.000 86.800 L 0.000 86.800 0.000 137.200 L 0.000 187.600 1.900 187.601 C 3.865 187.603,5.200 189.279,5.200 191.744 C 5.200 192.797,7.739 195.199,8.860 195.206 C 9.377 195.209,10.024 195.355,10.298 195.528 C 10.693 195.779,10.797 215.929,10.802 292.922 C 10.806 346.315,10.951 390.000,11.124 390.000 C 11.298 390.000,11.365 390.634,11.275 391.409 C 10.925 394.402,12.798 396.275,15.791 395.925 C 16.566 395.835,17.200 395.905,17.200 396.082 C 17.200 396.699,386.057 396.274,387.256 395.656 C 389.354 394.575,389.254 399.720,389.214 294.765 C 389.172 186.744,388.980 195.200,391.469 195.200 C 392.659 195.200,395.200 192.847,395.200 191.744 C 395.200 189.403,396.547 187.603,398.300 187.601 L 400.000 187.600 400.000 137.200 L 400.000 86.800 398.200 86.800 L 396.400 86.800 396.348 81.700 C 396.320 78.895,396.337 75.745,396.385 74.700 C 396.434 73.655,396.322 72.799,396.137 72.799 C 395.952 72.798,395.800 71.813,395.800 70.610 C 395.800 67.580,394.820 66.600,391.790 66.600 L 389.602 66.600 389.601 64.700 C 389.601 63.655,389.456 62.800,389.281 62.800 C 389.106 62.800,389.037 61.621,389.129 60.179 C 389.476 54.727,387.741 50.100,384.710 48.398 C 383.770 47.870,382.705 47.075,382.345 46.631 C 381.826 45.992,381.205 45.822,379.345 45.812 C 375.772 45.794,376.014 47.162,375.992 26.834 C 375.975 11.270,375.892 8.800,375.386 8.800 C 375.064 8.800,374.800 8.620,374.800 8.400 C 374.800 8.180,374.980 8.000,375.200 8.000 C 375.999 8.000,375.574 6.268,374.540 5.309 C 373.784 4.608,373.153 4.375,372.340 4.494 C 371.713 4.586,371.200 4.513,371.200 4.332 C 371.200 4.150,294.160 4.002,200.000 4.002 C 104.867 4.002,28.800 4.155,28.800 4.345 M357.082 18.257 C 358.227 18.395,359.487 18.821,359.882 19.205 C 361.244 20.528,361.982 21.591,362.234 22.591 C 362.372 23.143,362.648 23.494,362.846 23.372 C 363.044 23.249,363.488 23.430,363.832 23.774 C 364.301 24.244,364.325 24.400,363.929 24.400 C 363.595 24.400,363.400 24.898,363.400 25.749 C 363.400 26.664,363.561 27.036,363.900 26.906 C 364.175 26.801,364.400 26.914,364.400 27.157 C 364.400 27.401,364.220 27.600,364.000 27.600 C 363.393 27.600,363.488 33.081,364.100 33.367 C 364.487 33.547,364.477 33.656,364.055 33.848 C 363.594 34.058,363.594 34.156,364.055 34.479 C 364.478 34.775,364.488 34.906,364.100 35.064 C 363.507 35.304,363.421 36.800,364.000 36.800 C 365.004 36.800,364.464 44.782,363.397 45.719 C 362.845 46.204,361.990 47.410,361.497 48.400 C 360.848 49.702,360.144 50.421,358.952 51.000 C 357.338 51.783,357.194 52.490,358.421 53.600 C 358.543 53.710,359.137 54.459,359.741 55.264 C 361.113 57.092,363.103 58.062,365.222 57.937 C 366.298 57.873,366.979 58.038,367.221 58.420 C 367.538 58.922,367.589 58.919,367.600 58.400 C 367.608 57.992,367.706 57.947,367.906 58.261 C 368.068 58.514,369.069 58.852,370.131 59.011 C 372.143 59.312,373.495 60.337,373.801 61.792 C 374.272 64.032,374.800 68.585,374.800 70.405 C 374.800 71.638,375.025 72.682,375.364 73.021 C 375.675 73.332,375.999 73.796,376.085 74.054 C 376.233 74.500,377.061 74.693,379.143 74.767 C 379.842 74.791,380.021 74.968,379.837 75.448 C 379.645 75.948,379.774 76.048,380.399 75.884 C 380.958 75.738,381.359 75.941,381.686 76.536 C 382.441 77.908,382.516 78.367,382.688 82.661 C 382.861 86.993,383.235 87.821,385.186 88.197 C 386.401 88.431,387.924 90.274,388.427 92.118 C 388.863 93.718,389.831 94.388,392.214 94.739 C 393.406 94.915,394.278 97.497,394.666 102.000 C 395.188 108.053,394.803 109.099,391.455 110.717 C 387.378 112.689,396.451 112.600,200.400 112.600 C 5.002 112.600,13.062 112.679,9.020 110.736 C 5.596 109.090,5.211 108.067,5.734 102.000 C 6.133 97.361,7.009 94.874,8.286 94.750 C 10.103 94.573,11.572 93.652,11.850 92.514 C 12.284 90.739,13.380 88.927,13.912 89.104 C 14.180 89.193,14.400 89.075,14.400 88.841 C 14.400 88.608,15.108 88.055,15.974 87.613 L 17.548 86.810 17.711 82.705 C 17.801 80.447,17.956 78.330,18.056 78.000 C 18.492 76.565,19.294 75.551,19.831 75.756 C 20.164 75.884,20.400 75.731,20.400 75.387 C 20.400 75.055,20.790 74.786,21.300 74.767 C 23.347 74.691,24.168 74.497,24.315 74.054 C 24.401 73.796,24.725 73.332,25.036 73.021 C 25.379 72.678,25.601 71.624,25.603 70.329 C 25.609 65.807,26.789 60.800,27.849 60.800 C 28.152 60.800,28.400 60.639,28.400 60.442 C 28.400 60.245,29.075 59.989,29.900 59.873 C 34.526 59.221,35.287 59.040,35.477 58.544 C 35.592 58.245,36.071 57.999,36.543 57.997 C 38.135 57.992,41.333 55.219,42.543 52.794 C 43.112 51.653,43.101 51.629,41.773 51.191 C 40.254 50.690,38.400 48.715,38.400 47.598 C 38.400 47.191,37.950 46.504,37.400 46.071 C 36.412 45.294,36.400 45.211,36.400 39.242 C 36.400 35.481,36.249 33.200,36.000 33.200 C 35.780 33.200,35.600 32.750,35.600 32.200 C 35.600 31.650,35.825 31.197,36.100 31.194 C 36.434 31.190,36.401 31.057,36.000 30.794 C 35.496 30.463,35.488 30.343,35.953 30.044 C 36.331 29.800,36.536 28.695,36.602 26.544 C 36.654 24.815,36.720 23.355,36.749 23.300 C 36.777 23.245,36.755 23.113,36.700 23.008 C 36.645 22.902,37.005 22.532,37.500 22.185 C 37.995 21.838,38.404 21.340,38.409 21.077 C 38.427 20.111,39.896 18.719,41.229 18.405 C 42.823 18.029,353.974 17.884,357.082 18.257 M16.053 55.899 C 15.380 58.007,14.793 59.198,14.426 59.199 C 14.110 59.199,13.471 59.515,13.007 59.900 C 12.542 60.285,12.665 60.108,13.281 59.506 C 13.896 58.904,14.400 58.167,14.400 57.870 C 14.400 57.286,16.814 52.271,16.996 52.476 C 17.056 52.544,16.632 54.084,16.053 55.899 M387.734 117.179 C 391.685 118.663,393.473 121.781,393.826 127.800 C 394.176 133.773,394.270 159.794,393.945 160.960 C 393.654 162.003,393.145 165.417,393.089 166.700 C 393.077 166.975,392.908 167.200,392.715 167.200 C 392.309 167.200,390.400 169.035,390.400 169.425 C 390.400 169.809,388.656 171.585,388.271 171.593 C 388.091 171.597,387.690 171.852,387.382 172.161 C 387.073 172.470,385.955 172.841,384.896 172.987 C 382.888 173.263,381.527 174.863,381.008 177.557 C 380.908 178.079,380.505 178.734,380.113 179.012 C 379.721 179.290,378.996 179.871,378.503 180.304 C 377.091 181.540,368.114 182.684,358.400 182.866 C 356.090 182.909,355.100 183.002,356.200 183.072 C 370.246 183.969,371.113 184.176,372.367 186.927 C 374.461 191.523,374.400 188.564,374.400 286.296 L 374.400 376.887 373.502 378.844 C 371.702 382.768,370.945 382.850,338.129 382.712 C 308.441 382.586,309.930 382.743,309.045 379.659 C 308.847 378.967,308.530 378.400,308.342 378.400 C 308.154 378.400,308.000 342.277,308.000 298.019 C 308.000 207.788,308.295 215.415,304.822 215.762 C 295.479 216.696,286.697 216.855,252.200 216.716 C 225.521 216.608,212.830 216.407,207.328 216.004 C 200.445 215.500,198.634 215.513,189.728 216.128 C 176.212 217.062,113.238 217.115,101.400 216.203 C 97.220 215.880,93.684 215.613,93.543 215.608 C 92.703 215.581,92.582 224.359,92.400 298.115 C 92.268 351.504,92.063 379.327,91.800 379.515 C 91.580 379.672,91.207 380.160,90.970 380.600 C 89.777 382.820,90.056 382.799,61.600 382.796 C 29.333 382.793,28.675 382.719,26.898 378.844 L 26.000 376.887 26.005 285.943 C 26.011 186.680,25.921 190.808,28.182 186.436 C 29.298 184.276,33.329 183.324,42.200 183.126 C 45.151 183.060,45.331 183.025,43.200 182.932 C 29.747 182.341,22.376 181.371,21.256 180.045 C 20.895 179.617,20.283 178.888,19.896 178.425 C 19.509 177.961,19.143 177.271,19.083 176.891 C 18.710 174.532,17.074 173.242,13.800 172.726 C 12.973 172.596,12.490 172.297,11.171 171.100 C 10.747 170.715,10.400 170.527,10.400 170.681 C 10.400 170.836,10.085 170.549,9.700 170.044 C 9.315 169.539,8.606 168.711,8.124 168.205 C 7.643 167.699,7.358 167.176,7.491 167.042 C 7.624 166.909,7.539 166.800,7.302 166.800 C 7.065 166.800,6.916 166.493,6.971 166.117 C 7.026 165.741,6.844 164.256,6.567 162.817 C 5.616 157.882,6.242 126.381,7.365 122.649 C 7.851 121.035,10.643 117.641,11.533 117.582 C 11.680 117.573,12.700 117.314,13.800 117.008 C 16.862 116.156,385.462 116.324,387.734 117.179 M76.438 150.654 C 70.540 154.788,70.775 156.126,77.700 157.818 C 78.305 157.966,78.800 158.247,78.800 158.443 C 78.800 158.640,80.577 158.800,82.748 158.800 L 86.696 158.800 87.166 157.100 C 87.509 155.860,87.525 154.642,87.226 152.600 C 87.000 151.060,86.812 149.575,86.808 149.300 C 86.802 148.933,85.765 148.808,82.900 148.829 L 79.000 148.858 76.438 150.654 M155.200 149.060 C 155.200 149.203,154.917 150.717,154.571 152.424 C 153.691 156.765,154.276 158.000,157.210 158.000 C 158.305 158.000,159.200 158.180,159.200 158.400 C 159.200 159.488,161.917 158.754,163.582 157.216 L 165.298 155.633 164.762 153.816 C 164.467 152.817,164.112 152.000,163.973 152.000 C 163.835 152.000,163.397 151.280,163.000 150.400 L 162.279 148.800 158.739 148.800 C 156.793 148.800,155.200 148.917,155.200 149.060 M237.280 150.611 C 236.796 151.607,236.400 152.687,236.400 153.011 C 236.400 153.335,236.248 153.600,236.061 153.600 C 234.638 153.600,235.000 155.480,236.734 157.100 L 238.555 158.800 241.777 158.799 L 245.000 158.797 245.717 157.054 C 246.385 155.428,246.392 155.111,245.817 152.355 C 245.478 150.730,245.201 149.265,245.200 149.100 C 245.200 148.935,243.616 148.800,241.680 148.800 L 238.159 148.800 237.280 150.611 M313.592 149.300 C 313.588 149.575,313.404 151.046,313.184 152.569 C 312.566 156.845,313.086 158.000,315.631 158.000 C 316.714 158.000,317.600 158.180,317.600 158.400 C 317.600 158.881,321.476 158.944,321.667 158.466 C 321.740 158.282,323.150 157.692,324.800 157.154 C 329.314 155.683,329.098 154.183,323.855 150.594 L 321.235 148.800 317.418 148.800 C 314.634 148.800,313.598 148.935,313.592 149.300 M65.064 174.700 C 64.687 175.415,64.159 176.015,63.890 176.034 C 63.620 176.053,63.936 176.229,64.590 176.424 C 66.112 176.878,66.419 176.536,66.047 174.800 L 65.748 173.400 65.064 174.700 M223.510 174.817 C 222.881 176.114,222.882 176.216,223.520 176.455 C 224.575 176.850,224.971 176.191,224.553 174.735 L 224.180 173.435 223.510 174.817 M305.709 174.938 L 304.418 176.312 305.709 176.513 C 307.304 176.762,307.504 176.546,307.223 174.882 L 307.000 173.565 305.709 174.938 M93.110 175.231 C 92.898 176.678,92.922 176.702,94.379 176.488 C 95.516 176.322,95.539 176.278,94.957 175.391 C 94.011 173.947,93.308 173.886,93.110 175.231 M175.770 174.977 C 175.456 176.229,175.803 176.777,176.753 176.528 C 177.445 176.347,177.459 176.239,176.923 175.166 C 176.216 173.748,176.084 173.726,175.770 174.977 M334.314 175.208 C 334.103 176.640,334.253 176.777,335.600 176.377 C 336.150 176.213,336.375 176.062,336.100 176.040 C 335.825 176.018,335.600 175.752,335.600 175.449 C 335.600 174.153,334.499 173.946,334.314 175.208 M115.682 183.096 C 117.158 183.173,119.678 183.173,121.282 183.097 C 122.887 183.021,121.680 182.958,118.600 182.958 C 115.520 182.957,114.207 183.019,115.682 183.096 M197.500 183.096 C 198.875 183.174,201.125 183.174,202.500 183.096 C 203.875 183.018,202.750 182.954,200.000 182.954 C 197.250 182.954,196.125 183.018,197.500 183.096 M277.919 183.098 C 279.744 183.172,282.624 183.172,284.319 183.097 C 286.014 183.022,284.520 182.961,281.000 182.962 C 277.480 182.962,276.094 183.024,277.919 183.098 M188.500 218.777 C 189.325 219.084,190.000 219.479,190.000 219.657 C 190.000 219.834,190.548 220.263,191.218 220.609 C 194.264 222.185,193.997 214.532,193.997 300.200 C 193.997 385.151,194.213 378.206,191.521 379.640 C 191.015 379.910,190.420 380.372,190.200 380.667 C 189.009 382.265,185.866 382.386,145.126 382.393 C 103.443 382.400,101.292 382.309,99.562 380.451 C 99.190 380.052,98.445 379.379,97.906 378.955 C 97.368 378.531,96.718 377.795,96.464 377.319 C 95.796 376.071,95.796 224.329,96.464 223.081 C 96.718 222.605,97.392 221.852,97.959 221.408 C 98.527 220.963,99.288 220.306,99.649 219.946 C 100.307 219.293,102.112 218.599,104.000 218.271 C 106.938 217.762,187.058 218.242,188.500 218.777 M298.729 218.749 C 299.461 219.052,300.626 219.817,301.319 220.449 C 302.011 221.082,302.714 221.600,302.879 221.600 C 304.419 221.600,304.400 220.597,304.400 300.200 C 304.400 379.901,304.421 378.800,302.866 378.800 C 302.693 378.800,301.993 379.346,301.311 380.014 C 298.887 382.383,298.827 382.386,255.400 382.386 C 212.619 382.386,211.840 382.349,209.703 380.212 C 209.146 379.655,208.533 379.200,208.340 379.200 C 208.146 379.200,207.632 378.615,207.196 377.900 C 206.413 376.616,206.403 375.658,206.401 300.280 C 206.400 215.921,206.184 222.540,208.990 220.806 C 209.766 220.327,210.400 219.793,210.400 219.619 C 210.400 219.343,212.085 218.795,214.600 218.254 C 216.950 217.748,297.454 218.222,298.729 218.749 " stroke="none" fill="#4c90c8" fill-rule="evenodd"></path><path id="path3" d="M46.800 20.388 C 43.316 20.828,41.001 22.165,40.611 23.962 C 40.488 24.533,40.291 25.450,40.173 26.000 C 40.056 26.550,39.852 31.001,39.720 35.892 C 39.438 46.363,39.696 47.352,43.224 49.335 L 45.118 50.400 200.166 50.400 L 355.215 50.400 357.143 49.392 C 360.605 47.582,360.978 46.169,360.646 36.118 C 360.225 23.367,360.110 22.896,357.042 21.277 L 355.000 20.200 202.000 20.156 C 117.850 20.131,48.010 20.236,46.800 20.388 M352.577 23.326 C 354.104 23.708,355.438 24.104,355.541 24.207 C 356.187 24.853,357.229 32.703,357.425 38.400 L 357.652 45.000 356.432 46.300 L 355.211 47.600 200.200 47.600 L 45.189 47.600 43.969 46.300 L 42.749 45.000 42.962 38.600 C 43.279 29.052,44.199 24.166,45.751 23.777 C 51.010 22.457,49.848 22.466,201.200 22.550 C 340.701 22.628,349.970 22.675,352.577 23.326 M15.643 54.840 C 14.959 56.208,14.400 57.572,14.400 57.870 C 14.400 58.167,13.896 58.904,13.281 59.506 C 12.665 60.108,12.542 60.285,13.007 59.900 C 13.471 59.515,14.110 59.199,14.426 59.199 C 14.924 59.198,17.344 52.868,16.996 52.476 C 16.935 52.408,16.327 53.472,15.643 54.840 M40.343 60.465 C 35.188 61.309,32.876 61.939,31.538 62.865 C 30.954 63.269,30.301 63.600,30.088 63.600 C 29.468 63.600,28.123 67.197,27.844 69.600 C 27.433 73.144,26.379 76.621,25.353 77.815 C 24.829 78.425,24.400 79.064,24.400 79.235 C 24.400 79.406,24.037 79.661,23.593 79.802 C 22.113 80.272,20.472 82.149,20.187 83.700 C 20.035 84.525,19.790 85.200,19.642 85.200 C 19.495 85.200,19.145 86.505,18.866 88.100 C 17.588 95.398,17.811 94.889,15.393 96.000 C 14.196 96.550,13.213 97.213,13.208 97.473 C 13.204 97.733,12.885 98.048,12.500 98.173 C 11.170 98.603,8.845 103.690,8.831 106.200 C 8.825 107.310,9.968 108.567,11.828 109.494 C 15.860 111.505,5.488 111.400,200.200 111.400 C 394.378 111.400,384.552 111.497,388.479 109.541 C 391.104 108.235,393.377 104.800,391.618 104.800 C 391.408 104.800,391.112 104.140,390.961 103.333 C 390.618 101.502,388.832 98.499,387.900 98.183 C 387.515 98.053,387.200 97.726,387.200 97.457 C 387.200 97.189,386.220 96.537,385.022 96.010 C 382.572 94.931,382.769 95.391,381.381 87.500 C 381.004 85.355,380.539 83.600,380.348 83.600 C 380.156 83.600,380.000 83.280,380.000 82.889 C 380.000 82.101,378.006 80.183,376.784 79.795 C 376.353 79.658,376.000 79.406,376.000 79.235 C 376.000 79.064,375.571 78.425,375.047 77.815 C 374.018 76.618,372.962 73.130,372.560 69.600 C 371.855 63.412,370.191 62.094,361.200 60.598 C 355.204 59.601,46.407 59.473,40.343 60.465 M358.080 62.563 C 360.561 63.221,361.722 63.645,362.000 63.991 C 362.110 64.129,363.049 64.559,364.086 64.948 C 366.295 65.777,368.561 68.519,369.008 70.904 C 369.163 71.727,369.441 72.400,369.626 72.400 C 369.812 72.400,370.079 73.075,370.219 73.900 C 371.088 79.007,372.831 82.228,375.616 83.873 C 377.220 84.820,378.683 87.875,379.486 91.951 C 379.838 93.738,380.270 95.200,380.445 95.200 C 380.620 95.200,380.886 95.875,381.036 96.700 C 381.374 98.565,382.640 101.135,383.756 102.224 C 387.354 105.734,387.933 107.080,386.061 107.583 C 385.182 107.820,384.399 108.204,384.322 108.435 C 383.801 109.997,384.071 109.995,200.200 109.990 C 17.152 109.985,17.018 109.984,16.036 108.478 C 15.906 108.279,15.126 107.896,14.302 107.628 C 12.875 107.162,12.664 106.080,13.895 105.535 C 14.063 105.461,14.719 104.635,15.354 103.700 C 15.989 102.765,16.661 102.000,16.848 102.000 C 17.319 102.000,19.200 98.199,19.200 97.247 C 19.200 96.818,19.378 96.407,19.595 96.333 C 19.812 96.260,20.353 94.490,20.799 92.400 C 21.798 87.709,23.147 84.840,24.818 83.853 C 27.408 82.323,30.000 77.656,30.000 74.522 C 30.000 74.015,30.162 73.600,30.360 73.600 C 30.558 73.600,30.942 72.655,31.214 71.500 C 31.949 68.374,33.962 65.838,36.406 64.959 C 37.503 64.565,38.400 64.126,38.400 63.985 C 38.400 63.844,39.165 63.497,40.100 63.215 C 41.035 62.934,42.250 62.559,42.800 62.383 C 44.771 61.753,355.696 61.930,358.080 62.563 M16.300 118.865 C 15.695 119.086,15.200 119.414,15.200 119.594 C 15.200 119.774,14.670 120.106,14.023 120.332 C 12.657 120.808,10.996 123.228,10.172 125.943 C 8.680 130.859,9.539 158.598,11.247 160.656 C 11.495 160.955,11.541 161.203,11.349 161.206 C 11.157 161.209,11.180 161.344,11.400 161.506 C 11.620 161.668,12.211 162.610,12.712 163.600 C 13.294 164.748,14.288 165.835,15.457 166.600 C 16.479 167.270,17.531 168.361,17.837 169.070 C 18.139 169.768,19.018 171.028,19.792 171.870 C 20.565 172.711,21.460 173.949,21.780 174.621 C 23.013 177.206,27.780 179.316,33.516 179.817 C 35.322 179.974,36.800 180.260,36.800 180.452 C 36.800 180.643,39.041 180.800,41.780 180.800 C 52.150 180.800,54.956 183.522,46.500 185.378 C 45.785 185.535,45.200 185.807,45.200 185.982 C 45.200 186.158,43.085 186.388,40.500 186.493 C 33.109 186.795,30.369 188.402,28.575 193.486 L 27.617 196.200 27.608 286.126 C 27.602 351.967,27.721 376.287,28.050 376.926 C 28.830 378.441,30.060 379.550,31.250 379.811 C 31.883 379.950,32.400 380.198,32.400 380.363 C 32.400 381.392,37.373 381.600,61.976 381.600 L 87.491 381.600 88.603 380.500 C 91.412 377.721,91.181 385.218,91.191 296.300 C 91.196 249.686,91.349 216.400,91.557 216.400 C 91.754 216.400,92.171 215.757,92.485 214.970 L 93.055 213.541 200.208 213.541 L 307.361 213.541 307.677 214.395 C 307.850 214.865,308.264 215.521,308.596 215.853 C 309.130 216.388,309.201 225.656,309.209 296.329 C 309.219 385.215,308.988 377.721,311.797 380.500 L 312.909 381.600 338.424 381.600 C 363.027 381.600,368.000 381.392,368.000 380.363 C 368.000 380.198,368.517 379.950,369.150 379.811 C 370.340 379.550,371.570 378.441,372.350 376.926 C 372.679 376.287,372.798 351.967,372.792 286.126 L 372.783 196.200 371.803 193.421 C 370.082 188.545,366.896 186.715,359.700 186.468 C 357.225 186.383,355.200 186.153,355.200 185.957 C 355.200 185.761,354.923 185.600,354.585 185.600 C 353.606 185.600,346.400 183.058,346.400 182.712 C 346.400 182.541,346.670 182.400,347.000 182.400 C 347.330 182.400,347.600 182.251,347.600 182.069 C 347.600 181.350,351.950 180.800,357.631 180.800 C 361.344 180.800,363.600 180.649,363.600 180.400 C 363.600 180.180,364.365 179.997,365.300 179.993 C 370.156 179.973,376.583 177.593,377.880 175.333 C 378.364 174.490,379.268 173.260,379.888 172.600 C 380.509 171.940,381.490 170.590,382.069 169.600 C 382.680 168.556,383.879 167.323,384.924 166.666 C 386.126 165.909,387.037 164.911,387.663 163.666 C 388.178 162.640,388.750 161.690,388.934 161.555 C 389.118 161.421,389.276 161.151,389.285 160.955 C 389.305 160.527,389.358 160.341,390.166 157.829 C 391.049 155.085,391.100 128.816,390.228 125.943 C 389.450 123.379,387.783 120.863,386.485 120.293 C 385.888 120.031,385.306 119.689,385.192 119.533 C 385.077 119.377,384.481 119.059,383.866 118.825 C 382.345 118.247,17.884 118.286,16.300 118.865 M383.874 124.070 C 384.383 124.548,384.800 125.154,384.800 125.415 C 384.800 125.677,385.279 126.370,385.864 126.954 L 386.927 128.018 386.680 139.675 C 386.544 146.087,386.272 151.438,386.074 151.566 C 385.877 151.695,385.620 152.610,385.503 153.600 C 385.187 156.280,383.534 159.337,380.756 162.382 C 380.402 162.770,379.322 164.664,378.356 166.591 C 376.799 169.697,376.411 170.176,374.932 170.819 C 373.204 171.570,370.000 174.205,370.000 174.875 C 370.000 178.533,352.989 178.478,350.897 174.813 C 350.258 173.694,349.178 172.755,347.197 171.598 C 345.659 170.700,344.400 169.829,344.400 169.663 C 344.400 169.497,343.721 168.932,342.891 168.407 C 341.466 167.507,339.200 164.817,339.200 164.027 C 339.200 163.827,338.162 162.615,336.894 161.332 C 333.882 158.285,333.671 157.729,332.765 150.408 C 331.534 140.465,331.699 141.022,329.445 139.234 L 327.890 138.000 320.551 138.000 L 313.213 138.000 311.971 139.109 C 310.403 140.510,309.771 142.860,309.134 149.656 C 308.869 152.485,308.535 154.800,308.390 154.800 C 308.246 154.800,307.890 155.790,307.600 157.000 C 307.310 158.210,306.908 159.200,306.708 159.200 C 305.771 159.200,302.190 162.159,298.000 166.394 C 295.470 168.952,292.647 171.625,291.727 172.334 C 290.767 173.075,289.866 174.193,289.614 174.957 C 288.814 177.381,287.201 177.760,279.111 177.426 C 272.292 177.145,270.400 176.738,270.400 175.553 C 270.400 174.965,267.201 171.654,266.381 171.394 C 266.016 171.278,265.380 170.557,264.968 169.792 C 264.555 169.026,264.104 168.400,263.966 168.400 C 263.633 168.400,260.800 164.125,260.800 163.623 C 260.800 163.409,259.809 162.266,258.597 161.083 C 255.777 158.330,253.666 155.356,253.355 153.701 C 253.221 152.985,252.965 152.400,252.787 152.400 C 252.354 152.400,251.704 150.268,251.383 147.800 C 250.304 139.487,248.764 138.000,241.235 138.000 C 230.632 138.000,229.263 139.247,227.183 150.800 C 226.252 155.969,225.782 157.445,224.963 157.759 C 224.654 157.878,224.400 158.142,224.400 158.345 C 224.400 158.549,223.905 159.250,223.300 159.904 C 222.695 160.558,221.675 162.107,221.033 163.346 C 220.392 164.586,219.739 165.600,219.583 165.600 C 219.427 165.600,218.880 166.550,218.368 167.710 C 217.550 169.563,217.162 169.953,215.182 170.910 C 212.997 171.966,209.200 175.132,209.200 175.899 C 209.200 176.509,203.430 177.600,200.200 177.600 C 196.962 177.600,191.200 176.509,191.200 175.896 C 191.200 175.119,187.118 171.716,185.093 170.805 C 183.194 169.950,182.893 169.628,181.843 167.331 C 181.207 165.939,180.535 164.800,180.349 164.800 C 180.163 164.800,179.752 164.181,179.436 163.424 C 179.120 162.667,178.127 161.252,177.231 160.279 C 176.334 159.307,175.600 158.306,175.600 158.055 C 175.600 157.805,175.442 157.600,175.249 157.600 C 174.622 157.600,174.040 155.505,173.192 150.200 C 171.346 138.659,170.646 138.033,159.549 138.010 C 151.780 137.993,150.402 139.112,149.216 146.400 C 148.736 149.347,147.572 153.200,147.161 153.200 C 147.010 153.200,146.763 153.695,146.612 154.300 C 146.461 154.905,145.902 155.973,145.369 156.673 C 144.836 157.374,144.400 158.095,144.400 158.276 C 144.400 158.458,143.230 159.733,141.800 161.109 C 140.370 162.486,139.200 163.786,139.200 163.999 C 139.200 164.784,135.650 169.971,134.444 170.949 C 132.854 172.238,130.125 175.088,129.890 175.706 C 129.452 176.854,128.062 177.125,121.046 177.428 C 113.145 177.769,111.718 177.410,110.702 174.824 C 110.374 173.987,109.428 172.820,108.557 172.175 C 107.701 171.540,104.910 168.902,102.356 166.311 C 99.802 163.720,97.603 161.600,97.470 161.600 C 94.854 161.600,92.523 157.979,92.128 153.300 C 91.993 151.705,91.755 150.400,91.599 150.400 C 91.443 150.400,91.198 149.145,91.056 147.612 C 90.596 142.667,90.015 140.735,88.543 139.263 L 87.192 137.912 79.854 138.058 L 72.515 138.203 70.917 139.602 C 69.113 141.180,68.479 143.353,67.588 151.000 C 66.905 156.866,66.228 158.788,64.377 160.119 C 63.453 160.783,62.076 162.508,60.921 164.452 C 59.818 166.306,58.548 167.916,57.938 168.232 C 57.354 168.534,56.619 169.038,56.306 169.351 C 55.992 169.665,54.840 170.390,53.745 170.962 C 51.536 172.117,49.429 174.133,49.024 175.477 C 48.673 176.645,45.383 177.600,41.709 177.600 C 38.544 177.600,31.466 176.489,31.268 175.961 C 30.910 175.004,27.200 171.927,25.710 171.352 C 24.176 170.759,20.800 165.465,20.800 163.652 C 20.800 163.486,20.485 162.996,20.100 162.562 C 18.566 160.832,16.800 158.426,16.800 158.066 C 16.800 157.857,16.564 157.595,16.276 157.484 C 15.394 157.146,14.771 154.203,14.518 149.185 C 14.386 146.553,14.125 144.400,13.939 144.400 C 12.956 144.400,13.575 128.069,14.600 126.962 C 15.150 126.369,15.600 125.696,15.600 125.467 C 15.600 125.239,15.991 124.635,16.470 124.126 L 17.339 123.200 200.144 123.200 L 382.948 123.200 383.874 124.070 M86.967 142.900 C 89.596 152.006,89.935 160.808,87.740 163.003 C 86.932 163.810,72.580 163.463,71.674 162.613 C 70.522 161.532,70.196 157.110,70.896 152.045 C 71.838 145.228,72.069 144.801,75.439 143.653 C 76.958 143.136,78.470 142.557,78.800 142.368 C 80.275 141.523,86.690 141.941,86.967 142.900 M163.852 143.464 C 165.775 145.040,168.629 150.237,169.073 152.972 C 169.200 153.757,169.461 154.400,169.652 154.400 C 169.844 154.400,170.000 154.940,170.000 155.600 C 170.000 156.260,169.820 156.800,169.600 156.800 C 169.380 156.800,169.200 157.214,169.200 157.720 C 169.200 161.679,164.996 163.781,158.143 163.249 C 152.824 162.836,152.097 162.203,151.430 157.400 C 151.180 155.600,152.288 148.272,152.842 148.067 C 153.039 147.993,153.200 147.690,153.200 147.393 C 153.200 147.096,153.674 145.761,154.252 144.426 L 155.305 142.000 158.685 142.000 C 161.984 142.000,162.108 142.035,163.852 143.464 M246.029 144.300 C 246.536 145.565,247.080 146.690,247.239 146.801 C 248.987 148.020,249.257 162.400,247.532 162.400 C 247.318 162.400,246.848 162.695,246.487 163.056 C 245.005 164.538,232.846 163.053,231.662 161.245 C 229.355 157.723,231.875 148.145,236.227 143.900 L 238.174 142.000 241.641 142.000 L 245.107 142.000 246.029 144.300 M323.584 142.640 C 328.133 143.472,327.907 143.250,328.872 147.835 C 330.509 155.620,329.867 161.836,327.319 162.851 C 326.114 163.332,314.660 163.463,313.241 163.013 C 310.501 162.143,310.591 152.742,313.433 142.900 C 313.764 141.756,318.139 141.644,323.584 142.640 M67.229 170.461 C 68.370 176.365,67.478 178.248,63.706 177.899 C 58.960 177.459,58.380 176.616,60.832 173.724 C 61.730 172.666,62.866 171.325,63.357 170.745 C 63.848 170.164,64.571 169.198,64.964 168.598 C 65.885 167.194,66.733 167.891,67.229 170.461 M98.808 172.381 C 104.153 176.448,104.019 176.266,102.209 177.022 C 99.371 178.208,93.879 178.284,92.454 177.157 C 91.263 176.215,90.537 172.400,91.549 172.400 C 91.741 172.400,92.016 171.657,92.162 170.750 C 92.649 167.702,93.125 167.243,94.362 168.624 C 94.941 169.271,96.942 170.962,98.808 172.381 M177.187 169.306 C 177.209 169.822,180.093 174.000,180.427 174.000 C 181.064 174.000,181.951 176.344,181.461 176.731 C 179.667 178.150,175.800 178.274,173.820 176.977 C 172.641 176.204,172.613 174.974,173.686 171.000 C 174.440 168.208,177.088 166.926,177.187 169.306 M225.516 168.402 C 227.122 170.126,227.728 175.799,226.431 176.972 C 224.559 178.666,218.066 177.743,218.627 175.863 C 218.769 175.388,219.195 174.730,219.573 174.400 C 220.488 173.601,222.924 170.078,223.513 168.700 C 224.072 167.391,224.513 167.326,225.516 168.402 M308.000 169.676 C 308.000 170.074,308.162 170.400,308.359 170.400 C 309.481 170.400,309.298 176.092,308.145 177.067 C 305.961 178.916,295.605 177.549,297.556 175.669 C 299.031 174.248,302.359 171.600,302.671 171.600 C 302.851 171.600,303.867 170.655,304.930 169.500 C 306.941 167.314,308.000 167.375,308.000 169.676 M336.902 170.503 C 337.288 171.094,338.423 172.500,339.424 173.627 C 341.517 175.983,341.553 176.807,339.595 177.477 C 337.089 178.335,334.268 178.136,333.227 177.028 C 332.175 175.909,332.562 170.433,333.829 168.500 L 334.456 167.543 335.328 168.486 C 335.808 169.005,336.516 169.913,336.902 170.503 M162.300 169.031 C 163.015 169.144,163.600 169.372,163.600 169.538 C 163.600 169.704,164.215 170.062,164.966 170.333 C 166.456 170.872,169.200 173.640,169.200 174.605 C 169.200 176.010,173.991 180.000,175.678 180.000 C 176.075 180.000,176.400 180.180,176.400 180.400 C 176.400 180.620,176.694 180.800,177.053 180.800 C 177.938 180.800,180.463 182.375,181.192 183.382 C 187.186 191.660,214.281 191.751,219.047 183.508 C 219.561 182.619,222.388 180.800,223.256 180.800 C 223.665 180.800,224.000 180.623,224.000 180.408 C 224.000 180.192,224.495 179.895,225.100 179.748 C 226.575 179.390,229.529 177.255,229.820 176.337 C 229.949 175.932,230.199 175.600,230.376 175.600 C 230.553 175.600,230.813 174.880,230.954 173.999 C 231.208 172.408,233.661 170.000,235.027 170.000 C 235.305 170.000,235.609 169.775,235.701 169.500 C 235.823 169.137,237.067 169.012,240.238 169.043 L 244.606 169.086 246.125 170.605 C 247.828 172.308,248.800 173.965,248.800 175.166 C 248.800 176.775,250.987 178.624,253.786 179.381 C 255.224 179.770,256.400 180.227,256.400 180.397 C 256.400 180.566,257.211 180.909,258.203 181.159 C 259.844 181.572,263.073 184.016,265.200 186.455 C 267.786 189.419,284.178 190.925,289.289 188.667 C 290.450 188.154,291.850 187.620,292.400 187.480 C 292.950 187.339,294.120 186.593,295.000 185.820 C 295.880 185.047,296.754 184.412,296.942 184.408 C 297.131 184.403,297.941 183.897,298.742 183.282 C 300.656 181.816,301.937 181.289,304.384 180.964 C 305.493 180.817,306.400 180.540,306.400 180.348 C 306.400 180.157,306.670 180.000,307.000 180.000 C 308.316 180.000,310.680 177.001,310.976 174.953 C 311.248 173.080,312.877 169.030,313.501 168.677 C 314.049 168.367,322.907 169.126,323.155 169.504 C 323.290 169.709,324.282 169.995,325.360 170.139 C 328.108 170.507,329.117 171.566,329.799 174.800 C 329.992 175.721,330.744 176.816,331.994 178.000 C 334.565 180.436,335.061 180.800,335.803 180.800 C 336.963 180.800,338.696 181.954,339.990 183.588 C 340.693 184.475,341.509 185.200,341.805 185.200 C 342.101 185.200,342.601 185.458,342.916 185.773 C 344.261 187.118,352.801 189.295,357.800 189.568 C 362.480 189.823,364.881 190.432,366.148 191.685 C 366.435 191.968,367.463 192.915,368.434 193.789 L 370.200 195.379 370.303 285.858 C 370.393 365.997,370.336 376.407,369.803 376.940 C 369.472 377.271,368.165 377.960,366.900 378.471 L 364.600 379.400 338.951 379.511 L 313.303 379.622 312.051 378.197 L 310.800 376.772 310.800 297.049 C 310.800 208.007,311.008 214.644,308.116 211.579 L 307.003 210.400 200.190 210.400 L 93.378 210.400 92.235 211.700 C 89.393 214.931,89.600 208.225,89.600 297.049 L 89.600 376.772 88.359 378.186 L 87.117 379.600 62.201 379.600 C 34.837 379.600,33.664 379.504,31.005 377.040 L 30.000 376.108 30.000 286.054 C 30.000 226.285,30.135 196.000,30.400 196.000 C 30.620 196.000,30.800 195.730,30.800 195.400 C 30.800 192.760,37.049 189.600,42.270 189.600 C 46.108 189.600,53.992 187.551,55.339 186.204 C 55.614 185.929,56.460 185.386,57.220 184.998 C 57.979 184.610,59.357 183.600,60.283 182.754 C 61.413 181.721,62.497 181.130,63.583 180.956 C 64.472 180.814,65.200 180.541,65.200 180.349 C 65.200 180.157,65.463 180.000,65.785 180.000 C 67.070 180.000,69.974 176.560,70.412 174.519 C 70.952 171.999,72.168 170.000,73.161 170.000 C 73.586 170.000,74.007 169.779,74.097 169.509 C 74.462 168.413,86.195 168.862,87.146 170.009 C 88.092 171.150,89.200 174.105,89.200 175.486 C 89.200 176.518,92.468 180.000,93.437 180.000 C 93.747 180.000,94.000 180.160,94.000 180.355 C 94.000 180.550,94.855 180.837,95.900 180.993 C 98.133 181.326,100.267 182.159,101.395 183.137 C 101.838 183.522,102.708 184.090,103.328 184.401 C 103.949 184.711,104.868 185.377,105.371 185.880 C 105.874 186.383,107.851 187.426,109.765 188.197 L 113.245 189.600 120.338 189.600 C 129.323 189.600,133.353 188.507,136.300 185.272 C 137.235 184.245,138.000 183.276,138.000 183.117 C 138.000 182.517,141.033 180.800,142.093 180.800 C 142.702 180.800,143.200 180.640,143.200 180.443 C 143.200 180.247,144.415 179.852,145.900 179.564 C 148.889 178.986,151.200 177.184,151.200 175.431 C 151.200 174.139,152.005 171.919,152.760 171.131 C 153.112 170.763,153.787 170.036,154.260 169.515 C 155.138 168.550,158.113 168.371,162.300 169.031 M255.782 170.783 C 259.249 171.253,259.797 171.592,261.958 174.601 L 263.225 176.365 262.255 177.001 C 260.763 177.978,258.829 178.131,256.198 177.478 C 254.879 177.151,253.305 176.771,252.700 176.634 L 251.600 176.385 251.600 172.716 C 251.600 169.700,251.689 169.163,252.100 169.699 C 252.425 170.124,253.713 170.503,255.782 170.783 M145.248 172.034 C 145.840 172.455,146.590 172.800,146.916 172.800 C 147.638 172.800,148.800 174.488,148.800 175.537 C 148.800 176.477,142.060 178.217,140.144 177.771 C 137.727 177.209,137.104 176.523,137.887 175.289 C 140.783 170.731,142.408 170.012,145.248 172.034 M129.884 181.161 C 132.325 181.633,133.969 182.762,133.003 183.302 C 130.506 184.700,127.262 185.600,124.724 185.600 C 123.175 185.600,122.000 185.772,122.000 186.000 C 122.000 186.479,113.732 186.557,113.533 186.079 C 113.460 185.903,112.096 185.113,110.503 184.323 L 107.606 182.888 108.668 182.192 C 109.253 181.809,110.196 181.355,110.765 181.182 C 112.144 180.764,127.746 180.747,129.884 181.161 M212.136 182.000 L 213.612 183.000 212.064 183.690 C 211.213 184.069,209.096 184.688,207.358 185.065 C 205.621 185.443,204.140 185.897,204.067 186.076 C 203.890 186.504,196.000 186.497,196.000 186.068 C 196.000 185.886,194.605 185.431,192.900 185.058 C 191.195 184.686,189.082 184.058,188.203 183.663 L 186.607 182.945 187.755 182.193 C 190.496 180.397,209.548 180.247,212.136 182.000 M290.922 181.946 L 292.444 182.893 289.722 184.306 C 288.225 185.083,286.940 185.872,286.867 186.059 C 286.674 186.551,277.600 186.493,277.600 186.000 C 277.600 185.779,276.559 185.600,275.276 185.600 C 273.172 185.600,269.707 184.595,267.444 183.328 C 266.823 182.981,266.831 182.896,267.547 182.248 C 269.499 180.482,288.178 180.241,290.922 181.946 M389.397 290.000 C 389.397 341.590,389.443 362.695,389.500 336.900 C 389.557 311.105,389.557 268.895,389.500 243.100 C 389.443 217.305,389.397 238.410,389.397 290.000 M104.014 220.834 C 102.812 221.261,101.237 222.183,100.514 222.883 L 99.200 224.157 99.200 300.232 L 99.200 376.307 100.718 377.679 C 101.553 378.433,103.083 379.287,104.118 379.577 C 105.153 379.867,106.000 380.261,106.000 380.452 C 106.000 380.647,123.150 380.800,145.000 380.800 C 167.231 380.800,184.000 380.648,184.000 380.447 C 184.000 380.254,184.813 379.890,185.807 379.640 C 186.857 379.376,188.282 378.581,189.207 377.746 L 190.800 376.307 190.800 300.200 L 190.800 224.093 189.245 222.688 C 186.164 219.905,187.705 219.997,144.738 220.029 C 107.662 220.057,106.117 220.088,104.014 220.834 M214.466 220.783 C 213.292 221.183,211.717 222.105,210.966 222.833 L 209.600 224.157 209.600 300.232 L 209.600 376.307 211.193 377.746 C 212.118 378.581,213.543 379.376,214.593 379.640 C 215.587 379.890,216.400 380.254,216.400 380.447 C 216.400 380.648,233.169 380.800,255.400 380.800 C 277.250 380.800,294.400 380.647,294.400 380.452 C 294.400 380.261,295.247 379.867,296.282 379.577 C 297.317 379.287,298.847 378.433,299.682 377.679 L 301.200 376.307 301.200 300.232 L 301.200 224.157 299.891 222.888 C 296.793 219.886,298.523 219.997,255.237 220.028 C 218.989 220.054,216.468 220.101,214.466 220.783 M184.993 223.300 L 186.778 224.200 186.778 300.200 L 186.778 376.200 184.993 377.100 L 183.209 378.000 144.959 378.000 L 106.709 378.000 105.154 377.126 L 103.600 376.253 103.600 300.205 L 103.600 224.157 105.100 223.288 L 106.600 222.418 144.904 222.409 L 183.209 222.400 184.993 223.300 M295.246 223.274 L 296.800 224.147 296.800 300.200 L 296.800 376.253 295.246 377.126 L 293.691 378.000 255.441 378.000 L 217.191 378.000 215.407 377.100 L 213.622 376.200 213.622 300.200 L 213.622 224.200 215.311 223.322 L 217.000 222.443 255.346 222.422 L 293.691 222.400 295.246 223.274 " stroke="none" fill="#7eb4e2" fill-rule="evenodd"></path><path id="path4" d="M41.229 18.405 C 39.896 18.719,38.427 20.111,38.409 21.077 C 38.404 21.340,37.995 21.838,37.500 22.185 C 37.005 22.532,36.645 22.902,36.700 23.008 C 36.755 23.113,36.777 23.245,36.749 23.300 C 36.720 23.355,36.654 24.815,36.602 26.544 C 36.536 28.695,36.331 29.800,35.953 30.044 C 35.488 30.343,35.496 30.463,36.000 30.794 C 36.401 31.057,36.434 31.190,36.100 31.194 C 35.825 31.197,35.600 31.650,35.600 32.200 C 35.600 32.750,35.780 33.200,36.000 33.200 C 36.249 33.200,36.400 35.481,36.400 39.242 C 36.400 45.211,36.412 45.294,37.400 46.071 C 37.950 46.504,38.400 47.191,38.400 47.598 C 38.400 48.715,40.254 50.690,41.773 51.191 C 43.101 51.629,43.112 51.653,42.543 52.794 C 41.333 55.219,38.135 57.992,36.543 57.997 C 36.071 57.999,35.592 58.245,35.477 58.544 C 35.287 59.040,34.526 59.221,29.900 59.873 C 29.075 59.989,28.400 60.245,28.400 60.442 C 28.400 60.639,28.152 60.800,27.849 60.800 C 26.789 60.800,25.609 65.807,25.603 70.329 C 25.601 71.624,25.379 72.678,25.036 73.021 C 24.725 73.332,24.401 73.796,24.315 74.054 C 24.168 74.497,23.347 74.691,21.300 74.767 C 20.790 74.786,20.400 75.055,20.400 75.387 C 20.400 75.731,20.164 75.884,19.831 75.756 C 19.294 75.551,18.492 76.565,18.056 78.000 C 17.956 78.330,17.801 80.447,17.711 82.705 L 17.548 86.810 15.974 87.613 C 15.108 88.055,14.400 88.608,14.400 88.841 C 14.400 89.075,14.180 89.193,13.912 89.104 C 13.380 88.927,12.284 90.739,11.850 92.514 C 11.572 93.652,10.103 94.573,8.286 94.750 C 7.009 94.874,6.133 97.361,5.734 102.000 C 5.211 108.067,5.596 109.090,9.020 110.736 C 13.062 112.679,5.002 112.600,200.400 112.600 C 396.451 112.600,387.378 112.689,391.455 110.717 C 394.803 109.099,395.188 108.053,394.666 102.000 C 394.278 97.497,393.406 94.915,392.214 94.739 C 389.831 94.388,388.863 93.718,388.427 92.118 C 387.924 90.274,386.401 88.431,385.186 88.197 C 383.235 87.821,382.861 86.993,382.688 82.661 C 382.516 78.367,382.441 77.908,381.686 76.536 C 381.359 75.941,380.958 75.738,380.399 75.884 C 379.774 76.048,379.645 75.948,379.837 75.448 C 380.021 74.968,379.842 74.791,379.143 74.767 C 377.061 74.693,376.233 74.500,376.085 74.054 C 375.999 73.796,375.675 73.332,375.364 73.021 C 375.025 72.682,374.800 71.638,374.800 70.405 C 374.800 68.585,374.272 64.032,373.801 61.792 C 373.495 60.337,372.143 59.312,370.131 59.011 C 369.069 58.852,368.068 58.514,367.906 58.261 C 367.706 57.947,367.608 57.992,367.600 58.400 C 367.589 58.919,367.538 58.922,367.221 58.420 C 366.979 58.038,366.298 57.873,365.222 57.937 C 363.103 58.062,361.113 57.092,359.741 55.264 C 359.137 54.459,358.543 53.710,358.421 53.600 C 357.194 52.490,357.338 51.783,358.952 51.000 C 360.144 50.421,360.848 49.702,361.497 48.400 C 361.990 47.410,362.845 46.204,363.397 45.719 C 364.464 44.782,365.004 36.800,364.000 36.800 C 363.421 36.800,363.507 35.304,364.100 35.064 C 364.488 34.906,364.478 34.775,364.055 34.479 C 363.594 34.156,363.594 34.058,364.055 33.848 C 364.477 33.656,364.487 33.547,364.100 33.367 C 363.488 33.081,363.393 27.600,364.000 27.600 C 364.220 27.600,364.400 27.401,364.400 27.157 C 364.400 26.914,364.175 26.801,363.900 26.906 C 363.561 27.036,363.400 26.664,363.400 25.749 C 363.400 24.898,363.595 24.400,363.929 24.400 C 364.325 24.400,364.301 24.244,363.832 23.774 C 363.488 23.430,363.044 23.249,362.846 23.372 C 362.648 23.494,362.372 23.143,362.234 22.591 C 361.982 21.591,361.244 20.528,359.882 19.205 C 359.487 18.821,358.227 18.395,357.082 18.257 C 353.974 17.884,42.823 18.029,41.229 18.405 M357.042 21.277 C 360.110 22.896,360.225 23.367,360.646 36.118 C 360.978 46.169,360.605 47.582,357.143 49.392 L 355.215 50.400 200.166 50.400 L 45.118 50.400 43.224 49.335 C 39.696 47.352,39.438 46.363,39.720 35.892 C 39.852 31.001,40.056 26.550,40.173 26.000 C 40.291 25.450,40.488 24.533,40.611 23.962 C 41.001 22.165,43.316 20.828,46.800 20.388 C 48.010 20.236,117.850 20.131,202.000 20.156 L 355.000 20.200 357.042 21.277 M361.200 60.598 C 370.191 62.094,371.855 63.412,372.560 69.600 C 372.962 73.130,374.018 76.618,375.047 77.815 C 375.571 78.425,376.000 79.064,376.000 79.235 C 376.000 79.406,376.353 79.658,376.784 79.795 C 378.006 80.183,380.000 82.101,380.000 82.889 C 380.000 83.280,380.156 83.600,380.348 83.600 C 380.539 83.600,381.004 85.355,381.381 87.500 C 382.769 95.391,382.572 94.931,385.022 96.010 C 386.220 96.537,387.200 97.189,387.200 97.457 C 387.200 97.726,387.515 98.053,387.900 98.183 C 388.832 98.499,390.618 101.502,390.961 103.333 C 391.112 104.140,391.408 104.800,391.618 104.800 C 393.377 104.800,391.104 108.235,388.479 109.541 C 384.552 111.497,394.378 111.400,200.200 111.400 C 5.488 111.400,15.860 111.505,11.828 109.494 C 9.968 108.567,8.825 107.310,8.831 106.200 C 8.845 103.690,11.170 98.603,12.500 98.173 C 12.885 98.048,13.204 97.733,13.208 97.473 C 13.213 97.213,14.196 96.550,15.393 96.000 C 17.811 94.889,17.588 95.398,18.866 88.100 C 19.145 86.505,19.495 85.200,19.642 85.200 C 19.790 85.200,20.035 84.525,20.187 83.700 C 20.472 82.149,22.113 80.272,23.593 79.802 C 24.037 79.661,24.400 79.406,24.400 79.235 C 24.400 79.064,24.829 78.425,25.353 77.815 C 26.379 76.621,27.433 73.144,27.844 69.600 C 28.123 67.197,29.468 63.600,30.088 63.600 C 30.301 63.600,30.954 63.269,31.538 62.865 C 32.876 61.939,35.188 61.309,40.343 60.465 C 46.407 59.473,355.204 59.601,361.200 60.598 M13.800 117.008 C 12.700 117.314,11.680 117.573,11.533 117.582 C 10.643 117.641,7.851 121.035,7.365 122.649 C 6.242 126.381,5.616 157.882,6.567 162.817 C 6.844 164.256,7.026 165.741,6.971 166.117 C 6.916 166.493,7.065 166.800,7.302 166.800 C 7.539 166.800,7.624 166.909,7.491 167.042 C 7.358 167.176,7.643 167.699,8.124 168.205 C 8.606 168.711,9.315 169.539,9.700 170.044 C 10.085 170.549,10.400 170.836,10.400 170.681 C 10.400 170.527,10.747 170.715,11.171 171.100 C 12.490 172.297,12.973 172.596,13.800 172.726 C 17.074 173.242,18.710 174.532,19.083 176.891 C 19.143 177.271,19.509 177.961,19.896 178.425 C 20.283 178.888,20.895 179.617,21.256 180.045 C 22.376 181.371,29.747 182.341,43.200 182.932 C 45.331 183.025,45.151 183.060,42.200 183.126 C 33.329 183.324,29.298 184.276,28.182 186.436 C 25.921 190.808,26.011 186.680,26.005 285.943 L 26.000 376.887 26.898 378.844 C 28.675 382.719,29.333 382.793,61.600 382.796 C 90.056 382.799,89.777 382.820,90.970 380.600 C 91.207 380.160,91.580 379.672,91.800 379.515 C 92.063 379.327,92.268 351.504,92.400 298.115 C 92.582 224.359,92.703 215.581,93.543 215.608 C 93.684 215.613,97.220 215.880,101.400 216.203 C 113.238 217.115,176.212 217.062,189.728 216.128 C 198.634 215.513,200.445 215.500,207.328 216.004 C 212.830 216.407,225.521 216.608,252.200 216.716 C 286.697 216.855,295.479 216.696,304.822 215.762 C 308.295 215.415,308.000 207.788,308.000 298.019 C 308.000 342.277,308.154 378.400,308.342 378.400 C 308.530 378.400,308.847 378.967,309.045 379.659 C 309.930 382.743,308.441 382.586,338.129 382.712 C 370.945 382.850,371.702 382.768,373.502 378.844 L 374.400 376.887 374.400 286.296 C 374.400 188.564,374.461 191.523,372.367 186.927 C 371.113 184.176,370.246 183.969,356.200 183.072 C 355.100 183.002,356.090 182.909,358.400 182.866 C 368.114 182.684,377.091 181.540,378.503 180.304 C 378.996 179.871,379.721 179.290,380.113 179.012 C 380.505 178.734,380.908 178.079,381.008 177.557 C 381.527 174.863,382.888 173.263,384.896 172.987 C 385.955 172.841,387.073 172.470,387.382 172.161 C 387.690 171.852,388.091 171.597,388.271 171.593 C 388.656 171.585,390.400 169.809,390.400 169.425 C 390.400 169.035,392.309 167.200,392.715 167.200 C 392.908 167.200,393.077 166.975,393.089 166.700 C 393.145 165.417,393.654 162.003,393.945 160.960 C 394.270 159.794,394.176 133.773,393.826 127.800 C 393.473 121.781,391.685 118.663,387.734 117.179 C 385.462 116.324,16.862 116.156,13.800 117.008 M383.866 118.825 C 384.481 119.059,385.077 119.377,385.192 119.533 C 385.306 119.689,385.888 120.031,386.485 120.293 C 387.783 120.863,389.450 123.379,390.228 125.943 C 391.100 128.816,391.049 155.085,390.166 157.829 C 389.358 160.341,389.305 160.527,389.285 160.955 C 389.276 161.151,389.118 161.421,388.934 161.555 C 388.750 161.690,388.178 162.640,387.663 163.666 C 387.037 164.911,386.126 165.909,384.924 166.666 C 383.879 167.323,382.680 168.556,382.069 169.600 C 381.490 170.590,380.509 171.940,379.888 172.600 C 379.268 173.260,378.364 174.490,377.880 175.333 C 376.583 177.593,370.156 179.973,365.300 179.993 C 364.365 179.997,363.600 180.180,363.600 180.400 C 363.600 180.649,361.344 180.800,357.631 180.800 C 351.950 180.800,347.600 181.350,347.600 182.069 C 347.600 182.251,347.330 182.400,347.000 182.400 C 346.670 182.400,346.400 182.541,346.400 182.712 C 346.400 183.058,353.606 185.600,354.585 185.600 C 354.923 185.600,355.200 185.761,355.200 185.957 C 355.200 186.153,357.225 186.383,359.700 186.468 C 366.896 186.715,370.082 188.545,371.803 193.421 L 372.783 196.200 372.792 286.126 C 372.798 351.967,372.679 376.287,372.350 376.926 C 371.570 378.441,370.340 379.550,369.150 379.811 C 368.517 379.950,368.000 380.198,368.000 380.363 C 368.000 381.392,363.027 381.600,338.424 381.600 L 312.909 381.600 311.797 380.500 C 308.988 377.721,309.219 385.215,309.209 296.329 C 309.201 225.656,309.130 216.388,308.596 215.853 C 308.264 215.521,307.850 214.865,307.677 214.395 L 307.361 213.541 200.208 213.541 L 93.055 213.541 92.485 214.970 C 92.171 215.757,91.754 216.400,91.557 216.400 C 91.349 216.400,91.196 249.686,91.191 296.300 C 91.181 385.218,91.412 377.721,88.603 380.500 L 87.491 381.600 61.976 381.600 C 37.373 381.600,32.400 381.392,32.400 380.363 C 32.400 380.198,31.883 379.950,31.250 379.811 C 30.060 379.550,28.830 378.441,28.050 376.926 C 27.721 376.287,27.602 351.967,27.608 286.126 L 27.617 196.200 28.575 193.486 C 30.369 188.402,33.109 186.795,40.500 186.493 C 43.085 186.388,45.200 186.158,45.200 185.982 C 45.200 185.807,45.785 185.535,46.500 185.378 C 54.956 183.522,52.150 180.800,41.780 180.800 C 39.041 180.800,36.800 180.643,36.800 180.452 C 36.800 180.260,35.322 179.974,33.516 179.817 C 27.780 179.316,23.013 177.206,21.780 174.621 C 21.460 173.949,20.565 172.711,19.792 171.870 C 19.018 171.028,18.139 169.768,17.837 169.070 C 17.531 168.361,16.479 167.270,15.457 166.600 C 14.288 165.835,13.294 164.748,12.712 163.600 C 12.211 162.610,11.620 161.668,11.400 161.506 C 11.180 161.344,11.157 161.209,11.349 161.206 C 11.541 161.203,11.495 160.955,11.247 160.656 C 9.539 158.598,8.680 130.859,10.172 125.943 C 10.996 123.228,12.657 120.808,14.023 120.332 C 14.670 120.106,15.200 119.774,15.200 119.594 C 15.200 119.414,15.695 119.086,16.300 118.865 C 17.884 118.286,382.345 118.247,383.866 118.825 M78.800 142.368 C 78.470 142.557,76.958 143.136,75.439 143.653 C 72.069 144.801,71.838 145.228,70.896 152.045 C 70.196 157.110,70.522 161.532,71.674 162.613 C 72.580 163.463,86.932 163.810,87.740 163.003 C 89.935 160.808,89.596 152.006,86.967 142.900 C 86.690 141.941,80.275 141.523,78.800 142.368 M154.252 144.426 C 153.674 145.761,153.200 147.096,153.200 147.393 C 153.200 147.690,153.039 147.993,152.842 148.067 C 152.288 148.272,151.180 155.600,151.430 157.400 C 152.097 162.203,152.824 162.836,158.143 163.249 C 164.996 163.781,169.200 161.679,169.200 157.720 C 169.200 157.214,169.380 156.800,169.600 156.800 C 169.820 156.800,170.000 156.260,170.000 155.600 C 170.000 154.940,169.844 154.400,169.652 154.400 C 169.461 154.400,169.200 153.757,169.073 152.972 C 168.032 146.558,163.717 142.000,158.685 142.000 L 155.305 142.000 154.252 144.426 M236.227 143.900 C 231.875 148.145,229.355 157.723,231.662 161.245 C 232.846 163.053,245.005 164.538,246.487 163.056 C 246.848 162.695,247.318 162.400,247.532 162.400 C 249.257 162.400,248.987 148.020,247.239 146.801 C 247.080 146.690,246.536 145.565,246.029 144.300 L 245.107 142.000 241.641 142.000 L 238.174 142.000 236.227 143.900 M313.433 142.900 C 310.591 152.742,310.501 162.143,313.241 163.013 C 314.660 163.463,326.114 163.332,327.319 162.851 C 329.867 161.836,330.509 155.620,328.872 147.835 C 327.907 143.250,328.133 143.472,323.584 142.640 C 318.139 141.644,313.764 141.756,313.433 142.900 M86.808 149.300 C 86.812 149.575,87.000 151.060,87.226 152.600 C 87.525 154.642,87.509 155.860,87.166 157.100 L 86.696 158.800 82.748 158.800 C 80.577 158.800,78.800 158.640,78.800 158.443 C 78.800 158.247,78.305 157.966,77.700 157.818 C 70.775 156.126,70.540 154.788,76.438 150.654 L 79.000 148.858 82.900 148.829 C 85.765 148.808,86.802 148.933,86.808 149.300 M163.000 150.400 C 163.397 151.280,163.835 152.000,163.973 152.000 C 164.112 152.000,164.467 152.817,164.762 153.816 L 165.298 155.633 163.582 157.216 C 161.917 158.754,159.200 159.488,159.200 158.400 C 159.200 158.180,158.305 158.000,157.210 158.000 C 154.276 158.000,153.691 156.765,154.571 152.424 C 154.917 150.717,155.200 149.203,155.200 149.060 C 155.200 148.917,156.793 148.800,158.739 148.800 L 162.279 148.800 163.000 150.400 M245.200 149.100 C 245.201 149.265,245.478 150.730,245.817 152.355 C 246.392 155.111,246.385 155.428,245.717 157.054 L 245.000 158.797 241.777 158.799 L 238.555 158.800 236.734 157.100 C 235.000 155.480,234.638 153.600,236.061 153.600 C 236.248 153.600,236.400 153.335,236.400 153.011 C 236.400 152.687,236.796 151.607,237.280 150.611 L 238.159 148.800 241.680 148.800 C 243.616 148.800,245.200 148.935,245.200 149.100 M323.855 150.594 C 329.098 154.183,329.314 155.683,324.800 157.154 C 323.150 157.692,321.740 158.282,321.667 158.466 C 321.476 158.944,317.600 158.881,317.600 158.400 C 317.600 158.180,316.714 158.000,315.631 158.000 C 313.086 158.000,312.566 156.845,313.184 152.569 C 313.404 151.046,313.588 149.575,313.592 149.300 C 313.598 148.935,314.634 148.800,317.418 148.800 L 321.235 148.800 323.855 150.594 M64.964 168.598 C 64.571 169.198,63.848 170.164,63.357 170.745 C 62.866 171.325,61.730 172.666,60.832 173.724 C 58.380 176.616,58.960 177.459,63.706 177.899 C 66.856 178.190,67.607 177.521,67.583 174.438 C 67.543 169.323,66.302 166.556,64.964 168.598 M92.867 168.274 C 92.624 168.728,92.307 169.842,92.162 170.750 C 92.016 171.657,91.741 172.400,91.549 172.400 C 90.537 172.400,91.263 176.215,92.454 177.157 C 93.879 178.284,99.371 178.208,102.209 177.022 C 104.019 176.266,104.153 176.448,98.808 172.381 C 96.942 170.962,94.941 169.271,94.362 168.624 C 93.331 167.473,93.300 167.466,92.867 168.274 M175.133 168.526 C 173.102 170.275,172.223 175.930,173.820 176.977 C 175.800 178.274,179.667 178.150,181.461 176.731 C 181.951 176.344,181.064 174.000,180.427 174.000 C 180.093 174.000,177.209 169.822,177.187 169.306 C 177.135 168.051,176.129 167.668,175.133 168.526 M223.513 168.700 C 222.924 170.078,220.488 173.601,219.573 174.400 C 217.968 175.800,218.217 176.675,220.429 177.410 C 224.320 178.702,227.200 177.579,227.200 174.769 C 227.200 169.928,224.727 165.859,223.513 168.700 M304.930 169.500 C 303.867 170.655,302.851 171.600,302.671 171.600 C 302.359 171.600,299.031 174.248,297.556 175.669 C 295.605 177.549,305.961 178.916,308.145 177.067 C 309.298 176.092,309.481 170.400,308.359 170.400 C 308.162 170.400,308.000 170.074,308.000 169.676 C 308.000 167.375,306.941 167.314,304.930 169.500 M333.829 168.500 C 332.562 170.433,332.175 175.909,333.227 177.028 C 334.268 178.136,337.089 178.335,339.595 177.477 C 341.553 176.807,341.517 175.983,339.424 173.627 C 338.423 172.500,337.288 171.094,336.902 170.503 C 336.516 169.913,335.808 169.005,335.328 168.486 L 334.456 167.543 333.829 168.500 M251.600 172.716 L 251.600 176.385 252.700 176.634 C 253.305 176.771,254.879 177.151,256.198 177.478 C 258.829 178.131,260.763 177.978,262.255 177.001 L 263.225 176.365 261.958 174.601 C 259.797 171.592,259.249 171.253,255.782 170.783 C 253.713 170.503,252.425 170.124,252.100 169.699 C 251.689 169.163,251.600 169.700,251.600 172.716 M139.990 172.476 C 136.786 176.391,136.804 176.994,140.144 177.771 C 142.060 178.217,148.800 176.477,148.800 175.537 C 148.800 174.488,147.638 172.800,146.916 172.800 C 146.590 172.800,145.840 172.455,145.248 172.034 C 142.995 170.430,141.566 170.550,139.990 172.476 M66.064 176.490 C 65.908 176.649,65.245 176.619,64.590 176.424 C 63.936 176.229,63.620 176.053,63.890 176.034 C 64.159 176.015,64.687 175.415,65.064 174.700 L 65.748 173.400 66.047 174.800 C 66.212 175.570,66.219 176.330,66.064 176.490 M224.563 176.372 C 223.547 177.316,222.819 176.242,223.510 174.817 L 224.180 173.435 224.553 174.735 C 224.776 175.512,224.780 176.170,224.563 176.372 M307.223 176.457 C 307.100 176.599,306.419 176.624,305.709 176.513 L 304.418 176.312 305.709 174.938 L 307.000 173.565 307.223 174.882 C 307.345 175.607,307.345 176.316,307.223 176.457 M94.957 175.391 C 95.539 176.278,95.516 176.322,94.379 176.488 C 92.922 176.702,92.898 176.678,93.110 175.231 C 93.308 173.886,94.011 173.947,94.957 175.391 M176.923 175.166 C 177.459 176.239,177.445 176.347,176.753 176.528 C 175.803 176.777,175.456 176.229,175.770 174.977 C 176.084 173.726,176.216 173.748,176.923 175.166 M335.600 175.449 C 335.600 175.752,335.825 176.018,336.100 176.040 C 336.375 176.062,336.150 176.213,335.600 176.377 C 334.253 176.777,334.103 176.640,334.314 175.208 C 334.499 173.946,335.600 174.153,335.600 175.449 M110.765 181.182 C 110.196 181.355,109.253 181.809,108.668 182.192 L 107.606 182.888 110.503 184.323 C 112.096 185.113,113.460 185.903,113.533 186.079 C 113.732 186.557,122.000 186.479,122.000 186.000 C 122.000 185.772,123.175 185.600,124.724 185.600 C 127.262 185.600,130.506 184.700,133.003 183.302 C 133.969 182.762,132.325 181.633,129.884 181.161 C 127.746 180.747,112.144 180.764,110.765 181.182 M190.552 181.152 C 189.645 181.310,188.387 181.779,187.755 182.193 L 186.607 182.945 188.203 183.663 C 189.082 184.058,191.195 184.686,192.900 185.058 C 194.605 185.431,196.000 185.886,196.000 186.068 C 196.000 186.497,203.890 186.504,204.067 186.076 C 204.140 185.897,205.621 185.443,207.358 185.065 C 209.096 184.688,211.213 184.069,212.064 183.690 L 213.612 183.000 212.136 182.000 C 210.592 180.954,195.155 180.347,190.552 181.152 M270.262 181.206 C 267.882 181.622,266.395 182.742,267.444 183.328 C 269.707 184.595,273.172 185.600,275.276 185.600 C 276.559 185.600,277.600 185.779,277.600 186.000 C 277.600 186.493,286.674 186.551,286.867 186.059 C 286.940 185.872,288.225 185.083,289.722 184.306 L 292.444 182.893 290.922 181.946 C 289.267 180.917,274.864 180.401,270.262 181.206 M121.282 183.097 C 119.678 183.173,117.158 183.173,115.682 183.096 C 114.207 183.019,115.520 182.957,118.600 182.958 C 121.680 182.958,122.887 183.021,121.282 183.097 M202.500 183.096 C 201.125 183.174,198.875 183.174,197.500 183.096 C 196.125 183.018,197.250 182.954,200.000 182.954 C 202.750 182.954,203.875 183.018,202.500 183.096 M284.319 183.097 C 282.624 183.172,279.744 183.172,277.919 183.098 C 276.094 183.024,277.480 182.962,281.000 182.962 C 284.520 182.961,286.014 183.022,284.319 183.097 M104.000 218.271 C 102.112 218.599,100.307 219.293,99.649 219.946 C 99.288 220.306,98.527 220.963,97.959 221.408 C 97.392 221.852,96.718 222.605,96.464 223.081 C 95.796 224.329,95.796 376.071,96.464 377.319 C 96.718 377.795,97.368 378.531,97.906 378.955 C 98.445 379.379,99.190 380.052,99.562 380.451 C 102.214 383.298,188.086 383.503,190.200 380.667 C 190.420 380.372,191.015 379.910,191.521 379.640 C 194.213 378.206,193.997 385.151,193.997 300.200 C 193.997 214.532,194.264 222.185,191.218 220.609 C 190.548 220.263,190.000 219.834,190.000 219.657 C 190.000 218.407,110.602 217.128,104.000 218.271 M214.600 218.254 C 212.085 218.795,210.400 219.343,210.400 219.619 C 210.400 219.793,209.766 220.327,208.990 220.806 C 206.184 222.540,206.400 215.921,206.401 300.280 C 206.403 375.658,206.413 376.616,207.196 377.900 C 207.632 378.615,208.146 379.200,208.340 379.200 C 208.533 379.200,209.146 379.655,209.703 380.212 C 211.840 382.349,212.619 382.386,255.400 382.386 C 298.827 382.386,298.887 382.383,301.311 380.014 C 301.993 379.346,302.693 378.800,302.866 378.800 C 304.421 378.800,304.400 379.901,304.400 300.200 C 304.400 220.597,304.419 221.600,302.879 221.600 C 302.714 221.600,302.011 221.082,301.319 220.449 C 298.737 218.092,300.939 218.205,256.400 218.141 C 233.850 218.108,215.040 218.159,214.600 218.254 M185.483 220.641 C 186.799 221.024,188.317 221.849,189.245 222.688 L 190.800 224.093 190.800 300.200 L 190.800 376.307 189.207 377.746 C 188.282 378.581,186.857 379.376,185.807 379.640 C 184.813 379.890,184.000 380.254,184.000 380.447 C 184.000 380.648,167.231 380.800,145.000 380.800 C 123.150 380.800,106.000 380.647,106.000 380.452 C 106.000 380.261,105.153 379.867,104.118 379.577 C 103.083 379.287,101.553 378.433,100.718 377.679 L 99.200 376.307 99.200 300.232 L 99.200 224.157 100.514 222.883 C 103.551 219.940,101.661 220.062,144.738 220.029 C 178.972 220.003,183.523 220.072,185.483 220.641 M296.228 220.810 C 297.523 221.255,299.171 222.190,299.891 222.888 L 301.200 224.157 301.200 300.232 L 301.200 376.307 299.682 377.679 C 298.847 378.433,297.317 379.287,296.282 379.577 C 295.247 379.867,294.400 380.261,294.400 380.452 C 294.400 380.647,277.250 380.800,255.400 380.800 C 233.169 380.800,216.400 380.648,216.400 380.447 C 216.400 380.254,215.587 379.890,214.593 379.640 C 213.543 379.376,212.118 378.581,211.193 377.746 L 209.600 376.307 209.600 300.232 L 209.600 224.157 210.966 222.833 C 213.948 219.943,212.110 220.059,255.237 220.028 C 293.027 220.001,293.926 220.018,296.228 220.810 " stroke="none" fill="#6ea4d6" fill-rule="evenodd"></path></g></svg>